<?xml version="1.0" standalone="no"?>
<!DOCTYPE svg PUBLIC "-//W3C//DTD SVG 1.1//EN" "http://www.w3.org/Graphics/SVG/1.1/DTD/svg11.dtd" >
<svg>
<metadata>
Created by FontForge 20090622 at Mon Jun 11 07:02:28 2018
 By deploy user
Copyright &#194;&#169; 2015 by Wei Huang. All rights reserved.
</metadata>
<defs>
<font id="WorkSans-ExtraBold" horiz-adv-x="604" >
  <font-face 
    font-family="Work Sans ExtraBold"
    font-weight="800"
    font-stretch="normal"
    units-per-em="1000"
    panose-1="0 0 9 0 0 0 0 0 0 0"
    ascent="800"
    descent="-200"
    x-height="500"
    cap-height="660"
    bbox="-358 -342 1368 916"
    underline-thickness="50"
    underline-position="-50"
    unicode-range="U+0020-U+FB02"
  />
<missing-glyph horiz-adv-x="500" 
d="M50 660h400v-660h-400v660zM370 80v500h-240v-500h240z" />
    <glyph glyph-name="fi" unicode="fi" horiz-adv-x="723" 
d="M271 500h146v-139h-133v-361h-202v361h-74v139h74v32q0 98 61 144.5t155 46.5q42 0 74.5 -8t50.5 -23l-16 -121q-20 16 -57 16q-39 0 -59 -15.5t-20 -50.5v-21zM486 565q-26 21 -26 68q0 48 26 69t87 21t87 -21t26 -69q0 -47 -26 -68t-87 -21t-87 21zM674 0h-202v500h202
v-500z" />
    <glyph glyph-name="fl" unicode="fl" horiz-adv-x="758" 
d="M271 500h146v-139h-133v-361h-202v361h-74v139h74v32q0 98 61 144.5t155 46.5q42 0 74.5 -8t50.5 -23l-16 -121q-20 16 -57 16q-39 0 -59 -15.5t-20 -50.5v-21zM673 187q0 -32 10 -46t34 -14q22 0 43 7l-11 -115q-18 -13 -50.5 -21t-64.5 -8q-87 0 -125 39t-38 128v549
h202v-519z" />
    <glyph glyph-name="f_t.liga" unicode="ft" horiz-adv-x="801" 
d="M794 26q-24 -16 -65 -26t-80 -10q-100 0 -150 40t-50 130v201h-165v-361h-202v361h-74v139h74v32q0 98 58.5 145t144.5 47q72 0 111 -30l-9 -119q-11 6 -22 9t-28 3q-30 0 -48 -15.5t-18 -50.5v-21h178v109l202 56v-165h137v-139h-137v-169q0 -35 15.5 -50t47.5 -15
q38 0 67 17z" />
    <glyph glyph-name="g_j.liga" unicode="gj" horiz-adv-x="874" 
d="M638 565q-26 21 -26 68q0 48 26 69t86 21q61 0 87.5 -21t26.5 -69q0 -47 -26.5 -68t-87.5 -21q-60 0 -86 21zM490 87q50 -40 50 -120q0 -90 -71 -136t-198 -46q-124 0 -191 29.5t-67 82.5q0 33 22.5 58.5t70.5 36.5q-36 15 -57 41.5t-21 65.5q0 35 22.5 62.5t60.5 41.5
q-83 42 -83 136q0 84 66 127.5t192 43.5q56 0 100 -9q7 63 43 106t101 43q13 0 20 -1l19 -129q-18 3 -33 3q-31 0 -52 -12.5t-30 -32.5q79 -41 79 -139q0 -84 -61 -126.5t-186 -42.5q-60 0 -104 10q-23 -7 -23 -25q0 -28 54 -28h133q94 0 144 -40zM624 500h202v-528
q0 -107 -57.5 -147t-150.5 -40q-27 0 -46 3t-39 11l26 137q11 -10 33 -10q16 0 24 12.5t8 42.5v519zM238 385q-15 -16 -15 -45t15 -44.5t43 -15.5t43 15.5t15 44.5t-15 45t-43 16t-43 -16zM357 -79.5q28 9.5 28 26.5q0 23 -49 23h-104q-39 0 -54.5 -6t-15.5 -20
q0 -33 114 -33q53 0 81 9.5z" />
    <glyph glyph-name="j_j.liga" unicode="jj" horiz-adv-x="597" 
d="M236.5 702q26.5 -21 26.5 -69q0 -47 -26.5 -68t-87.5 -21q-60 0 -86 21t-26 68q0 48 26 69t86 21q61 0 87.5 -21zM535 702q26 -21 26 -69t-26 -68.5t-87 -20.5q-60 0 -86 21t-26 68q0 48 26 69t86 21q61 0 87 -21zM251 -20q0 -103 -51 -149t-157 -46q-87 0 -142 31
l26 123q9 -8 24.5 -12.5t31.5 -4.5q33 0 49.5 18t16.5 58v502h202v-520zM550 -28q0 -107 -59 -147t-154 -40q-27 0 -47.5 4t-43.5 14l27 137q14 -14 39 -14q36 0 36 55v519h202v-528z" />
    <glyph glyph-name="t_t.liga" unicode="tt" horiz-adv-x="828" 
d="M822 26q-25 -16 -66 -26t-80 -10q-99 0 -149.5 40t-50.5 130v201h-186v-169q0 -36 10.5 -50.5t39.5 -14.5q20 0 33.5 4.5t26.5 14.5l17 -120q-24 -16 -63 -26t-76 -10q-94 0 -142 40t-48 130v201h-81v139h81v109l202 56v-165h186v109l202 56v-165h137v-139h-137v-169
q0 -35 15.5 -50t47.5 -15q38 0 67 17z" />
    <glyph glyph-name=".notdef" horiz-adv-x="500" 
d="M50 660h400v-660h-400v660zM370 80v500h-240v-500h240z" />
    <glyph glyph-name="space" unicode=" " horiz-adv-x="267" 
 />
    <glyph glyph-name="A" unicode="A" horiz-adv-x="684" 
d="M440 137h-201l-38 -137h-204l222 660h245l223 -660h-210zM405 269l-36 131l-28 108h-2l-27 -107l-37 -132h130z" />
    <glyph glyph-name="Aacute" unicode="&#xc1;" horiz-adv-x="684" 
d="M404 715h-144l53 164h185zM440 137h-201l-38 -137h-204l222 660h245l223 -660h-210zM405 269l-36 131l-28 108h-2l-27 -107l-37 -132h130z" />
    <glyph glyph-name="Abreve" unicode="&#x102;" horiz-adv-x="684" 
d="M440 137h-201l-38 -137h-204l222 660h245l223 -660h-210zM405 269l-36 131l-28 108h-2l-27 -107l-37 -132h130zM470.5 751.5q-46.5 -44.5 -129.5 -44.5t-129.5 44.5t-46.5 123.5h125q0 -29 13 -45t38 -16t38 16t13 45h125q0 -79 -46.5 -123.5z" />
    <glyph glyph-name="Acircumflex" unicode="&#xc2;" horiz-adv-x="684" 
d="M281 714h-145l110 167h190l110 -167h-145l-60 77zM440 137h-201l-38 -137h-204l222 660h245l223 -660h-210zM405 269l-36 131l-28 108h-2l-27 -107l-37 -132h130z" />
    <glyph glyph-name="Adieresis" unicode="&#xc4;" horiz-adv-x="684" 
d="M440 137h-201l-38 -137h-204l222 660h245l223 -660h-210zM405 269l-36 131l-28 108h-2l-27 -107l-37 -132h130zM297 853.5q25 -22.5 25 -62.5q0 -41 -25 -63t-71 -22q-44 0 -69 22.5t-25 62.5t25 62.5t69 22.5q46 0 71 -22.5zM526 853.5q25 -22.5 25 -62.5q0 -41 -25 -63
t-71 -22q-44 0 -69 22.5t-25 62.5t25 62.5t69 22.5q46 0 71 -22.5z" />
    <glyph glyph-name="Agrave" unicode="&#xc0;" horiz-adv-x="684" 
d="M261 715l-94 164h185l53 -164h-144zM440 137h-201l-38 -137h-204l222 660h245l223 -660h-210zM405 269l-36 131l-28 108h-2l-27 -107l-37 -132h130z" />
    <glyph glyph-name="Amacron" unicode="&#x100;" horiz-adv-x="684" 
d="M440 137h-201l-38 -137h-204l222 660h245l223 -660h-210zM405 269l-36 131l-28 108h-2l-27 -107l-37 -132h130zM531 719h-380v119h380v-119z" />
    <glyph glyph-name="Aogonek" unicode="&#x104;" horiz-adv-x="684" 
d="M692 -190q-22 -14 -48.5 -19.5t-62.5 -5.5q-65 0 -105.5 29.5t-40.5 86.5q0 64 60 99h-18l-37 137h-201l-38 -137h-204l222 660h245l223 -660q-63 -7 -89 -23t-26 -42q0 -20 13.5 -30.5t38.5 -10.5q29 0 43 9zM405 269l-36 131l-28 108h-2l-27 -107l-37 -132h130z" />
    <glyph glyph-name="Aring" unicode="&#xc5;" horiz-adv-x="684" 
d="M440 137h-201l-38 -137h-204l224 643q-37 31 -37 88q0 61 42 97t116 36q75 0 117 -36t42 -97q0 -54 -39 -88l225 -643h-210zM302.5 761q-14.5 -14 -14.5 -38q0 -23 14.5 -37t39.5 -14t39.5 14t14.5 37q0 24 -14.5 38t-39.5 14t-39.5 -14zM405 269l-36 131l-27 108h-4
l-26 -107l-37 -132h130z" />
    <glyph glyph-name="Atilde" unicode="&#xc3;" horiz-adv-x="684" 
d="M440 137h-201l-38 -137h-204l222 660h245l223 -660h-210zM405 269l-36 131l-28 108h-2l-27 -107l-37 -132h130zM507.5 752q-35.5 -42 -101.5 -42q-30 0 -48.5 9t-39.5 25q-12 10 -20.5 15t-19.5 5q-15 0 -23 -12.5t-11 -39.5h-108q6 168 140 168q30 0 49.5 -9t39.5 -25
q13 -10 21 -14.5t18 -4.5q15 0 23 12.5t11 39.5h108q-3 -85 -38.5 -127z" />
    <glyph glyph-name="AE" unicode="&#xc6;" horiz-adv-x="913" 
d="M891 145v-145h-481v190h-155l-59 -190h-203l246 660h639v-145h-279v-118h214v-135h-214v-117h292zM410 315v207h-53l-64 -207h117z" />
    <glyph glyph-name="B" unicode="B" horiz-adv-x="694" 
d="M61 660h351q243 -1 243 -177q0 -60 -36 -100t-106 -50v-1q79 -10 119 -51t40 -105q0 -87 -60 -131.5t-179 -44.5h-372v660zM369 398q77 0 77 59t-77 59h-112v-118h112zM386 138q77 0 77 60q0 59 -77 59h-129v-119h129z" />
    <glyph glyph-name="C" unicode="C" horiz-adv-x="679" 
d="M559.5 40q-77.5 -50 -192.5 -50q-102 0 -176.5 40t-114.5 117t-40 183t40 182.5t114 117t176 40.5q112 0 191 -47.5t101 -143.5l-177 -71q-11 61 -36 83.5t-73 22.5q-61 0 -93.5 -46t-32.5 -138q0 -184 124 -184q50 0 76.5 23.5t35.5 75.5l182 -49q-27 -106 -104.5 -156z
" />
    <glyph glyph-name="Cacute" unicode="&#x106;" horiz-adv-x="679" 
d="M515 879l-94 -164h-144l53 164h185zM559.5 40q-77.5 -50 -192.5 -50q-102 0 -176.5 40t-114.5 117t-40 183t40 182.5t114 117t176 40.5q112 0 191 -47.5t101 -143.5l-177 -71q-11 61 -36 83.5t-73 22.5q-61 0 -93.5 -46t-32.5 -138q0 -184 124 -184q50 0 76.5 23.5
t35.5 75.5l182 -49q-27 -106 -104.5 -156z" />
    <glyph glyph-name="Ccaron" unicode="&#x10c;" horiz-adv-x="679" 
d="M449 714h-190l-110 167h145l60 -77l60 77h145zM559.5 40q-77.5 -50 -192.5 -50q-102 0 -176.5 40t-114.5 117t-40 183t40 182.5t114 117t176 40.5q112 0 191 -47.5t101 -143.5l-177 -71q-11 61 -36 83.5t-73 22.5q-61 0 -93.5 -46t-32.5 -138q0 -184 124 -184
q50 0 76.5 23.5t35.5 75.5l182 -49q-27 -106 -104.5 -156z" />
    <glyph glyph-name="Ccedilla" unicode="&#xc7;" horiz-adv-x="679" 
d="M453 -2q51 -36 51 -91q0 -62 -42 -92t-111 -30q-47 0 -77.5 11t-51.5 31l42 88q29 -29 73 -29q25 0 40 12.5t15 34.5q0 20 -14 34t-50 25q-137 11 -214.5 99.5t-77.5 238.5q0 106 40 182.5t114 117t176 40.5q112 0 191 -47.5t101 -143.5l-177 -71q-11 61 -36 83.5
t-73 22.5q-61 0 -93.5 -46t-32.5 -138q0 -184 124 -184q50 0 76.5 23.5t35.5 75.5l182 -49q-42 -166 -211 -198z" />
    <glyph glyph-name="D" unicode="D" horiz-adv-x="717" 
d="M599.5 574.5q81.5 -85.5 81.5 -244.5t-81.5 -244.5t-235.5 -85.5h-303v660h303q154 0 235.5 -85.5zM441 192.5q30 43.5 30 137.5t-30 137.5t-102 43.5h-74v-362h74q72 0 102 43.5z" />
    <glyph glyph-name="Eth" unicode="&#xd0;" horiz-adv-x="744" 
d="M626.5 574.5q81.5 -85.5 81.5 -244.5t-81.5 -244.5t-235.5 -85.5h-303v283h-78v90h78v287h303q154 0 235.5 -85.5zM468.5 192.5q30.5 43.5 30.5 137.5t-30.5 137.5t-102.5 43.5h-73v-138h106v-90h-106v-134h73q72 0 102.5 43.5z" />
    <glyph glyph-name="Dcaron" unicode="&#x10e;" horiz-adv-x="717" 
d="M230 714l-110 167h145l60 -77l60 77h145l-110 -167h-190zM599.5 574.5q81.5 -85.5 81.5 -244.5t-81.5 -244.5t-235.5 -85.5h-303v660h303q154 0 235.5 -85.5zM441 192.5q30 43.5 30 137.5t-30 137.5t-102 43.5h-74v-362h74q72 0 102 43.5z" />
    <glyph glyph-name="Dcroat" unicode="&#x110;" horiz-adv-x="744" 
d="M626.5 574.5q81.5 -85.5 81.5 -244.5t-81.5 -244.5t-235.5 -85.5h-303v283h-78v90h78v287h303q154 0 235.5 -85.5zM468.5 192.5q30.5 43.5 30.5 137.5t-30.5 137.5t-102.5 43.5h-73v-138h106v-90h-106v-134h73q72 0 102.5 43.5z" />
    <glyph glyph-name="E" unicode="E" horiz-adv-x="628" 
d="M606 153v-153h-545v660h532v-153h-328v-107h262v-142h-262v-105h341z" />
    <glyph glyph-name="Eacute" unicode="&#xc9;" horiz-adv-x="628" 
d="M380 715h-144l53 164h185zM606 153v-153h-545v660h532v-153h-328v-107h262v-142h-262v-105h341z" />
    <glyph glyph-name="Ecaron" unicode="&#x11a;" horiz-adv-x="628" 
d="M218 714l-110 167h145l60 -77l60 77h145l-110 -167h-190zM606 153v-153h-545v660h532v-153h-328v-107h262v-142h-262v-105h341z" />
    <glyph glyph-name="Ecircumflex" unicode="&#xca;" horiz-adv-x="628" 
d="M258 714h-145l110 167h190l110 -167h-145l-60 77zM606 153v-153h-545v660h532v-153h-328v-107h262v-142h-262v-105h341z" />
    <glyph glyph-name="Edieresis" unicode="&#xcb;" horiz-adv-x="628" 
d="M606 153v-153h-545v660h532v-153h-328v-107h262v-142h-262v-105h341zM273 853.5q25 -22.5 25 -62.5q0 -41 -25 -63t-71 -22q-44 0 -69 22.5t-25 62.5t25 62.5t69 22.5q46 0 71 -22.5zM502 853.5q25 -22.5 25 -62.5q0 -41 -25 -63t-71 -22q-44 0 -69 22.5t-25 62.5
t25 62.5t69 22.5q46 0 71 -22.5z" />
    <glyph glyph-name="Edotaccent" unicode="&#x116;" horiz-adv-x="628" 
d="M606 153v-153h-545v660h532v-153h-328v-107h262v-142h-262v-105h341zM396.5 861.5q26.5 -22.5 26.5 -65.5t-26.5 -65t-78.5 -22q-102 0 -102 87q0 88 102 88q52 0 78.5 -22.5z" />
    <glyph glyph-name="Egrave" unicode="&#xc8;" horiz-adv-x="628" 
d="M265 715l-94 164h185l53 -164h-144zM606 153v-153h-545v660h532v-153h-328v-107h262v-142h-262v-105h341z" />
    <glyph glyph-name="Emacron" unicode="&#x112;" horiz-adv-x="628" 
d="M606 153v-153h-545v660h532v-153h-328v-107h262v-142h-262v-105h341zM508 719h-380v119h380v-119z" />
    <glyph glyph-name="Eogonek" unicode="&#x118;" horiz-adv-x="628" 
d="M611 -190q-22 -14 -48.5 -19.5t-62.5 -5.5q-64 0 -105 29t-41 86q0 65 73 100h-366v660h532v-153h-328v-107h262v-142h-262v-105h341v-153q-63 -7 -89 -23t-26 -42q0 -19 14 -30t38 -11q29 0 43 9z" />
    <glyph glyph-name="F" unicode="F" horiz-adv-x="613" 
d="M265 507v-115h262v-153h-262v-239h-204v660h531v-153h-327z" />
    <glyph glyph-name="G" unicode="G" horiz-adv-x="722" 
d="M363 365h308v-365h-138l-7 76q-53 -86 -183 -86q-88 0 -157.5 39t-109.5 115t-40 184q0 107 40.5 184t116 117.5t179.5 40.5q118 0 189 -41t111 -134l-190 -71q-19 90 -103 90q-133 0 -133 -184q0 -98 34 -143t105 -45q52 0 83 22t31 65v5h-136v131z" />
    <glyph glyph-name="Gbreve" unicode="&#x11e;" horiz-adv-x="722" 
d="M363 365h308v-365h-138l-7 76q-53 -86 -183 -86q-88 0 -157.5 39t-109.5 115t-40 184q0 107 40.5 184t116 117.5t179.5 40.5q118 0 189 -41t111 -134l-190 -71q-19 90 -103 90q-133 0 -133 -184q0 -98 34 -143t105 -45q52 0 83 22t31 65v5h-136v131zM495.5 751.5
q-46.5 -44.5 -129.5 -44.5t-129.5 44.5t-46.5 123.5h125q0 -29 13 -45t38 -16t38 16t13 45h125q0 -79 -46.5 -123.5z" />
    <glyph glyph-name="H" unicode="H" horiz-adv-x="745" 
d="M684 660v-660h-205v256h-214v-256h-204v660h204v-251h214v251h205z" />
    <glyph glyph-name="I" unicode="I" horiz-adv-x="326" 
d="M265 0h-204v660h204v-660z" />
    <glyph glyph-name="IJ" unicode="&#x132;" horiz-adv-x="966" 
d="M265 0h-204v660h204v-660zM919 263q0 -130 -78 -201.5t-220 -71.5q-134 0 -201.5 59.5t-67.5 162.5q0 32 6 65l204 34q-5 -42 -5 -66q0 -53 18.5 -76t57.5 -23q43 0 62 32t19 103v379h205v-397z" />
    <glyph glyph-name="Iacute" unicode="&#xcd;" horiz-adv-x="326" 
d="M319 879l-94 -164h-144l53 164h185zM265 0h-204v660h204v-660z" />
    <glyph glyph-name="Icircumflex" unicode="&#xce;" horiz-adv-x="326" 
d="M223 714l-60 77l-60 -77h-145l110 167h190l110 -167h-145zM265 0h-204v660h204v-660z" />
    <glyph glyph-name="Idieresis" unicode="&#xcf;" horiz-adv-x="326" 
d="M122 853.5q25 -22.5 25 -62.5t-24.5 -62.5t-68.5 -22.5q-43 0 -66.5 22.5t-23.5 62.5t23.5 62.5t66.5 22.5t68 -22.5zM338 853.5q25 -22.5 25 -62.5t-25 -62.5t-69 -22.5q-43 0 -66.5 22.5t-23.5 62.5t23.5 62.5t66.5 22.5q44 0 69 -22.5zM265 0h-204v660h204v-660z" />
    <glyph glyph-name="Idotaccent" unicode="&#x130;" horiz-adv-x="326" 
d="M265 0h-204v660h204v-660zM241.5 861.5q26.5 -22.5 26.5 -65.5t-26.5 -65t-78.5 -22q-102 0 -102 87q0 88 102 88q52 0 78.5 -22.5z" />
    <glyph glyph-name="Igrave" unicode="&#xcc;" horiz-adv-x="326" 
d="M227 715h-144l-94 164h185zM265 0h-204v660h204v-660z" />
    <glyph glyph-name="Imacron" unicode="&#x12a;" horiz-adv-x="326" 
d="M316 719h-308v119h308v-119zM265 0h-204v660h204v-660z" />
    <glyph glyph-name="Iogonek" unicode="&#x12e;" horiz-adv-x="326" 
d="M274 -190q-22 -14 -48.5 -19.5t-63.5 -5.5q-64 0 -104.5 29t-40.5 86q0 32 16 57.5t45 42.5h-17v660h204v-660h1q-62 -9 -87 -24.5t-25 -40.5q0 -20 13 -30.5t38 -10.5q27 0 43 10z" />
    <glyph glyph-name="J" unicode="J" horiz-adv-x="640" 
d="M593 263q0 -130 -78 -201.5t-220 -71.5q-134 0 -201.5 59.5t-67.5 162.5q0 32 6 65l204 34q-5 -42 -5 -66q0 -53 18.5 -76t57.5 -23q43 0 62 32t19 103v379h205v-397z" />
    <glyph glyph-name="K" unicode="K" horiz-adv-x="706" 
d="M332 264l-67 -86v-178h-204v660h204v-269l202 269h221l-211 -265l227 -395h-231z" />
    <glyph glyph-name="L" unicode="L" 
d="M579 153v-153h-518v660h204v-507h314z" />
    <glyph glyph-name="Lacute" unicode="&#x139;" 
d="M225 715h-144l53 164h185zM579 153v-153h-518v660h204v-507h314z" />
    <glyph glyph-name="Lcaron" unicode="&#x13d;" 
d="M477 447h-131l25 254h173zM579 153v-153h-518v660h204v-507h314z" />
    <glyph glyph-name="Ldot" unicode="&#x13f;" horiz-adv-x="653" 
d="M579 153v-153h-518v660h204v-507h314zM610.5 433q29.5 -26 29.5 -73t-29.5 -73t-82.5 -26t-82.5 26t-29.5 73q0 46 29.5 72.5t82.5 26.5t82.5 -26z" />
    <glyph glyph-name="Lslash" unicode="&#x141;" horiz-adv-x="650" 
d="M625 153v-153h-518v207l-112 -52v140l112 52v313h205v-220l168 77v-140l-168 -77v-147h313z" />
    <glyph glyph-name="M" unicode="M" horiz-adv-x="930" 
d="M870 0h-180v264l4 213h-2l-145 -477h-164l-143 477h-3l4 -213v-264h-180v660h288l89 -313l33 -131h2l33 131l89 313h275v-660z" />
    <glyph glyph-name="N" unicode="N" horiz-adv-x="744" 
d="M683 0h-224l-180 327l-42 90h-2l4 -131v-286h-178v660h223l180 -327l43 -90h1l-4 131v286h179v-660z" />
    <glyph glyph-name="Nacute" unicode="&#x143;" horiz-adv-x="744" 
d="M529 879l-94 -164h-144l53 164h185zM683 0h-224l-180 327l-42 90h-2l4 -131v-286h-178v660h223l180 -327l43 -90h1l-4 131v286h179v-660z" />
    <glyph glyph-name="Ncaron" unicode="&#x147;" horiz-adv-x="744" 
d="M463 714h-190l-110 167h145l60 -77l60 77h145zM683 0h-224l-180 327l-42 90h-2l4 -131v-286h-178v660h223l180 -327l43 -90h1l-4 131v286h179v-660z" />
    <glyph glyph-name="Ntilde" unicode="&#xd1;" horiz-adv-x="744" 
d="M683 0h-224l-180 327l-42 90h-2l4 -131v-286h-178v660h223l180 -327l43 -90h1l-4 131v286h179v-660zM538.5 752q-35.5 -42 -101.5 -42q-30 0 -48.5 9t-39.5 25q-12 10 -20.5 15t-19.5 5q-15 0 -23 -12.5t-11 -39.5h-108q6 168 140 168q30 0 49.5 -9t39.5 -25
q13 -10 21 -14.5t18 -4.5q15 0 23 12.5t11 39.5h108q-3 -85 -38.5 -127z" />
    <glyph glyph-name="O" unicode="O" horiz-adv-x="733" 
d="M609 580.5q87 -89.5 87 -250.5t-87 -250.5t-242 -89.5q-102 0 -176.5 40t-114.5 117t-40 183t40 183t114.5 117t176.5 40q155 0 242 -89.5zM276 468.5q-30 -45.5 -30 -138.5t30 -138.5t91 -45.5t90.5 45t29.5 139t-29.5 139t-90.5 45t-91 -45.5z" />
    <glyph glyph-name="Oacute" unicode="&#xd3;" horiz-adv-x="733" 
d="M523 879l-94 -164h-144l53 164h185zM609 580.5q87 -89.5 87 -250.5t-87 -250.5t-242 -89.5q-102 0 -176.5 40t-114.5 117t-40 183t40 183t114.5 117t176.5 40q155 0 242 -89.5zM276 468.5q-30 -45.5 -30 -138.5t30 -138.5t91 -45.5t90.5 45t29.5 139t-29.5 139t-90.5 45
t-91 -45.5z" />
    <glyph glyph-name="Ocircumflex" unicode="&#xd4;" horiz-adv-x="733" 
d="M427 714l-60 77l-60 -77h-145l110 167h190l110 -167h-145zM609 580.5q87 -89.5 87 -250.5t-87 -250.5t-242 -89.5q-102 0 -176.5 40t-114.5 117t-40 183t40 183t114.5 117t176.5 40q155 0 242 -89.5zM276 468.5q-30 -45.5 -30 -138.5t30 -138.5t91 -45.5t90.5 45
t29.5 139t-29.5 139t-90.5 45t-91 -45.5z" />
    <glyph glyph-name="Odieresis" unicode="&#xd6;" horiz-adv-x="733" 
d="M609 580.5q87 -89.5 87 -250.5t-87 -250.5t-242 -89.5q-102 0 -176.5 40t-114.5 117t-40 183t40 183t114.5 117t176.5 40q155 0 242 -89.5zM276 468.5q-30 -45.5 -30 -138.5t30 -138.5t91 -45.5t90.5 45t29.5 139t-29.5 139t-90.5 45t-91 -45.5zM322 853.5
q25 -22.5 25 -62.5q0 -41 -25 -63t-71 -22q-44 0 -69 22.5t-25 62.5t25 62.5t69 22.5q46 0 71 -22.5zM551 853.5q25 -22.5 25 -62.5q0 -41 -25 -63t-71 -22q-44 0 -69 22.5t-25 62.5t25 62.5t69 22.5q46 0 71 -22.5z" />
    <glyph glyph-name="Ograve" unicode="&#xd2;" horiz-adv-x="733" 
d="M431 715h-144l-94 164h185zM609 580.5q87 -89.5 87 -250.5t-87 -250.5t-242 -89.5q-102 0 -176.5 40t-114.5 117t-40 183t40 183t114.5 117t176.5 40q155 0 242 -89.5zM276 468.5q-30 -45.5 -30 -138.5t30 -138.5t91 -45.5t90.5 45t29.5 139t-29.5 139t-90.5 45
t-91 -45.5z" />
    <glyph glyph-name="Ohungarumlaut" unicode="&#x150;" horiz-adv-x="733" 
d="M406 879l-94 -164h-145l54 164h185zM646 879l-94 -164h-144l53 164h185zM609 580.5q87 -89.5 87 -250.5t-87 -250.5t-242 -89.5q-102 0 -176.5 40t-114.5 117t-40 183t40 183t114.5 117t176.5 40q155 0 242 -89.5zM276 468.5q-30 -45.5 -30 -138.5t30 -138.5t91 -45.5
t90.5 45t29.5 139t-29.5 139t-90.5 45t-91 -45.5z" />
    <glyph glyph-name="Omacron" unicode="&#x14c;" horiz-adv-x="733" 
d="M609 580.5q87 -89.5 87 -250.5t-87 -250.5t-242 -89.5q-102 0 -176.5 40t-114.5 117t-40 183t40 183t114.5 117t176.5 40q155 0 242 -89.5zM276 468.5q-30 -45.5 -30 -138.5t30 -138.5t91 -45.5t90.5 45t29.5 139t-29.5 139t-90.5 45t-91 -45.5zM557 719h-380v119h380
v-119z" />
    <glyph glyph-name="Oslash" unicode="&#xd8;" horiz-adv-x="733" 
d="M696 330q0 -161 -87 -250.5t-242 -89.5q-105 0 -180 42l-40 -56h-92l73 100q-45 44 -68.5 108t-23.5 146q0 106 40 183t114.5 117t176.5 40q104 0 180 -42l38 53h91l-71 -97q91 -89 91 -254zM276 468.5q-30 -45.5 -30 -138.5q0 -58 10 -95l182 256q-29 23 -71 23
q-61 0 -91 -45.5zM457.5 191q29.5 45 29.5 139q0 51 -9 88l-178 -252q28 -20 67 -20q61 0 90.5 45z" />
    <glyph glyph-name="Otilde" unicode="&#xd5;" horiz-adv-x="733" 
d="M609 580.5q87 -89.5 87 -250.5t-87 -250.5t-242 -89.5q-102 0 -176.5 40t-114.5 117t-40 183t40 183t114.5 117t176.5 40q155 0 242 -89.5zM276 468.5q-30 -45.5 -30 -138.5t30 -138.5t91 -45.5t90.5 45t29.5 139t-29.5 139t-90.5 45t-91 -45.5zM532.5 752
q-35.5 -42 -101.5 -42q-30 0 -48.5 9t-39.5 25q-12 10 -20.5 15t-19.5 5q-15 0 -23 -12.5t-11 -39.5h-108q6 168 140 168q30 0 49.5 -9t39.5 -25q13 -10 21 -14.5t18 -4.5q15 0 23 12.5t11 39.5h108q-3 -85 -38.5 -127z" />
    <glyph glyph-name="OE" unicode="&#x152;" horiz-adv-x="1037" 
d="M1014 153v-153h-464v71q-78 -81 -202 -81q-95 0 -165.5 40.5t-108.5 117t-38 182.5t38 182.5t108.5 117t165.5 40.5q124 0 202 -80v70h452v-153h-322v-107h256v-142h-256v-105h334zM447.5 191.5q29.5 45.5 29.5 138.5t-29.5 138.5t-88.5 45.5t-88.5 -45.5t-29.5 -138.5
t29.5 -138.5t88.5 -45.5t88.5 45.5z" />
    <glyph glyph-name="P" unicode="P" horiz-adv-x="688" 
d="M588 603q68 -57 68 -168q0 -105 -68.5 -160.5t-198.5 -55.5h-124v-219h-204v660h328q131 0 199 -57zM428 381q23 18 23 56t-23 56t-72 18h-91v-148h91q49 0 72 18z" />
    <glyph glyph-name="Thorn" unicode="&#xde;" horiz-adv-x="680" 
d="M578 507.5q69 -58.5 68 -170.5q1 -112 -68 -170.5t-198 -58.5h-115v-108h-204v660h204v-94h115q129 0 198 -58.5zM441 337q1 80 -91 80h-85v-161h85q92 0 91 81z" />
    <glyph glyph-name="Q" unicode="Q" horiz-adv-x="733" 
d="M643 -15l47 -143q-57 -49 -179 -49q-104 0 -157.5 47t-53.5 124q0 10 2 30q-126 19 -196 106.5t-70 229.5q0 106 40 183t114.5 117t176.5 40q155 0 242 -89.5t87 -250.5q0 -144 -71 -231.5t-198 -104.5q4 -26 26.5 -37t64.5 -11q81 0 125 39zM276 191.5
q30 -45.5 91 -45.5t90.5 45t29.5 139t-29.5 139t-90.5 45t-91 -45.5t-30 -138.5t30 -138.5z" />
    <glyph glyph-name="R" unicode="R" horiz-adv-x="698" 
d="M344 229h-83v-229h-200v660h338q126 0 192 -55t66 -161q0 -144 -123 -193l161 -251h-223zM261 368h99q50 0 71 16.5t21 54.5t-21.5 55t-70.5 17h-99v-143z" />
    <glyph glyph-name="Racute" unicode="&#x154;" horiz-adv-x="698" 
d="M394 715h-144l53 164h185zM344 229h-83v-229h-200v660h338q126 0 192 -55t66 -161q0 -144 -123 -193l161 -251h-223zM261 368h99q50 0 71 16.5t21 54.5t-21.5 55t-70.5 17h-99v-143z" />
    <glyph glyph-name="Rcaron" unicode="&#x158;" horiz-adv-x="698" 
d="M232 714l-110 167h145l60 -77l60 77h145l-110 -167h-190zM344 229h-83v-229h-200v660h338q126 0 192 -55t66 -161q0 -144 -123 -193l161 -251h-223zM261 368h99q50 0 71 16.5t21 54.5t-21.5 55t-70.5 17h-99v-143z" />
    <glyph glyph-name="S" unicode="S" horiz-adv-x="645" 
d="M497.5 644.5q68.5 -25.5 131.5 -86.5l-100 -129q-40 46 -85.5 66.5t-104.5 20.5q-43 0 -67 -14t-24 -37q0 -18 25 -28t83 -21q96 -17 153.5 -44.5t84 -69.5t26.5 -104q0 -66 -38 -113t-103 -71t-147 -24q-114 0 -184 24.5t-130 77.5l95 140q40 -47 89.5 -67.5
t116.5 -20.5q91 0 91 44q0 19 -26.5 30t-85.5 22q-80 15 -134.5 36t-90.5 62.5t-36 110.5q0 65 35 115t102 78t160 28q95 0 163.5 -25.5z" />
    <glyph glyph-name="Sacute" unicode="&#x15a;" horiz-adv-x="645" 
d="M487 879l-94 -164h-144l53 164h185zM497.5 644.5q68.5 -25.5 131.5 -86.5l-100 -129q-40 46 -85.5 66.5t-104.5 20.5q-43 0 -67 -14t-24 -37q0 -18 25 -28t83 -21q96 -17 153.5 -44.5t84 -69.5t26.5 -104q0 -66 -38 -113t-103 -71t-147 -24q-114 0 -184 24.5t-130 77.5
l95 140q40 -47 89.5 -67.5t116.5 -20.5q91 0 91 44q0 19 -26.5 30t-85.5 22q-80 15 -134.5 36t-90.5 62.5t-36 110.5q0 65 35 115t102 78t160 28q95 0 163.5 -25.5z" />
    <glyph glyph-name="Scaron" unicode="&#x160;" horiz-adv-x="645" 
d="M420 714h-190l-110 167h145l60 -77l60 77h145zM497.5 644.5q68.5 -25.5 131.5 -86.5l-100 -129q-40 46 -85.5 66.5t-104.5 20.5q-43 0 -67 -14t-24 -37q0 -18 25 -28t83 -21q96 -17 153.5 -44.5t84 -69.5t26.5 -104q0 -66 -38 -113t-103 -71t-147 -24q-114 0 -184 24.5
t-130 77.5l95 140q40 -47 89.5 -67.5t116.5 -20.5q91 0 91 44q0 19 -26.5 30t-85.5 22q-80 15 -134.5 36t-90.5 62.5t-36 110.5q0 65 35 115t102 78t160 28q95 0 163.5 -25.5z" />
    <glyph glyph-name="uni1E9E" unicode="&#x1e9e;" horiz-adv-x="729" 
d="M665 309q47 -42 47 -121q0 -94 -60 -143.5t-158 -49.5q-71 0 -115.5 14t-72.5 42l50 115q19 -16 40 -23t53 -7q34 0 54 16t20 44q0 29 -21 43.5t-60 14.5h-92v107l137 150h-96q-60 0 -93 -35t-33 -99v-377h-204v410q0 117 77 183.5t212 66.5h326v-146l-139 -155
q81 -8 128 -50z" />
    <glyph glyph-name="T" unicode="T" horiz-adv-x="671" 
d="M648 507h-210v-507h-204v507h-212v153h626v-153z" />
    <glyph glyph-name="Tcaron" unicode="&#x164;" horiz-adv-x="671" 
d="M235 714l-110 167h145l60 -77l60 77h145l-110 -167h-190zM648 507h-210v-507h-204v507h-212v153h626v-153z" />
    <glyph glyph-name="U" unicode="U" horiz-adv-x="710" 
d="M663 277q0 -287 -308 -287t-308 287v383h206v-394q0 -120 102 -120q103 0 103 120v394h205v-383z" />
    <glyph glyph-name="Uacute" unicode="&#xda;" horiz-adv-x="710" 
d="M512 879l-94 -164h-144l53 164h185zM663 277q0 -287 -308 -287t-308 287v383h206v-394q0 -120 102 -120q103 0 103 120v394h205v-383z" />
    <glyph glyph-name="Ucircumflex" unicode="&#xdb;" horiz-adv-x="710" 
d="M415 714l-60 77l-60 -77h-145l110 167h190l110 -167h-145zM663 277q0 -287 -308 -287t-308 287v383h206v-394q0 -120 102 -120q103 0 103 120v394h205v-383z" />
    <glyph glyph-name="Udieresis" unicode="&#xdc;" horiz-adv-x="710" 
d="M663 277q0 -287 -308 -287t-308 287v383h206v-394q0 -120 102 -120q103 0 103 120v394h205v-383zM311 853.5q25 -22.5 25 -62.5q0 -41 -25 -63t-71 -22q-44 0 -69 22.5t-25 62.5t25 62.5t69 22.5q46 0 71 -22.5zM540 853.5q25 -22.5 25 -62.5q0 -41 -25 -63t-71 -22
q-44 0 -69 22.5t-25 62.5t25 62.5t69 22.5q46 0 71 -22.5z" />
    <glyph glyph-name="Ugrave" unicode="&#xd9;" horiz-adv-x="710" 
d="M419 715h-144l-94 164h185zM663 277q0 -287 -308 -287t-308 287v383h206v-394q0 -120 102 -120q103 0 103 120v394h205v-383z" />
    <glyph glyph-name="Uhungarumlaut" unicode="&#x170;" horiz-adv-x="710" 
d="M399 879l-94 -163h-145l54 163h185zM638 879l-94 -164h-145l54 164h185zM663 277q0 -287 -308 -287t-308 287v383h206v-394q0 -120 102 -120q103 0 103 120v394h205v-383z" />
    <glyph glyph-name="Umacron" unicode="&#x16a;" horiz-adv-x="710" 
d="M663 277q0 -287 -308 -287t-308 287v383h206v-394q0 -120 102 -120q103 0 103 120v394h205v-383zM545 719h-380v119h380v-119z" />
    <glyph glyph-name="Uogonek" unicode="&#x172;" horiz-adv-x="710" 
d="M663 660v-383q0 -242 -220 -280q-33 -12 -47.5 -27.5t-14.5 -34.5t13.5 -30t37.5 -11q29 0 43 9l25 -93q-21 -14 -48 -19.5t-63 -5.5q-64 0 -105 29t-41 86q0 59 50 93q-246 29 -246 284v383h206v-394q0 -120 102 -120q103 0 103 120v394h205z" />
    <glyph glyph-name="Uring" unicode="&#x16e;" horiz-adv-x="710" 
d="M663 277q0 -287 -308 -287t-308 287v383h206v-394q0 -120 102 -120q103 0 103 120v394h205v-383zM457 871.5q36 -32.5 36 -89.5q0 -58 -36 -90.5t-102 -32.5q-65 0 -101.5 32.5t-36.5 90.5q0 57 36.5 89.5t101.5 32.5q66 0 102 -32.5zM322 814.5q-12 -11.5 -12 -32.5
t12 -33t33 -12t33.5 12t12.5 33t-12.5 32.5t-33.5 11.5t-33 -11.5z" />
    <glyph glyph-name="V" unicode="V" horiz-adv-x="696" 
d="M469 0h-242l-228 660h213l106 -379l34 -129l32 127l107 381h206z" />
    <glyph glyph-name="W" unicode="W" horiz-adv-x="1010" 
d="M415 0h-226l-189 660h220l93 -499l104 499h180l109 -497l91 497h212l-189 -660h-220l-64 282l-27 165h-3l-27 -165z" />
    <glyph glyph-name="X" unicode="X" horiz-adv-x="685" 
d="M440 0l-104 193l-98 -193h-232l222 330l-211 330h241l94 -188l95 188h222l-210 -325l227 -335h-246z" />
    <glyph glyph-name="Y" unicode="Y" horiz-adv-x="687" 
d="M446 234v-234h-205v234l-232 426h207l80 -165l49 -115l48 115l81 165h203z" />
    <glyph glyph-name="Yacute" unicode="&#xdd;" horiz-adv-x="687" 
d="M499 879l-94 -164h-144l53 164h185zM446 234v-234h-205v234l-232 426h207l80 -165l49 -115l48 115l81 165h203z" />
    <glyph glyph-name="Ydieresis" unicode="&#x178;" horiz-adv-x="687" 
d="M446 234v-234h-205v234l-232 426h207l80 -165l49 -115l48 115l81 165h203zM298 853.5q25 -22.5 25 -62.5q0 -41 -25 -63t-71 -22q-44 0 -69 22.5t-25 62.5t25 62.5t69 22.5q46 0 71 -22.5zM527 853.5q25 -22.5 25 -62.5q0 -41 -25 -63t-71 -22q-44 0 -69 22.5t-25 62.5
t25 62.5t69 22.5q46 0 71 -22.5z" />
    <glyph glyph-name="Z" unicode="Z" horiz-adv-x="636" 
d="M613 149v-149h-582v143l351 368h-346v149h566v-143l-350 -368h361z" />
    <glyph glyph-name="Zacute" unicode="&#x179;" horiz-adv-x="636" 
d="M387 715h-144l53 164h185zM613 149v-149h-582v143l351 368h-346v149h566v-143l-350 -368h361z" />
    <glyph glyph-name="Zcaron" unicode="&#x17d;" horiz-adv-x="636" 
d="M225 714l-110 167h145l60 -77l60 77h145l-110 -167h-190zM613 149v-149h-582v143l351 368h-346v149h566v-143l-350 -368h361z" />
    <glyph glyph-name="Zdotaccent" unicode="&#x17b;" horiz-adv-x="636" 
d="M613 149v-149h-582v143l351 368h-346v149h566v-143l-350 -368h361zM403.5 861.5q26.5 -22.5 26.5 -65.5t-26.5 -65t-78.5 -22q-102 0 -102 87q0 88 102 88q52 0 78.5 -22.5z" />
    <glyph glyph-name="uni0122" unicode="&#x122;" horiz-adv-x="722" 
d="M363 365h308v-365h-138l-7 76q-53 -86 -183 -86q-88 0 -157.5 39t-109.5 115t-40 184q0 107 40.5 184t116 117.5t179.5 40.5q118 0 189 -41t111 -134l-190 -71q-19 90 -103 90q-133 0 -133 -184q0 -98 34 -143t105 -45q52 0 83 22t31 65v5h-136v131zM406 -242h-128
l28 187h173z" />
    <glyph glyph-name="uni0136" unicode="&#x136;" horiz-adv-x="706" 
d="M332 264l-67 -86v-178h-204v660h204v-269l202 269h221l-211 -265l227 -395h-231zM381 -242h-128l28 187h173z" />
    <glyph glyph-name="uni013B" unicode="&#x13b;" 
d="M579 153v-153h-518v660h204v-507h314zM348 -242h-128l28 187h173z" />
    <glyph glyph-name="uni0145" unicode="&#x145;" horiz-adv-x="744" 
d="M683 0h-224l-180 327l-42 90h-2l4 -131v-286h-178v660h223l180 -327l43 -90h1l-4 131v286h179v-660zM401 -242h-128l28 187h173z" />
    <glyph glyph-name="uni0156" unicode="&#x156;" horiz-adv-x="698" 
d="M344 229h-83v-229h-200v660h338q126 0 192 -55t66 -161q0 -144 -123 -193l161 -251h-223zM261 368h99q50 0 71 16.5t21 54.5t-21.5 55t-70.5 17h-99v-143zM385 -242h-128l28 187h173z" />
    <glyph glyph-name="uni015E" unicode="&#x15e;" horiz-adv-x="645" 
d="M509.5 371.5q57.5 -27.5 84 -69.5t26.5 -104q0 -80 -55 -132t-148 -69q25 -17 38 -40t13 -50q0 -62 -42 -92t-111 -30q-47 0 -77.5 11t-51.5 31l42 88q29 -29 73 -29q25 0 40 12.5t15 34.5q0 19 -13.5 33t-47.5 25q-97 4 -159.5 28.5t-117.5 72.5l95 140
q40 -47 89.5 -67.5t116.5 -20.5q91 0 91 44q0 19 -26.5 30t-85.5 22q-80 15 -134.5 36t-90.5 62.5t-36 110.5q0 65 35 115t102 78t160 28q95 0 163.5 -25.5t131.5 -86.5l-100 -129q-40 46 -85.5 66.5t-104.5 20.5q-43 0 -67 -14t-24 -37q0 -18 25 -28t83 -21
q96 -17 153.5 -44.5z" />
    <glyph glyph-name="uni0162" unicode="&#x162;" horiz-adv-x="671" 
d="M438 507v-504q41 -31 41 -91q0 -65 -42 -96t-111 -31q-88 0 -133 43l51 92q12 -15 27.5 -23t38.5 -8q24 0 40 13t16 38q0 49 -75 60h-57v507h-212v153h626v-153h-210z" />
    <glyph glyph-name="uni0218" unicode="&#x218;" horiz-adv-x="645" 
d="M497.5 644.5q68.5 -25.5 131.5 -86.5l-100 -129q-40 46 -85.5 66.5t-104.5 20.5q-43 0 -67 -14t-24 -37q0 -18 25 -28t83 -21q96 -17 153.5 -44.5t84 -69.5t26.5 -104q0 -66 -38 -113t-103 -71t-147 -24q-114 0 -184 24.5t-130 77.5l95 140q40 -47 89.5 -67.5
t116.5 -20.5q91 0 91 44q0 19 -26.5 30t-85.5 22q-80 15 -134.5 36t-90.5 62.5t-36 110.5q0 65 35 115t102 78t160 28q95 0 163.5 -25.5zM364 -242h-128l28 187h173z" />
    <glyph glyph-name="uni021A" unicode="&#x21a;" horiz-adv-x="671" 
d="M648 507h-210v-507h-204v507h-212v153h626v-153zM347 -242h-128l28 187h173z" />
    <glyph glyph-name="E.swsh.001" horiz-adv-x="861" 
d="M805.5 326.5q45.5 -49.5 45.5 -125.5q0 -201 -224 -201h-566v660h571v-153h-367v-108h199v-143h-199v-103h335q40 0 59 13t19 42q0 53 -75 61l65 121q92 -14 137.5 -63.5z" />
    <glyph glyph-name="Eacute.swsh.001" horiz-adv-x="861" 
d="M385 715h-144l53 164h185zM805.5 326.5q45.5 -49.5 45.5 -125.5q0 -201 -224 -201h-566v660h571v-153h-367v-108h199v-143h-199v-103h335q40 0 59 13t19 42q0 53 -75 61l65 121q92 -14 137.5 -63.5z" />
    <glyph glyph-name="Ecaron.swsh.001" horiz-adv-x="861" 
d="M223 714l-110 167h145l60 -77l60 77h145l-110 -167h-190zM805.5 326.5q45.5 -49.5 45.5 -125.5q0 -201 -224 -201h-566v660h571v-153h-367v-108h199v-143h-199v-103h335q40 0 59 13t19 42q0 53 -75 61l65 121q92 -14 137.5 -63.5z" />
    <glyph glyph-name="Ecircumflex.swsh.001" horiz-adv-x="861" 
d="M263 714h-145l110 167h190l110 -167h-145l-60 77zM805.5 326.5q45.5 -49.5 45.5 -125.5q0 -201 -224 -201h-566v660h571v-153h-367v-108h199v-143h-199v-103h335q40 0 59 13t19 42q0 53 -75 61l65 121q92 -14 137.5 -63.5z" />
    <glyph glyph-name="Edieresis.swsh.001" horiz-adv-x="861" 
d="M805.5 326.5q45.5 -49.5 45.5 -125.5q0 -201 -224 -201h-566v660h571v-153h-367v-108h199v-143h-199v-103h335q40 0 59 13t19 42q0 53 -75 61l65 121q92 -14 137.5 -63.5zM278 853.5q25 -22.5 25 -62.5q0 -41 -25 -63t-71 -22q-44 0 -69 22.5t-25 62.5t25 62.5t69 22.5
q46 0 71 -22.5zM507 853.5q25 -22.5 25 -62.5q0 -41 -25 -63t-71 -22q-44 0 -69 22.5t-25 62.5t25 62.5t69 22.5q46 0 71 -22.5z" />
    <glyph glyph-name="Edotaccent.swsh.001" horiz-adv-x="861" 
d="M805.5 326.5q45.5 -49.5 45.5 -125.5q0 -201 -224 -201h-566v660h571v-153h-367v-108h199v-143h-199v-103h335q40 0 59 13t19 42q0 53 -75 61l65 121q92 -14 137.5 -63.5zM401.5 861.5q26.5 -22.5 26.5 -65.5t-26.5 -65t-78.5 -22q-102 0 -102 87q0 88 102 88
q52 0 78.5 -22.5z" />
    <glyph glyph-name="Egrave.swsh.001" horiz-adv-x="861" 
d="M243 715l-94 164h185l53 -164h-144zM805.5 326.5q45.5 -49.5 45.5 -125.5q0 -201 -224 -201h-566v660h571v-153h-367v-108h199v-143h-199v-103h335q40 0 59 13t19 42q0 53 -75 61l65 121q92 -14 137.5 -63.5z" />
    <glyph glyph-name="Emacron.swsh.001" horiz-adv-x="861" 
d="M805.5 326.5q45.5 -49.5 45.5 -125.5q0 -201 -224 -201h-566v660h571v-153h-367v-108h199v-143h-199v-103h335q40 0 59 13t19 42q0 53 -75 61l65 121q92 -14 137.5 -63.5zM513 719h-380v119h380v-119z" />
    <glyph glyph-name="M.swsh.001" horiz-adv-x="1188" 
d="M1128 660v-660h-180v264l4 213h-2l-145 -477h-164l-143 477h-3l4 -213v-264h-180v513h-50q-39 0 -58.5 -20t-19.5 -52t22 -53.5t60 -24.5l-57 -134q-92 4 -149 61.5t-57 153.5q0 104 65.5 160t190.5 56h341l89 -313l33 -131h2l33 131l89 313h275z" />
    <glyph glyph-name="R.swsh.001" horiz-adv-x="763" 
d="M681.5 48.5q38.5 -27.5 81.5 -34.5l-112 -113q-59 8 -100.5 35.5t-73.5 72.5l-153 220h-63v-229h-200v660h338q126 0 192 -55t66 -161q0 -78 -36 -128t-106 -71l89 -118q39 -51 77.5 -78.5zM261 368h99q50 0 71 16.5t21 54.5t-21.5 55t-70.5 17h-99v-143z" />
    <glyph glyph-name="Racute.swsh.001" horiz-adv-x="763" 
d="M394 715h-144l53 164h185zM681.5 48.5q38.5 -27.5 81.5 -34.5l-112 -113q-59 8 -100.5 35.5t-73.5 72.5l-153 220h-63v-229h-200v660h338q126 0 192 -55t66 -161q0 -78 -36 -128t-106 -71l89 -118q39 -51 77.5 -78.5zM261 368h99q50 0 71 16.5t21 54.5t-21.5 55t-70.5 17
h-99v-143z" />
    <glyph glyph-name="Rcaron.swsh.001" horiz-adv-x="763" 
d="M232 714l-110 167h145l60 -77l60 77h145l-110 -167h-190zM681.5 48.5q38.5 -27.5 81.5 -34.5l-112 -113q-59 8 -100.5 35.5t-73.5 72.5l-153 220h-63v-229h-200v660h338q126 0 192 -55t66 -161q0 -78 -36 -128t-106 -71l89 -118q39 -51 77.5 -78.5zM261 368h99
q50 0 71 16.5t21 54.5t-21.5 55t-70.5 17h-99v-143z" />
    <glyph glyph-name="Rcommaaccent.swsh.001" horiz-adv-x="763" 
d="M681.5 48.5q38.5 -27.5 81.5 -34.5l-112 -113q-59 8 -100.5 35.5t-73.5 72.5l-153 220h-63v-229h-200v660h338q126 0 192 -55t66 -161q0 -78 -36 -128t-106 -71l89 -118q39 -51 77.5 -78.5zM261 368h99q50 0 71 16.5t21 54.5t-21.5 55t-70.5 17h-99v-143zM385 -242h-128
l28 187h173z" />
    <glyph glyph-name="Iacute_J.loclNLD" horiz-adv-x="966" 
d="M319 879l-94 -164h-144l53 164h185zM980 879l-94 -164h-144l53 164h185zM265 0h-204v660h204v-660zM919 263q0 -130 -78 -201.5t-220 -71.5q-134 0 -201.5 59.5t-67.5 162.5q0 32 6 65l204 34q-5 -42 -5 -66q0 -53 18.5 -76t57.5 -23q43 0 62 32t19 103v379h205v-397z
" />
    <glyph glyph-name="R.ss03" horiz-adv-x="696" 
d="M61 660h338q126 0 192 -53.5t66 -154.5q0 -72 -33.5 -112t-92.5 -57v-2q47 -12 68.5 -39.5t28.5 -68.5q11 -77 18 -109.5t21 -58.5v-5h-213q-7 16 -10.5 37.5t-6.5 44.5q-3 34 -10 72q-7 41 -29.5 58t-67.5 17h-69v-229h-200v660zM360 368q50 0 71 16.5t21 54.5t-21.5 55
t-70.5 17h-99v-143h99z" />
    <glyph glyph-name="Racute.ss03" horiz-adv-x="696" 
d="M488 879l-94 -164h-144l53 164h185zM61 660h338q126 0 192 -53.5t66 -154.5q0 -72 -33.5 -112t-92.5 -57v-2q47 -12 68.5 -39.5t28.5 -68.5q11 -77 18 -109.5t21 -58.5v-5h-213q-7 16 -10.5 37.5t-6.5 44.5q-3 34 -10 72q-7 41 -29.5 58t-67.5 17h-69v-229h-200v660z
M360 368q50 0 71 16.5t21 54.5t-21.5 55t-70.5 17h-99v-143h99z" />
    <glyph glyph-name="Rcaron.ss03" horiz-adv-x="696" 
d="M422 714h-190l-110 167h145l60 -77l60 77h145zM61 660h338q126 0 192 -53.5t66 -154.5q0 -72 -33.5 -112t-92.5 -57v-2q47 -12 68.5 -39.5t28.5 -68.5q11 -77 18 -109.5t21 -58.5v-5h-213q-7 16 -10.5 37.5t-6.5 44.5q-3 34 -10 72q-7 41 -29.5 58t-67.5 17h-69v-229
h-200v660zM360 368q50 0 71 16.5t21 54.5t-21.5 55t-70.5 17h-99v-143h99z" />
    <glyph glyph-name="Rcommaaccent.ss03" horiz-adv-x="696" 
d="M61 660h338q126 0 192 -53.5t66 -154.5q0 -72 -33.5 -112t-92.5 -57v-2q47 -12 68.5 -39.5t28.5 -68.5q11 -77 18 -109.5t21 -58.5v-5h-213q-7 16 -10.5 37.5t-6.5 44.5q-3 34 -10 72q-7 41 -29.5 58t-67.5 17h-69v-229h-200v660zM360 368q50 0 71 16.5t21 54.5t-21.5 55
t-70.5 17h-99v-143h99zM385 -242h-128l28 187h173z" />
    <glyph glyph-name="G.ss04" horiz-adv-x="722" 
d="M682 366v-87q0 -148 -83.5 -218.5t-229.5 -70.5q-100 0 -175 38.5t-116.5 114.5t-41.5 185q0 107 40.5 184t116 117.5t179.5 40.5q118 0 189 -41t111 -134l-190 -71q-10 46 -36 68t-72 22q-61 0 -94.5 -46t-33.5 -138q0 -99 34 -141.5t110 -42.5q56 0 87.5 26.5
t31.5 63.5v7h-140v123h313z" />
    <glyph glyph-name="Gbreve.ss04" horiz-adv-x="722" 
d="M682 366v-87q0 -148 -83.5 -218.5t-229.5 -70.5q-100 0 -175 38.5t-116.5 114.5t-41.5 185q0 107 40.5 184t116 117.5t179.5 40.5q118 0 189 -41t111 -134l-190 -71q-10 46 -36 68t-72 22q-61 0 -94.5 -46t-33.5 -138q0 -99 34 -141.5t110 -42.5q56 0 87.5 26.5
t31.5 63.5v7h-140v123h313zM495.5 751.5q-46.5 -44.5 -129.5 -44.5t-129.5 44.5t-46.5 123.5h125q0 -29 13 -45t38 -16t38 16t13 45h125q0 -79 -46.5 -123.5z" />
    <glyph glyph-name="Gcommaaccent.ss04" horiz-adv-x="722" 
d="M682 366v-87q0 -148 -83.5 -218.5t-229.5 -70.5q-100 0 -175 38.5t-116.5 114.5t-41.5 185q0 107 40.5 184t116 117.5t179.5 40.5q118 0 189 -41t111 -134l-190 -71q-10 46 -36 68t-72 22q-61 0 -94.5 -46t-33.5 -138q0 -99 34 -141.5t110 -42.5q56 0 87.5 26.5
t31.5 63.5v7h-140v123h313zM406 -242h-128l28 187h173z" />
    <glyph glyph-name="IJ.ss05" horiz-adv-x="673" 
d="M626 263q0 -128 -77.5 -200.5t-212.5 -72.5q-131 0 -203.5 53t-72.5 156q0 25 2 38h204q-1 -7 -1 -19q0 -72 76 -72q41 0 60.5 27.5t19.5 87.5v399h205v-397zM265 291h-204v369h204v-369z" />
    <glyph glyph-name="Iacute_J.loclNLD.ss05" horiz-adv-x="659" 
d="M306 879l-94 -164h-145l54 164h185zM674 879l-94 -164h-145l54 164h185zM612 263q0 -128 -77.5 -200.5t-212.5 -72.5q-131 0 -203.5 53t-72.5 156q0 25 2 38h205q-1 -8 -1 -21q0 -36 19 -53t57 -17q41 0 60.5 27.5t19.5 87.5v399h204v-397zM252 291h-205v369h205v-369z
" />
    <glyph glyph-name="A.swsh" horiz-adv-x="910" 
d="M667 137h-211l-14 -45q-31 -102 -94 -152t-179 -50q-66 0 -112 18.5t-64 57.5l55 133q20 -34 45.5 -47.5t62.5 -13.5q44 0 71.5 29.5t50.5 97.5l117 348h-108q-39 0 -59 -19.5t-20 -52.5q0 -32 22 -53.5t61 -24.5l-57 -134q-93 4 -149.5 61.5t-56.5 153.5q0 104 65 160
t191 56h406l223 -660h-209zM631 269l-36 131l-27 108h-3l-27 -107l-41 -132h134z" />
    <glyph glyph-name="Aacute.swsh" horiz-adv-x="910" 
d="M630 715h-144l53 164h185zM667 137h-211l-14 -45q-31 -102 -94 -152t-179 -50q-66 0 -112 18.5t-64 57.5l55 133q20 -34 45.5 -47.5t62.5 -13.5q44 0 71.5 29.5t50.5 97.5l117 348h-108q-39 0 -59 -19.5t-20 -52.5q0 -32 22 -53.5t61 -24.5l-57 -134q-93 4 -149.5 61.5
t-56.5 153.5q0 104 65 160t191 56h406l223 -660h-209zM631 269l-36 131l-27 108h-3l-27 -107l-41 -132h134z" />
    <glyph glyph-name="Abreve.swsh" horiz-adv-x="910" 
d="M667 137h-211l-14 -45q-31 -102 -94 -152t-179 -50q-66 0 -112 18.5t-64 57.5l55 133q20 -34 45.5 -47.5t62.5 -13.5q44 0 71.5 29.5t50.5 97.5l117 348h-108q-39 0 -59 -19.5t-20 -52.5q0 -32 22 -53.5t61 -24.5l-57 -134q-93 4 -149.5 61.5t-56.5 153.5q0 104 65 160
t191 56h406l223 -660h-209zM631 269l-36 131l-27 108h-3l-27 -107l-41 -132h134zM697.5 751.5q-46.5 -44.5 -129.5 -44.5t-129.5 44.5t-46.5 123.5h125q0 -29 13 -45t38 -16t38 16t13 45h125q0 -79 -46.5 -123.5z" />
    <glyph glyph-name="Acircumflex.swsh" horiz-adv-x="910" 
d="M508 714h-145l110 167h190l110 -167h-145l-60 77zM667 137h-211l-14 -45q-31 -102 -94 -152t-179 -50q-66 0 -112 18.5t-64 57.5l55 133q20 -34 45.5 -47.5t62.5 -13.5q44 0 71.5 29.5t50.5 97.5l117 348h-108q-39 0 -59 -19.5t-20 -52.5q0 -32 22 -53.5t61 -24.5
l-57 -134q-93 4 -149.5 61.5t-56.5 153.5q0 104 65 160t191 56h406l223 -660h-209zM631 269l-36 131l-27 108h-3l-27 -107l-41 -132h134z" />
    <glyph glyph-name="Adieresis.swsh" horiz-adv-x="910" 
d="M667 137h-211l-14 -45q-31 -102 -94 -152t-179 -50q-66 0 -112 18.5t-64 57.5l55 133q20 -34 45.5 -47.5t62.5 -13.5q44 0 71.5 29.5t50.5 97.5l117 348h-108q-39 0 -59 -19.5t-20 -52.5q0 -32 22 -53.5t61 -24.5l-57 -134q-93 4 -149.5 61.5t-56.5 153.5q0 104 65 160
t191 56h406l223 -660h-209zM631 269l-36 131l-27 108h-3l-27 -107l-41 -132h134zM523 853.5q25 -22.5 25 -62.5q0 -41 -25 -63t-71 -22q-44 0 -69 22.5t-25 62.5t25 62.5t69 22.5q46 0 71 -22.5zM752 853.5q25 -22.5 25 -62.5q0 -41 -25 -63t-71 -22q-44 0 -69 22.5
t-25 62.5t25 62.5t69 22.5q46 0 71 -22.5z" />
    <glyph glyph-name="Agrave.swsh" horiz-adv-x="910" 
d="M488 715l-94 164h185l53 -164h-144zM667 137h-211l-14 -45q-31 -102 -94 -152t-179 -50q-66 0 -112 18.5t-64 57.5l55 133q20 -34 45.5 -47.5t62.5 -13.5q44 0 71.5 29.5t50.5 97.5l117 348h-108q-39 0 -59 -19.5t-20 -52.5q0 -32 22 -53.5t61 -24.5l-57 -134
q-93 4 -149.5 61.5t-56.5 153.5q0 104 65 160t191 56h406l223 -660h-209zM631 269l-36 131l-27 108h-3l-27 -107l-41 -132h134z" />
    <glyph glyph-name="Amacron.swsh" horiz-adv-x="910" 
d="M667 137h-211l-14 -45q-31 -102 -94 -152t-179 -50q-66 0 -112 18.5t-64 57.5l55 133q20 -34 45.5 -47.5t62.5 -13.5q44 0 71.5 29.5t50.5 97.5l117 348h-108q-39 0 -59 -19.5t-20 -52.5q0 -32 22 -53.5t61 -24.5l-57 -134q-93 4 -149.5 61.5t-56.5 153.5q0 104 65 160
t191 56h406l223 -660h-209zM631 269l-36 131l-27 108h-3l-27 -107l-41 -132h134zM758 719h-380v119h380v-119z" />
    <glyph glyph-name="Aogonek.swsh" horiz-adv-x="910" 
d="M918 -190q-22 -14 -48.5 -19.5t-62.5 -5.5q-65 0 -105.5 29.5t-40.5 86.5q0 64 60 99h-17l-37 137h-211l-14 -45q-31 -102 -94 -152t-179 -50q-66 0 -112 18.5t-64 57.5l55 133q20 -34 45.5 -47.5t62.5 -13.5q44 0 71.5 29.5t50.5 97.5l117 348h-108q-39 0 -59 -19.5
t-20 -52.5q0 -32 22 -53.5t61 -24.5l-57 -134q-93 4 -149.5 61.5t-56.5 153.5q0 104 65 160t191 56h406l223 -660q-63 -7 -89 -23t-26 -42q0 -20 13.5 -30.5t38.5 -10.5q29 0 43 9zM631 269l-36 131l-27 108h-3l-27 -107l-41 -132h134z" />
    <glyph glyph-name="Atilde.swsh" horiz-adv-x="910" 
d="M667 137h-211l-14 -45q-31 -102 -94 -152t-179 -50q-66 0 -112 18.5t-64 57.5l55 133q20 -34 45.5 -47.5t62.5 -13.5q44 0 71.5 29.5t50.5 97.5l117 348h-108q-39 0 -59 -19.5t-20 -52.5q0 -32 22 -53.5t61 -24.5l-57 -134q-93 4 -149.5 61.5t-56.5 153.5q0 104 65 160
t191 56h406l223 -660h-209zM631 269l-36 131l-27 108h-3l-27 -107l-41 -132h134zM733.5 752q-35.5 -42 -101.5 -42q-30 0 -48.5 9t-39.5 25q-12 10 -20.5 15t-19.5 5q-15 0 -23 -12.5t-11 -39.5h-108q6 168 140 168q30 0 49.5 -9t39.5 -25q13 -10 21 -14.5t18 -4.5
q15 0 23 12.5t11 39.5h108q-3 -85 -38.5 -127z" />
    <glyph glyph-name="E.swsh" horiz-adv-x="907" 
d="M884 153v-153h-545v513h-70q-39 0 -58.5 -20t-19.5 -52t22 -53.5t60 -24.5l-57 -134q-92 4 -149 61.5t-57 153.5q0 104 65.5 160t190.5 56h605v-153h-327v-107h262v-142h-262v-105h340z" />
    <glyph glyph-name="Eacute.swsh" horiz-adv-x="907" 
d="M659 715h-144l53 164h185zM884 153v-153h-545v513h-70q-39 0 -58.5 -20t-19.5 -52t22 -53.5t60 -24.5l-57 -134q-92 4 -149 61.5t-57 153.5q0 104 65.5 160t190.5 56h605v-153h-327v-107h262v-142h-262v-105h340z" />
    <glyph glyph-name="Ecaron.swsh" horiz-adv-x="907" 
d="M496 714l-110 167h145l60 -77l60 77h145l-110 -167h-190zM884 153v-153h-545v513h-70q-39 0 -58.5 -20t-19.5 -52t22 -53.5t60 -24.5l-57 -134q-92 4 -149 61.5t-57 153.5q0 104 65.5 160t190.5 56h605v-153h-327v-107h262v-142h-262v-105h340z" />
    <glyph glyph-name="Ecircumflex.swsh" horiz-adv-x="907" 
d="M536 714h-145l110 167h190l110 -167h-145l-60 77zM884 153v-153h-545v513h-70q-39 0 -58.5 -20t-19.5 -52t22 -53.5t60 -24.5l-57 -134q-92 4 -149 61.5t-57 153.5q0 104 65.5 160t190.5 56h605v-153h-327v-107h262v-142h-262v-105h340z" />
    <glyph glyph-name="Edieresis.swsh" horiz-adv-x="907" 
d="M884 153v-153h-545v513h-70q-39 0 -58.5 -20t-19.5 -52t22 -53.5t60 -24.5l-57 -134q-92 4 -149 61.5t-57 153.5q0 104 65.5 160t190.5 56h605v-153h-327v-107h262v-142h-262v-105h340zM552 853.5q25 -22.5 25 -62.5q0 -41 -25 -63t-71 -22q-44 0 -69 22.5t-25 62.5
t25 62.5t69 22.5q46 0 71 -22.5zM781 853.5q25 -22.5 25 -62.5q0 -41 -25 -63t-71 -22q-44 0 -69 22.5t-25 62.5t25 62.5t69 22.5q46 0 71 -22.5z" />
    <glyph glyph-name="Edotaccent.swsh" horiz-adv-x="907" 
d="M884 153v-153h-545v513h-70q-39 0 -58.5 -20t-19.5 -52t22 -53.5t60 -24.5l-57 -134q-92 4 -149 61.5t-57 153.5q0 104 65.5 160t190.5 56h605v-153h-327v-107h262v-142h-262v-105h340zM674.5 861.5q26.5 -22.5 26.5 -65.5t-26.5 -65t-78.5 -22q-102 0 -102 87
q0 88 102 88q52 0 78.5 -22.5z" />
    <glyph glyph-name="Egrave.swsh" horiz-adv-x="907" 
d="M516 715l-94 164h185l53 -164h-144zM884 153v-153h-545v513h-70q-39 0 -58.5 -20t-19.5 -52t22 -53.5t60 -24.5l-57 -134q-92 4 -149 61.5t-57 153.5q0 104 65.5 160t190.5 56h605v-153h-327v-107h262v-142h-262v-105h340z" />
    <glyph glyph-name="Emacron.swsh" horiz-adv-x="907" 
d="M884 153v-153h-545v513h-70q-39 0 -58.5 -20t-19.5 -52t22 -53.5t60 -24.5l-57 -134q-92 4 -149 61.5t-57 153.5q0 104 65.5 160t190.5 56h605v-153h-327v-107h262v-142h-262v-105h340zM786 719h-380v119h380v-119z" />
    <glyph glyph-name="Eogonek.swsh" horiz-adv-x="907" 
d="M889 -190q-22 -14 -48.5 -19.5t-62.5 -5.5q-64 0 -105 29t-41 86q0 65 73 100h-366v513h-70q-39 0 -58.5 -20t-19.5 -52t22 -53.5t60 -24.5l-57 -134q-92 4 -149 61.5t-57 153.5q0 104 65.5 160t190.5 56h605v-153h-327v-107h262v-142h-262v-105h340v-153q-63 -7 -89 -23
t-26 -42q0 -19 14 -30t38 -11q29 0 43 9z" />
    <glyph glyph-name="F.swsh" horiz-adv-x="871" 
d="M523 507v-115h263v-153h-263v-239h-204v513h-50q-39 0 -58.5 -20t-19.5 -52t22 -53.5t60 -24.5l-57 -134q-92 4 -149 61.5t-57 153.5q0 104 65.5 160t190.5 56h584v-153h-327z" />
    <glyph glyph-name="L.swsh" horiz-adv-x="719" 
d="M664.5 357q44.5 -61 44.5 -141q0 -105 -65.5 -160.5t-190.5 -55.5h-392v660h204v-507h185q43 0 64.5 17.5t21.5 48.5q0 34 -20 54.5t-62 21.5l57 126q109 -3 153.5 -64z" />
    <glyph glyph-name="Lacute.swsh" horiz-adv-x="719" 
d="M225 715h-144l53 164h185zM664.5 357q44.5 -61 44.5 -141q0 -105 -65.5 -160.5t-190.5 -55.5h-392v660h204v-507h185q43 0 64.5 17.5t21.5 48.5q0 34 -20 54.5t-62 21.5l57 126q109 -3 153.5 -64z" />
    <glyph glyph-name="Lcaron.swsh" horiz-adv-x="719" 
d="M63 714l-110 167h145l60 -77l60 77h145l-110 -167h-190zM664.5 357q44.5 -61 44.5 -141q0 -105 -65.5 -160.5t-190.5 -55.5h-392v660h204v-507h185q43 0 64.5 17.5t21.5 48.5q0 34 -20 54.5t-62 21.5l57 126q109 -3 153.5 -64z" />
    <glyph glyph-name="Lcommaaccent.swsh" horiz-adv-x="719" 
d="M664.5 357q44.5 -61 44.5 -141q0 -105 -65.5 -160.5t-190.5 -55.5h-392v660h204v-507h185q43 0 64.5 17.5t21.5 48.5q0 34 -20 54.5t-62 21.5l57 126q109 -3 153.5 -64zM389 -242h-128l28 187h173z" />
    <glyph glyph-name="Lslash.swsh" horiz-adv-x="765" 
d="M711 357.5q44 -60.5 44 -141.5q0 -105 -65 -160.5t-191 -55.5h-392v207l-112 -52v140l112 52v313h205v-220l168 77v-140l-168 -77v-147h184q43 0 65 18t22 48q0 34 -20.5 54.5t-62.5 21.5l57 126q110 -3 154 -63.5z" />
    <glyph glyph-name="M.swsh" horiz-adv-x="1188" 
d="M1128 660v-660h-180v264l4 213h-2l-145 -477h-164l-143 477h-3l4 -213v-139q0 -121 -63.5 -178t-178.5 -57q-76 0 -124 21.5t-79 70.5l65 126q17 -36 44.5 -53t66.5 -17q44 0 66.5 20t22.5 60v395h-50q-39 0 -58.5 -20t-19.5 -52t22 -53.5t60 -24.5l-57 -134
q-92 4 -149 61.5t-57 153.5q0 104 65.5 160t190.5 56h341l89 -313l33 -131h2l33 131l89 313h275z" />
    <glyph glyph-name="N.swsh" horiz-adv-x="778" 
d="M871 702.5q47 -20.5 78 -63.5l-68 -123q-19 32 -42 45.5t-62 13.5q-45 0 -69.5 -27t-24.5 -78v-470h-224l-180 327l-42 90h-2l4 -131v-286h-178v660h223l180 -327l43 -90h1l-4 131v113q0 121 65 178.5t181 57.5q74 0 121 -20.5z" />
    <glyph glyph-name="Nacute.swsh" horiz-adv-x="778" 
d="M435 715h-144l53 164h185zM871 702.5q47 -20.5 78 -63.5l-68 -123q-19 32 -42 45.5t-62 13.5q-45 0 -69.5 -27t-24.5 -78v-470h-224l-180 327l-42 90h-2l4 -131v-286h-178v660h223l180 -327l43 -90h1l-4 131v113q0 121 65 178.5t181 57.5q74 0 121 -20.5z" />
    <glyph glyph-name="Ncaron.swsh" horiz-adv-x="778" 
d="M273 714l-110 167h145l60 -77l60 77h145l-110 -167h-190zM871 702.5q47 -20.5 78 -63.5l-68 -123q-19 32 -42 45.5t-62 13.5q-45 0 -69.5 -27t-24.5 -78v-470h-224l-180 327l-42 90h-2l4 -131v-286h-178v660h223l180 -327l43 -90h1l-4 131v113q0 121 65 178.5t181 57.5
q74 0 121 -20.5z" />
    <glyph glyph-name="Ncommaaccent.swsh" horiz-adv-x="778" 
d="M871 702.5q47 -20.5 78 -63.5l-68 -123q-19 32 -42 45.5t-62 13.5q-45 0 -69.5 -27t-24.5 -78v-470h-224l-180 327l-42 90h-2l4 -131v-286h-178v660h223l180 -327l43 -90h1l-4 131v113q0 121 65 178.5t181 57.5q74 0 121 -20.5zM401 -242h-128l28 187h173z" />
    <glyph glyph-name="Ntilde.swsh" horiz-adv-x="778" 
d="M871 702.5q47 -20.5 78 -63.5l-68 -123q-19 32 -42 45.5t-62 13.5q-45 0 -69.5 -27t-24.5 -78v-470h-224l-180 327l-42 90h-2l4 -131v-286h-178v660h223l180 -327l43 -90h1l-4 131v113q0 121 65 178.5t181 57.5q74 0 121 -20.5zM538.5 752q-35.5 -42 -101.5 -42
q-30 0 -48.5 9t-39.5 25q-12 10 -20.5 15t-19.5 5q-15 0 -23 -12.5t-11 -39.5h-108q6 168 140 168q30 0 49.5 -9t39.5 -25q13 -10 21 -14.5t18 -4.5q15 0 23 12.5t11 39.5h108q-3 -85 -38.5 -127z" />
    <glyph glyph-name="R.swsh" horiz-adv-x="956" 
d="M602 229h-83v-95q0 -128 -67 -186t-187 -58q-152 0 -211 100l73 118q19 -37 44.5 -53.5t64.5 -16.5q38 0 60.5 24.5t22.5 64.5v386h-50q-39 0 -58.5 -20t-19.5 -52t22 -53.5t60 -24.5l-57 -134q-92 4 -149 61.5t-57 153.5q0 104 65.5 160t190.5 56h391q126 0 192 -55
t66 -161q0 -144 -123 -193l161 -251h-223zM519 368h99q50 0 71 16.5t21 54.5t-21.5 55t-70.5 17h-99v-143z" />
    <glyph glyph-name="Racute.swsh" horiz-adv-x="956" 
d="M652 715h-144l53 164h185zM602 229h-83v-95q0 -128 -67 -186t-187 -58q-152 0 -211 100l73 118q19 -37 44.5 -53.5t64.5 -16.5q38 0 60.5 24.5t22.5 64.5v386h-50q-39 0 -58.5 -20t-19.5 -52t22 -53.5t60 -24.5l-57 -134q-92 4 -149 61.5t-57 153.5q0 104 65.5 160
t190.5 56h391q126 0 192 -55t66 -161q0 -144 -123 -193l161 -251h-223zM519 368h99q50 0 71 16.5t21 54.5t-21.5 55t-70.5 17h-99v-143z" />
    <glyph glyph-name="Rcaron.swsh" horiz-adv-x="956" 
d="M490 714l-110 167h145l60 -77l60 77h145l-110 -167h-190zM602 229h-83v-95q0 -128 -67 -186t-187 -58q-152 0 -211 100l73 118q19 -37 44.5 -53.5t64.5 -16.5q38 0 60.5 24.5t22.5 64.5v386h-50q-39 0 -58.5 -20t-19.5 -52t22 -53.5t60 -24.5l-57 -134q-92 4 -149 61.5
t-57 153.5q0 104 65.5 160t190.5 56h391q126 0 192 -55t66 -161q0 -144 -123 -193l161 -251h-223zM519 368h99q50 0 71 16.5t21 54.5t-21.5 55t-70.5 17h-99v-143z" />
    <glyph glyph-name="Rcommaaccent.swsh" horiz-adv-x="956" 
d="M602 229h-83v-95q0 -128 -67 -186t-187 -58q-152 0 -211 100l73 118q19 -37 44.5 -53.5t64.5 -16.5q38 0 60.5 24.5t22.5 64.5v386h-50q-39 0 -58.5 -20t-19.5 -52t22 -53.5t60 -24.5l-57 -134q-92 4 -149 61.5t-57 153.5q0 104 65.5 160t190.5 56h391q126 0 192 -55
t66 -161q0 -144 -123 -193l161 -251h-223zM519 368h99q50 0 71 16.5t21 54.5t-21.5 55t-70.5 17h-99v-143zM643 -242h-128l28 187h173z" />
    <glyph glyph-name="S.swsh" horiz-adv-x="645" 
d="M160.5 -88q-63.5 22 -98 61.5t-34.5 90.5q0 34 5 56l179 47q-6 -25 -6 -41q0 -40 29 -60t91 -20q53 0 78.5 18t25.5 49q0 33 -30 52.5t-110 34.5q-135 25 -193.5 80t-58.5 156q0 68 35 121t102.5 83t160.5 30q138 0 204.5 -48t69.5 -155l-182 -69q2 53 -22 84.5t-75 31.5
q-39 0 -61 -21t-22 -57q0 -34 31 -55t109 -38q86 -18 136.5 -46t73.5 -70t23 -104q0 -112 -85 -172.5t-228 -60.5q-84 0 -147.5 22z" />
    <glyph glyph-name="Sacute.swsh" horiz-adv-x="645" 
d="M487 879l-94 -164h-144l53 164h185zM160.5 -88q-63.5 22 -98 61.5t-34.5 90.5q0 34 5 56l179 47q-6 -25 -6 -41q0 -40 29 -60t91 -20q53 0 78.5 18t25.5 49q0 33 -30 52.5t-110 34.5q-135 25 -193.5 80t-58.5 156q0 68 35 121t102.5 83t160.5 30q138 0 204.5 -48
t69.5 -155l-182 -69q2 53 -22 84.5t-75 31.5q-39 0 -61 -21t-22 -57q0 -34 31 -55t109 -38q86 -18 136.5 -46t73.5 -70t23 -104q0 -112 -85 -172.5t-228 -60.5q-84 0 -147.5 22z" />
    <glyph glyph-name="Scaron.swsh" horiz-adv-x="645" 
d="M420 714h-190l-110 167h145l60 -77l60 77h145zM160.5 -88q-63.5 22 -98 61.5t-34.5 90.5q0 34 5 56l179 47q-6 -25 -6 -41q0 -40 29 -60t91 -20q53 0 78.5 18t25.5 49q0 33 -30 52.5t-110 34.5q-135 25 -193.5 80t-58.5 156q0 68 35 121t102.5 83t160.5 30
q138 0 204.5 -48t69.5 -155l-182 -69q2 53 -22 84.5t-75 31.5q-39 0 -61 -21t-22 -57q0 -34 31 -55t109 -38q86 -18 136.5 -46t73.5 -70t23 -104q0 -112 -85 -172.5t-228 -60.5q-84 0 -147.5 22z" />
    <glyph glyph-name="Scedilla.swsh" horiz-adv-x="645" 
d="M558.5 -30.5q-62.5 -58.5 -170.5 -73.5q48 -36 48 -89q0 -62 -42 -92t-111 -30q-47 0 -77.5 11t-51.5 31l42 88q29 -29 73 -29q25 0 40 12.5t15 34.5q0 20 -15 34.5t-51 24.5q-106 10 -168 56.5t-62 115.5q0 34 5 56l179 47q-6 -25 -6 -41q0 -40 29 -60t91 -20
q53 0 78.5 18t25.5 49q0 33 -30 52.5t-110 34.5q-135 25 -193.5 80t-58.5 156q0 68 35 121t102.5 83t160.5 30q138 0 204.5 -48t69.5 -155l-182 -69q2 53 -22 84.5t-75 31.5q-39 0 -61 -21t-22 -57q0 -34 31 -55t109 -38q86 -18 136.5 -46t73.5 -70t23 -104
q0 -95 -62.5 -153.5z" />
    <glyph glyph-name="Scommaaccent.swsh" horiz-adv-x="645" 
d="M160.5 -88q-63.5 22 -98 61.5t-34.5 90.5q0 34 5 56l179 47q-6 -25 -6 -41q0 -40 29 -60t91 -20q53 0 78.5 18t25.5 49q0 33 -30 52.5t-110 34.5q-135 25 -193.5 80t-58.5 156q0 68 35 121t102.5 83t160.5 30q138 0 204.5 -48t69.5 -155l-182 -69q2 53 -22 84.5t-75 31.5
q-39 0 -61 -21t-22 -57q0 -34 31 -55t109 -38q86 -18 136.5 -46t73.5 -70t23 -104q0 -112 -85 -172.5t-228 -60.5q-84 0 -147.5 22zM332 -342h-128l28 187h173z" />
    <glyph glyph-name="T.swsh" horiz-adv-x="820" 
d="M797 507h-210v-507h-205v507h-105q-43 0 -64.5 -18t-21.5 -48q0 -33 20.5 -54t61.5 -24l-57 -134q-60 2 -107 30t-73 75.5t-26 109.5q0 104 65.5 160t190.5 56h531v-153z" />
    <glyph glyph-name="Tcaron.swsh" horiz-adv-x="820" 
d="M384 714l-110 167h145l60 -77l60 77h145l-110 -167h-190zM797 507h-210v-507h-205v507h-105q-43 0 -64.5 -18t-21.5 -48q0 -33 20.5 -54t61.5 -24l-57 -134q-60 2 -107 30t-73 75.5t-26 109.5q0 104 65.5 160t190.5 56h531v-153z" />
    <glyph glyph-name="uni0162.swsh" horiz-adv-x="820" 
d="M587 507v-504q41 -32 41 -91q0 -65 -42 -96t-111 -31q-87 0 -134 43l52 92q12 -16 27 -23.5t39 -7.5t40 13t16 38q0 49 -75 60h-58v507h-105q-43 0 -64.5 -18t-21.5 -48q0 -33 20.5 -54t61.5 -24l-57 -134q-60 2 -107 30t-73 75.5t-26 109.5q0 104 65.5 160t190.5 56h531
v-153h-210z" />
    <glyph glyph-name="uni021A.swsh" horiz-adv-x="820" 
d="M797 507h-210v-507h-205v507h-105q-43 0 -64.5 -18t-21.5 -48q0 -33 20.5 -54t61.5 -24l-57 -134q-60 2 -107 30t-73 75.5t-26 109.5q0 104 65.5 160t190.5 56h531v-153zM496 -242h-128l28 187h173z" />
    <glyph glyph-name="W.swsh" horiz-adv-x="1319" 
d="M1318 660l-189 -660h-219l-64 282l-28 165h-2l-28 -165l-63 -282h-227l-146 513h-79q-43 0 -62.5 -19.5t-19.5 -52.5q0 -32 21.5 -53.5t63.5 -24.5l-60 -134q-60 1 -107 28t-73 75.5t-26 111.5q0 104 65.5 160t190.5 56h264l92 -499l105 499h180l108 -497l91 497h212z
" />
    <glyph glyph-name="Adieresis.titl" horiz-adv-x="684" 
d="M74 531.5q-22 19.5 -22 55.5q0 35 22.5 55t62.5 20q34 0 53 -15l-45 -135h-8q-41 0 -63 19.5zM537 512l-44 135q20 15 53 15q40 0 62.5 -20t22.5 -55q0 -36 -22 -55.5t-63 -19.5h-9zM440 137h-201l-38 -137h-204l222 660h245l223 -660h-210zM405 269l-36 131l-28 108h-2
l-27 -107l-37 -132h130z" />
    <glyph glyph-name="Odieresis.titl" horiz-adv-x="733" 
d="M609 580.5q87 -89.5 87 -250.5t-87 -250.5t-242 -89.5q-102 0 -176.5 40t-114.5 117t-40 183t40 183t114.5 117t176.5 40q155 0 242 -89.5zM77 548q-24 18 -24 53q0 32 20 50.5t55 18.5q40 0 60 -22q-71 -37 -111 -100zM546 648q19 22 58 22q37 0 58 -18.5t21 -50.5
q0 -35 -26 -55q-36 61 -111 102zM276 468.5q-30 -45.5 -30 -138.5t30 -138.5t91 -45.5t90.5 45t29.5 139t-29.5 139t-90.5 45t-91 -45.5z" />
    <glyph glyph-name="Udieresis.titl" horiz-adv-x="710" 
d="M304.5 553q-18.5 17 -18.5 47q0 29 18.5 45.5t50.5 16.5q34 0 53 -16.5t19 -45.5q0 -30 -19 -47t-53 -17q-32 0 -50.5 17zM663 277q0 -287 -308 -287t-308 287v383h206v-394q0 -120 102 -120q103 0 103 120v394h205v-383zM304.5 405.5q-18.5 16.5 -18.5 45.5
q0 30 18.5 47t50.5 17q34 0 53 -17t19 -47q0 -29 -19 -45.5t-53 -16.5q-32 0 -50.5 16.5z" />
    <glyph glyph-name="a" unicode="a" horiz-adv-x="585" 
d="M587 115l-16 -107q-33 -18 -71 -18q-57 0 -94.5 20.5t-49.5 60.5q-22 -38 -66.5 -59.5t-111.5 -21.5q-76 0 -115.5 31.5t-39.5 90.5q0 63 45 102t150 60l106 22v19q0 29 -15 45t-42 16q-30 0 -49 -15.5t-23 -53.5l-166 35q11 80 72.5 124t172.5 44q250 0 250 -199v-160
q0 -40 35 -40q17 0 28 4zM304.5 123.5q19.5 15.5 19.5 43.5v46l-55 -14q-52 -13 -52 -52q0 -19 11.5 -29t30.5 -10q26 0 45.5 15.5z" />
    <glyph glyph-name="aacute" unicode="&#xe1;" horiz-adv-x="585" 
d="M587 115l-16 -107q-33 -18 -71 -18q-57 0 -94.5 20.5t-49.5 60.5q-22 -38 -66.5 -59.5t-111.5 -21.5q-76 0 -115.5 31.5t-39.5 90.5q0 63 45 102t150 60l106 22v19q0 29 -15 45t-42 16q-30 0 -49 -15.5t-23 -53.5l-166 35q11 80 72.5 124t172.5 44q250 0 250 -199v-160
q0 -40 35 -40q17 0 28 4zM304.5 123.5q19.5 15.5 19.5 43.5v46l-55 -14q-52 -13 -52 -52q0 -19 11.5 -29t30.5 -10q26 0 45.5 15.5zM436 734l-102 -175h-144l63 175h183z" />
    <glyph glyph-name="abreve" unicode="&#x103;" horiz-adv-x="585" 
d="M587 115l-16 -107q-33 -18 -71 -18q-57 0 -94.5 20.5t-49.5 60.5q-22 -38 -66.5 -59.5t-111.5 -21.5q-76 0 -115.5 31.5t-39.5 90.5q0 63 45 102t150 60l106 22v19q0 29 -15 45t-42 16q-30 0 -49 -15.5t-23 -53.5l-166 35q11 80 72.5 124t172.5 44q250 0 250 -199v-160
q0 -40 35 -40q17 0 28 4zM304.5 123.5q19.5 15.5 19.5 43.5v46l-55 -14q-52 -13 -52 -52q0 -19 11.5 -29t30.5 -10q26 0 45.5 15.5zM406.5 591.5q-46.5 -44.5 -129.5 -44.5t-129.5 44.5t-46.5 123.5h125q0 -29 13 -45t38 -16t38 16t13 45h125q0 -79 -46.5 -123.5z" />
    <glyph glyph-name="acircumflex" unicode="&#xe2;" horiz-adv-x="585" 
d="M587 115l-16 -107q-33 -18 -71 -18q-57 0 -94.5 20.5t-49.5 60.5q-22 -38 -66.5 -59.5t-111.5 -21.5q-76 0 -115.5 31.5t-39.5 90.5q0 63 45 102t150 60l106 22v19q0 29 -15 45t-42 16q-30 0 -49 -15.5t-23 -53.5l-166 35q11 80 72.5 124t172.5 44q250 0 250 -199v-160
q0 -40 35 -40q17 0 28 4zM304.5 123.5q19.5 15.5 19.5 43.5v46l-55 -14q-52 -13 -52 -52q0 -19 11.5 -29t30.5 -10q26 0 45.5 15.5zM339 552l-62 79l-62 -79h-141l107 176h192l107 -176h-141z" />
    <glyph glyph-name="adieresis" unicode="&#xe4;" horiz-adv-x="585" 
d="M587 115l-16 -107q-33 -18 -71 -18q-57 0 -94.5 20.5t-49.5 60.5q-22 -38 -66.5 -59.5t-111.5 -21.5q-76 0 -115.5 31.5t-39.5 90.5q0 63 45 102t150 60l106 22v19q0 29 -15 45t-42 16q-30 0 -49 -15.5t-23 -53.5l-166 35q11 80 72.5 124t172.5 44q250 0 250 -199v-160
q0 -40 35 -40q17 0 28 4zM304.5 123.5q19.5 15.5 19.5 43.5v46l-55 -14q-52 -13 -52 -52q0 -19 11.5 -29t30.5 -10q26 0 45.5 15.5zM232 693.5q25 -22.5 25 -62.5q0 -41 -25 -63t-71 -22q-44 0 -69 22.5t-25 62.5t25 62.5t69 22.5q46 0 71 -22.5zM461 693.5
q25 -22.5 25 -62.5q0 -41 -25 -63t-71 -22q-44 0 -69 22.5t-25 62.5t25 62.5t69 22.5q46 0 71 -22.5z" />
    <glyph glyph-name="agrave" unicode="&#xe0;" horiz-adv-x="585" 
d="M587 115l-16 -107q-33 -18 -71 -18q-57 0 -94.5 20.5t-49.5 60.5q-22 -38 -66.5 -59.5t-111.5 -21.5q-76 0 -115.5 31.5t-39.5 90.5q0 63 45 102t150 60l106 22v19q0 29 -15 45t-42 16q-30 0 -49 -15.5t-23 -53.5l-166 35q11 80 72.5 124t172.5 44q250 0 250 -199v-160
q0 -40 35 -40q17 0 28 4zM304.5 123.5q19.5 15.5 19.5 43.5v46l-55 -14q-52 -13 -52 -52q0 -19 11.5 -29t30.5 -10q26 0 45.5 15.5zM352 559h-144l-102 175h183z" />
    <glyph glyph-name="amacron" unicode="&#x101;" horiz-adv-x="585" 
d="M587 115l-16 -107q-33 -18 -71 -18q-57 0 -94.5 20.5t-49.5 60.5q-22 -38 -66.5 -59.5t-111.5 -21.5q-76 0 -115.5 31.5t-39.5 90.5q0 63 45 102t150 60l106 22v19q0 29 -15 45t-42 16q-30 0 -49 -15.5t-23 -53.5l-166 35q11 80 72.5 124t172.5 44q250 0 250 -199v-160
q0 -40 35 -40q17 0 28 4zM304.5 123.5q19.5 15.5 19.5 43.5v46l-55 -14q-52 -13 -52 -52q0 -19 11.5 -29t30.5 -10q26 0 45.5 15.5zM467 559h-380v119h380v-119z" />
    <glyph glyph-name="aogonek" unicode="&#x105;" horiz-adv-x="585" 
d="M557 -97l25 -93q-22 -14 -48.5 -19.5t-61.5 -5.5q-66 0 -106 29.5t-40 89.5q0 43 26.5 72.5t76.5 42.5q-51 19 -63 71q-20 -47 -66.5 -73.5t-121.5 -26.5q-76 0 -115.5 31.5t-39.5 90.5q0 63 45 101.5t150 60.5l106 22v19q0 29 -15 45t-42 16q-30 0 -49 -15.5t-23 -53.5
l-166 35q11 80 72.5 124t172.5 44q250 0 250 -199v-160q0 -40 35 -40q17 0 28 4l-16 -110q-55 -8 -81 -25t-26 -45q0 -20 13 -30.5t37 -10.5q29 0 43 9zM304.5 123.5q19.5 15.5 19.5 43.5v46l-55 -14q-52 -13 -52 -52q0 -19 11.5 -29t30.5 -10q26 0 45.5 15.5z" />
    <glyph glyph-name="aring" unicode="&#xe5;" horiz-adv-x="585" 
d="M587 115l-16 -107q-33 -18 -71 -18q-57 0 -94.5 20.5t-49.5 60.5q-22 -38 -66.5 -59.5t-111.5 -21.5q-76 0 -115.5 31.5t-39.5 90.5q0 63 45 102t150 60l106 22v19q0 29 -15 45t-42 16q-30 0 -49 -15.5t-23 -53.5l-166 35q11 80 72.5 124t172.5 44q250 0 250 -199v-160
q0 -40 35 -40q17 0 28 4zM304.5 123.5q19.5 15.5 19.5 43.5v46l-55 -14q-52 -13 -52 -52q0 -19 11.5 -29t30.5 -10q26 0 45.5 15.5zM380 754.5q36 -32.5 36 -89.5q0 -58 -36 -90.5t-102 -32.5q-65 0 -101.5 32.5t-36.5 90.5q0 57 36.5 89.5t101.5 32.5q66 0 102 -32.5z
M245 697.5q-12 -11.5 -12 -32.5t12 -33t33 -12t33.5 12t12.5 33t-12.5 32.5t-33.5 11.5t-33 -11.5z" />
    <glyph glyph-name="atilde" unicode="&#xe3;" horiz-adv-x="585" 
d="M587 115l-16 -107q-33 -18 -71 -18q-57 0 -94.5 20.5t-49.5 60.5q-22 -38 -66.5 -59.5t-111.5 -21.5q-76 0 -115.5 31.5t-39.5 90.5q0 63 45 102t150 60l106 22v19q0 29 -15 45t-42 16q-30 0 -49 -15.5t-23 -53.5l-166 35q11 80 72.5 124t172.5 44q250 0 250 -199v-160
q0 -40 35 -40q17 0 28 4zM304.5 123.5q19.5 15.5 19.5 43.5v46l-55 -14q-52 -13 -52 -52q0 -19 11.5 -29t30.5 -10q26 0 45.5 15.5zM442.5 592q-35.5 -42 -101.5 -42q-30 0 -48.5 9t-39.5 25q-12 10 -20.5 15t-19.5 5q-15 0 -23 -12.5t-11 -39.5h-108q6 168 140 168
q30 0 49.5 -9t39.5 -25q13 -10 21 -14.5t18 -4.5q15 0 23 12.5t11 39.5h108q-3 -85 -38.5 -127z" />
    <glyph glyph-name="ae" unicode="&#xe6;" horiz-adv-x="876" 
d="M843 207h-322q7 -43 30 -61t60 -18q29 0 43.5 11.5t21.5 36.5l163 -47q-19 -68 -81.5 -103.5t-154.5 -35.5q-132 0 -188 94q-29 -44 -86.5 -69t-141.5 -25q-82 0 -122.5 32.5t-40.5 87.5q0 65 43 100.5t143 55.5l116 24v25q0 61 -60 61q-31 0 -47.5 -15.5t-22.5 -52.5
l-166 33q10 79 67.5 124t164.5 45q56 0 101.5 -17t76.5 -49q58 66 160 66q119 0 183.5 -66t64.5 -176q0 -39 -5 -61zM542.5 353q-18.5 -20 -22.5 -66h140q-3 44 -18 65t-47 21q-34 0 -52.5 -20zM306 116q20 17 20 52v43l-51 -12q-33 -9 -47.5 -21.5t-14.5 -35.5
q0 -43 45 -43q28 0 48 17z" />
    <glyph glyph-name="b" unicode="b" horiz-adv-x="628" 
d="M543 441q52 -69 52 -193q0 -123 -51.5 -190.5t-145.5 -67.5q-60 0 -103 32.5t-63 88.5l-6 -111h-177v706h202v-290q20 44 57 69t89 25q94 0 146 -69zM373.5 161q18.5 27 18.5 89t-18 88.5t-54 26.5q-66 0 -69 -104v-22q3 -105 69 -105q35 0 53.5 27z" />
    <glyph glyph-name="c" unicode="c" horiz-adv-x="574" 
d="M484.5 463.5q59.5 -46.5 67.5 -116.5l-187 -57q-3 81 -57 81q-40 0 -58.5 -28.5t-18.5 -94.5t19.5 -92.5t56.5 -26.5q54 0 63 73l181 -57q-3 -43 -32.5 -78.5t-83 -56t-127.5 -20.5q-136 0 -208 67.5t-72 192.5q0 124 71 192t199 68q127 0 186.5 -46.5z" />
    <glyph glyph-name="cacute" unicode="&#x107;" horiz-adv-x="574" 
d="M484.5 463.5q59.5 -46.5 67.5 -116.5l-187 -57q-3 81 -57 81q-40 0 -58.5 -28.5t-18.5 -94.5t19.5 -92.5t56.5 -26.5q54 0 63 73l181 -57q-3 -43 -32.5 -78.5t-83 -56t-127.5 -20.5q-136 0 -208 67.5t-72 192.5q0 124 71 192t199 68q127 0 186.5 -46.5zM457 734
l-102 -175h-144l63 175h183z" />
    <glyph glyph-name="ccaron" unicode="&#x10d;" horiz-adv-x="574" 
d="M484.5 463.5q59.5 -46.5 67.5 -116.5l-187 -57q-3 81 -57 81q-40 0 -58.5 -28.5t-18.5 -94.5t19.5 -92.5t56.5 -26.5q54 0 63 73l181 -57q-3 -43 -32.5 -78.5t-83 -56t-127.5 -20.5q-136 0 -208 67.5t-72 192.5q0 124 71 192t199 68q127 0 186.5 -46.5zM388 559h-192
l-107 175h141l62 -79l62 79h141z" />
    <glyph glyph-name="ccedilla" unicode="&#xe7;" horiz-adv-x="574" 
d="M370 202l181 -57q-4 -52 -44.5 -91.5t-111.5 -54.5q53 -36 53 -92q0 -62 -42 -92t-111 -30q-47 0 -77.5 11t-51.5 31l42 88q29 -29 73 -29q25 0 40 12.5t15 34.5q0 19 -14 33.5t-49 24.5q-120 9 -182.5 76t-62.5 183q0 124 71 192t199 68q127 0 186.5 -46.5t67.5 -116.5
l-187 -57q-3 81 -57 81q-40 0 -58.5 -28.5t-18.5 -94.5t19.5 -92.5t56.5 -26.5q54 0 63 73z" />
    <glyph glyph-name="d" unicode="d" horiz-adv-x="628" 
d="M578 706v-706h-181l-7 97q-22 -49 -63 -78t-97 -29q-94 0 -146 68t-52 190q0 124 52.5 193t146.5 69q52 0 88.5 -25t56.5 -70v291h202zM376 246v8q0 111 -69 111q-35 0 -53 -26.5t-18 -88.5t18 -89t53 -27q69 0 69 112z" />
    <glyph glyph-name="eth" unicode="&#xf0;" horiz-adv-x="598" 
d="M473 604q94 -124 94 -296q0 -114 -28 -183.5t-88.5 -102t-159.5 -32.5q-120 0 -188.5 67t-68.5 188q0 79 30.5 136.5t86.5 87.5t130 30q96 0 133 -69q-18 80 -73 144l-155 -30l-11 58l125 14q-52 47 -135 103h171q54 -27 102 -75l122 27l15 -58zM361 156.5
q17 27.5 17 88.5q0 69 -17 98t-55 29q-37 0 -53 -29t-16 -98q0 -61 16 -88.5t52 -27.5q39 0 56 27.5z" />
    <glyph glyph-name="dcaron" unicode="&#x10f;" horiz-adv-x="740" 
d="M786 706l-57 -254h-113l21 254h149zM376 706h202v-706h-181l-7 97q-22 -49 -63 -78t-97 -29q-94 0 -146 68t-52 190q0 124 52.5 193t146.5 69q52 0 88.5 -25t56.5 -70v291zM376 246v8q0 111 -69 111q-35 0 -53 -26.5t-18 -88.5t18 -89t53 -27q69 0 69 112z" />
    <glyph glyph-name="dcroat" unicode="&#x111;" horiz-adv-x="627" 
d="M663 544h-85v-544h-181l-7 97q-22 -49 -63 -78t-97 -29q-94 0 -146 68t-52 190q0 124 52.5 193t146.5 69q52 0 88.5 -25t56.5 -70v129h-120v85h120v77h202v-77h85v-85zM376 246v8q0 111 -69 111q-35 0 -53 -26.5t-18 -88.5t18 -89t53 -27q69 0 69 112z" />
    <glyph glyph-name="e" unicode="e" horiz-adv-x="583" 
d="M551 204h-329q6 -42 27 -59t59 -17q61 0 75 48l163 -47q-19 -68 -82.5 -103.5t-155.5 -35.5q-136 0 -208 67.5t-72 192.5q0 124 70.5 192t198.5 68q125 0 192 -66.5t67 -181.5q0 -36 -5 -58zM246.5 354q-18.5 -19 -24.5 -62h145q-5 41 -21.5 61t-47.5 20q-33 0 -51.5 -19
z" />
    <glyph glyph-name="eacute" unicode="&#xe9;" horiz-adv-x="583" 
d="M551 204h-329q6 -42 27 -59t59 -17q61 0 75 48l163 -47q-19 -68 -82.5 -103.5t-155.5 -35.5q-136 0 -208 67.5t-72 192.5q0 124 70.5 192t198.5 68q125 0 192 -66.5t67 -181.5q0 -36 -5 -58zM246.5 354q-18.5 -19 -24.5 -62h145q-5 41 -21.5 61t-47.5 20q-33 0 -51.5 -19
zM456 734l-102 -175h-144l63 175h183z" />
    <glyph glyph-name="ecaron" unicode="&#x11b;" horiz-adv-x="583" 
d="M551 204h-329q6 -42 27 -59t59 -17q61 0 75 48l163 -47q-19 -68 -82.5 -103.5t-155.5 -35.5q-136 0 -208 67.5t-72 192.5q0 124 70.5 192t198.5 68q125 0 192 -66.5t67 -181.5q0 -36 -5 -58zM246.5 354q-18.5 -19 -24.5 -62h145q-5 41 -21.5 61t-47.5 20q-33 0 -51.5 -19
zM387 559h-192l-107 175h141l62 -79l62 79h141z" />
    <glyph glyph-name="ecircumflex" unicode="&#xea;" horiz-adv-x="583" 
d="M551 204h-329q6 -42 27 -59t59 -17q61 0 75 48l163 -47q-19 -68 -82.5 -103.5t-155.5 -35.5q-136 0 -208 67.5t-72 192.5q0 124 70.5 192t198.5 68q125 0 192 -66.5t67 -181.5q0 -36 -5 -58zM246.5 354q-18.5 -19 -24.5 -62h145q-5 41 -21.5 61t-47.5 20q-33 0 -51.5 -19
zM358 552l-62 79l-62 -79h-141l107 176h192l107 -176h-141z" />
    <glyph glyph-name="edieresis" unicode="&#xeb;" horiz-adv-x="583" 
d="M551 204h-329q6 -42 27 -59t59 -17q61 0 75 48l163 -47q-19 -68 -82.5 -103.5t-155.5 -35.5q-136 0 -208 67.5t-72 192.5q0 124 70.5 192t198.5 68q125 0 192 -66.5t67 -181.5q0 -36 -5 -58zM246.5 354q-18.5 -19 -24.5 -62h145q-5 41 -21.5 61t-47.5 20q-33 0 -51.5 -19
zM251 693.5q25 -22.5 25 -62.5q0 -41 -25 -63t-71 -22q-44 0 -69 22.5t-25 62.5t25 62.5t69 22.5q46 0 71 -22.5zM480 693.5q25 -22.5 25 -62.5q0 -41 -25 -63t-71 -22q-44 0 -69 22.5t-25 62.5t25 62.5t69 22.5q46 0 71 -22.5z" />
    <glyph glyph-name="edotaccent" unicode="&#x117;" horiz-adv-x="583" 
d="M551 204h-329q6 -42 27 -59t59 -17q61 0 75 48l163 -47q-19 -68 -82.5 -103.5t-155.5 -35.5q-136 0 -208 67.5t-72 192.5q0 124 70.5 192t198.5 68q125 0 192 -66.5t67 -181.5q0 -36 -5 -58zM246.5 354q-18.5 -19 -24.5 -62h145q-5 41 -21.5 61t-47.5 20q-33 0 -51.5 -19
zM374.5 701.5q26.5 -22.5 26.5 -65.5t-26.5 -65t-78.5 -22q-102 0 -102 87q0 88 102 88q52 0 78.5 -22.5z" />
    <glyph glyph-name="egrave" unicode="&#xe8;" horiz-adv-x="583" 
d="M551 204h-329q6 -42 27 -59t59 -17q61 0 75 48l163 -47q-19 -68 -82.5 -103.5t-155.5 -35.5q-136 0 -208 67.5t-72 192.5q0 124 70.5 192t198.5 68q125 0 192 -66.5t67 -181.5q0 -36 -5 -58zM246.5 354q-18.5 -19 -24.5 -62h145q-5 41 -21.5 61t-47.5 20q-33 0 -51.5 -19
zM371 559h-144l-102 175h183z" />
    <glyph glyph-name="emacron" unicode="&#x113;" horiz-adv-x="583" 
d="M551 204h-329q6 -42 27 -59t59 -17q61 0 75 48l163 -47q-19 -68 -82.5 -103.5t-155.5 -35.5q-136 0 -208 67.5t-72 192.5q0 124 70.5 192t198.5 68q125 0 192 -66.5t67 -181.5q0 -36 -5 -58zM246.5 354q-18.5 -19 -24.5 -62h145q-5 41 -21.5 61t-47.5 20q-33 0 -51.5 -19
zM486 559h-380v119h380v-119z" />
    <glyph glyph-name="eogonek" unicode="&#x119;" horiz-adv-x="583" 
d="M551 204h-329q6 -42 27 -59t59 -17q61 0 75 48l163 -47q-14 -51 -54.5 -84t-100.5 -47q-31 -14 -45.5 -28.5t-14.5 -33.5q0 -20 13.5 -31t37.5 -11q29 0 43 9l25 -93q-21 -14 -48 -19.5t-63 -5.5q-65 0 -105.5 29.5t-40.5 86.5q0 55 53 93q-107 15 -162.5 80.5
t-55.5 175.5q0 124 70.5 192t198.5 68q125 0 192 -66.5t67 -181.5q0 -36 -5 -58zM246.5 354q-18.5 -19 -24.5 -62h145q-5 41 -21.5 61t-47.5 20q-33 0 -51.5 -19z" />
    <glyph glyph-name="f" unicode="f" horiz-adv-x="423" 
d="M271 500h146v-139h-133v-361h-202v361h-74v139h74v32q0 98 61 144.5t155 46.5q42 0 74.5 -8t50.5 -23l-16 -121q-20 16 -57 16q-39 0 -59 -15.5t-20 -50.5v-21z" />
    <glyph glyph-name="g" unicode="g" horiz-adv-x="573" 
d="M523.5 87q49.5 -40 49.5 -120q0 -90 -77 -136t-216 -46q-265 0 -265 112q0 33 23 57.5t73 35.5q-82 33 -82 109q0 35 22.5 62t60.5 42q-83 42 -83 136q0 84 66 127.5t192 43.5q53 0 99 -8q8 63 43.5 105.5t100.5 42.5q13 0 20 -1l19 -129q-18 3 -33 3q-30 0 -51.5 -12
t-31.5 -30q92 -43 92 -142q0 -83 -66 -126t-192 -43q-59 0 -105 9q-21 -6 -21 -24q0 -28 47 -28h172q94 0 143.5 -40zM245.5 384.5q-15.5 -16.5 -15.5 -44.5t15.5 -44.5t41.5 -16.5t41.5 16.5t15.5 44.5t-15.5 44.5t-41.5 16.5t-41.5 -16.5zM418 -53q0 23 -48 23h-138
q-38 0 -53 -6t-15 -20q0 -17 30.5 -25t98.5 -8q125 0 125 36z" />
    <glyph glyph-name="gbreve" unicode="&#x11f;" horiz-adv-x="569" 
d="M157 591.5q-47 44.5 -47 123.5h126q0 -29 13 -45t38 -16t38 16t13 45h125q0 -79 -46.5 -123.5t-129.5 -44.5t-130 44.5zM522 87q50 -40 50 -120q0 -90 -77.5 -136t-216.5 -46q-265 0 -265 112q0 33 23 57.5t73 35.5q-81 33 -81 109q0 35 22 62t60 42q-83 42 -83 136
q0 84 66 127.5t192 43.5q81 0 138 -18q1 42 20 78t51 57.5t72 21.5l19 -129q-5 1 -16 1q-33 0 -55.5 -15t-29.5 -44q59 -44 59 -123q0 -83 -66 -126t-192 -43q-58 0 -105 9q-21 -6 -21 -24q0 -28 48 -28h171q94 0 144 -40zM243.5 384.5q-15.5 -16.5 -15.5 -44.5t15.5 -44.5
t41.5 -16.5t41.5 16.5t15.5 44.5t-15.5 44.5t-41.5 16.5t-41.5 -16.5zM416 -53q0 23 -48 23h-138q-38 0 -53 -6t-15 -20q0 -17 30.5 -25t98.5 -8q125 0 125 36z" />
    <glyph glyph-name="h" unicode="h" horiz-adv-x="620" 
d="M528.5 465q43.5 -45 43.5 -127v-338h-202v284q0 41 -13 58t-38 17q-31 0 -49.5 -24t-18.5 -72v-263h-202v706h202v-303q22 53 62 80t95 27q77 0 120.5 -45z" />
    <glyph glyph-name="i" unicode="i" horiz-adv-x="300" 
d="M63 565q-26 21 -26 68q0 48 26 69t87 21t87 -21t26 -69q0 -47 -26 -68t-87 -21t-87 21zM251 0h-202v500h202v-500z" />
    <glyph glyph-name="dotlessi" unicode="&#x131;" horiz-adv-x="300" 
d="M251 0h-202v500h202v-500z" />
    <glyph glyph-name="iacute" unicode="&#xed;" horiz-adv-x="300" 
d="M251 0h-202v500h202v-500zM312 734l-102 -175h-144l63 175h183z" />
    <glyph glyph-name="icircumflex" unicode="&#xee;" horiz-adv-x="300" 
d="M251 0h-202v500h202v-500zM212 552l-62 79l-62 -79h-141l107 176h192l107 -176h-141z" />
    <glyph glyph-name="idieresis" unicode="&#xef;" horiz-adv-x="300" 
d="M-41 631q0 43 22.5 65t66.5 22q89 0 89 -87t-89 -87t-89 87zM163 631q0 87 89 87q44 0 66.5 -22t22.5 -65q0 -87 -89 -87t-89 87zM251 0h-202v500h202v-500z" />
    <glyph glyph-name="i.loclTRK" horiz-adv-x="300" 
d="M63 565q-26 21 -26 68q0 48 26 69t87 21t87 -21t26 -69q0 -47 -26 -68t-87 -21t-87 21zM251 0h-202v500h202v-500z" />
    <glyph glyph-name="igrave" unicode="&#xec;" horiz-adv-x="300" 
d="M251 0h-202v500h202v-500zM225 559h-144l-102 175h183z" />
    <glyph glyph-name="ij" unicode="&#x133;" horiz-adv-x="599" 
d="M63 565q-26 21 -26 68q0 48 26 69t87 21t87 -21t26 -69q0 -47 -26 -68t-87 -21t-87 21zM251 0h-202v500h202v-500zM536.5 702q26.5 -21 26.5 -69q0 -47 -26.5 -68t-87.5 -21q-60 0 -86 21t-26 68q0 48 26 69t86 21q61 0 87.5 -21zM551 -20q0 -103 -51 -149t-157 -46
q-87 0 -142 31l26 123q9 -8 24.5 -12.5t31.5 -4.5q33 0 49.5 18t16.5 58v502h202v-520z" />
    <glyph glyph-name="imacron" unicode="&#x12b;" horiz-adv-x="300" 
d="M297 559h-293v119h293v-119zM251 0h-202v500h202v-500z" />
    <glyph glyph-name="iogonek" unicode="&#x12f;" horiz-adv-x="300" 
d="M63 565q-26 21 -26 68q0 48 26 69t87 21t87 -21t26 -69q0 -47 -26 -68t-87 -21t-87 21zM235 -97l25 -93q-22 -14 -48.5 -19.5t-63.5 -5.5q-64 0 -104.5 29t-40.5 86q0 65 64 100h-18v500h202v-500q-52 -6 -81 -24t-29 -42q0 -19 13 -29.5t37 -10.5q30 0 44 9z" />
    <glyph glyph-name="j" unicode="j" horiz-adv-x="299" 
d="M236.5 702q26.5 -21 26.5 -69q0 -47 -26.5 -68t-87.5 -21q-60 0 -86 21t-26 68q0 48 26 69t86 21q61 0 87.5 -21zM251 -20q0 -103 -51 -149t-157 -46q-87 0 -142 31l26 123q9 -8 24.5 -12.5t31.5 -4.5q33 0 49.5 18t16.5 58v502h202v-520z" />
    <glyph glyph-name="k" unicode="k" horiz-adv-x="641" 
d="M323 189l-72 -84v-105h-202v706h202v-399l167 193h220l-181 -196l192 -304h-222z" />
    <glyph glyph-name="l" unicode="l" horiz-adv-x="334" 
d="M250 187q0 -32 10 -46t34 -14q22 0 43 7l-11 -115q-18 -13 -50.5 -21t-64.5 -8q-87 0 -125 39t-38 128v549h202v-519z" />
    <glyph glyph-name="lacute" unicode="&#x13a;" horiz-adv-x="336" 
d="M306 916l-86 -160h-143l54 160h175zM250 187q0 -32 10 -46t34 -14q22 0 43 7l-11 -115q-18 -13 -50.5 -21t-64.5 -8q-87 0 -125 39t-38 128v549h202v-519z" />
    <glyph glyph-name="lcaron" unicode="&#x13e;" horiz-adv-x="417" 
d="M395 452h-113l22 254h148zM250 187q0 -32 10 -46t34 -14q22 0 43 7l-11 -115q-18 -13 -50.5 -21t-64.5 -8q-87 0 -125 39t-38 128v549h202v-519z" />
    <glyph glyph-name="ldot" unicode="&#x140;" horiz-adv-x="529" 
d="M250 187q0 -32 10 -46t34 -14q22 0 43 7l-11 -115q-18 -13 -50.5 -21t-64.5 -8q-87 0 -125 39t-38 128v549h202v-519zM497.5 426q29.5 -26 29.5 -73t-29.5 -73.5t-82.5 -26.5t-82.5 26.5t-29.5 73.5t29.5 73t82.5 26t82.5 -26z" />
    <glyph glyph-name="lslash" unicode="&#x142;" horiz-adv-x="402" 
d="M291 332v-145q0 -32 9.5 -46t33.5 -14q23 0 43 7l-11 -115q-18 -13 -50.5 -21t-63.5 -8q-87 0 -125 39t-38 128v58l-83 -54v139l83 37v369h202v-256l98 65v-140z" />
    <glyph glyph-name="m" unicode="m" horiz-adv-x="937" 
d="M845 465q44 -45 44 -127v-338h-202v288q0 38 -12.5 54.5t-37.5 16.5q-32 0 -49.5 -24t-17.5 -71v-264h-202v288q0 38 -12.5 54.5t-37.5 16.5q-31 0 -49 -24t-18 -72v-263h-202v500h182l5 -103q23 55 66.5 84t104.5 29q57 0 96.5 -26t56.5 -75q23 49 66 75t100 26
q75 0 119 -45z" />
    <glyph glyph-name="n" unicode="n" horiz-adv-x="620" 
d="M528.5 465q43.5 -45 43.5 -127v-338h-202v284q0 41 -13 58t-38 17q-32 0 -50 -23.5t-18 -72.5v-263h-202v500h182l5 -103q22 55 66 84t106 29q77 0 120.5 -45z" />
    <glyph glyph-name="nacute" unicode="&#x144;" horiz-adv-x="620" 
d="M528.5 465q43.5 -45 43.5 -127v-338h-202v284q0 41 -13 58t-38 17q-32 0 -50 -23.5t-18 -72.5v-263h-202v500h182l5 -103q22 55 66 84t106 29q77 0 120.5 -45zM471 734l-102 -175h-144l63 175h183z" />
    <glyph glyph-name="ncaron" unicode="&#x148;" horiz-adv-x="620" 
d="M528.5 465q43.5 -45 43.5 -127v-338h-202v284q0 41 -13 58t-38 17q-32 0 -50 -23.5t-18 -72.5v-263h-202v500h182l5 -103q22 55 66 84t106 29q77 0 120.5 -45zM402 559h-192l-107 175h141l62 -79l62 79h141z" />
    <glyph glyph-name="ntilde" unicode="&#xf1;" horiz-adv-x="620" 
d="M528.5 465q43.5 -45 43.5 -127v-338h-202v284q0 41 -13 58t-38 17q-32 0 -50 -23.5t-18 -72.5v-263h-202v500h182l5 -103q22 55 66 84t106 29q77 0 120.5 -45zM476.5 592q-35.5 -42 -101.5 -42q-30 0 -48.5 9t-39.5 25q-12 10 -20.5 15t-19.5 5q-15 0 -23 -12.5
t-11 -39.5h-108q6 168 140 168q30 0 49.5 -9t39.5 -25q13 -10 21 -14.5t18 -4.5q15 0 23 12.5t11 39.5h108q-3 -85 -38.5 -127z" />
    <glyph glyph-name="o" unicode="o" horiz-adv-x="600" 
d="M500.5 441.5q71.5 -68.5 71.5 -191.5t-71.5 -191.5t-200.5 -68.5t-200.5 68.5t-71.5 191.5t71.5 191.5t200.5 68.5t200.5 -68.5zM246.5 344.5q-15.5 -26.5 -15.5 -94.5t15.5 -94.5t53.5 -26.5t53.5 26.5t15.5 94.5t-15.5 94.5t-53.5 26.5t-53.5 -26.5z" />
    <glyph glyph-name="oacute" unicode="&#xf3;" horiz-adv-x="600" 
d="M500.5 441.5q71.5 -68.5 71.5 -191.5t-71.5 -191.5t-200.5 -68.5t-200.5 68.5t-71.5 191.5t71.5 191.5t200.5 68.5t200.5 -68.5zM246.5 344.5q-15.5 -26.5 -15.5 -94.5t15.5 -94.5t53.5 -26.5t53.5 26.5t15.5 94.5t-15.5 94.5t-53.5 26.5t-53.5 -26.5zM460 734l-102 -175
h-144l63 175h183z" />
    <glyph glyph-name="ocircumflex" unicode="&#xf4;" horiz-adv-x="600" 
d="M500.5 441.5q71.5 -68.5 71.5 -191.5t-71.5 -191.5t-200.5 -68.5t-200.5 68.5t-71.5 191.5t71.5 191.5t200.5 68.5t200.5 -68.5zM246.5 344.5q-15.5 -26.5 -15.5 -94.5t15.5 -94.5t53.5 -26.5t53.5 26.5t15.5 94.5t-15.5 94.5t-53.5 26.5t-53.5 -26.5zM362 552l-62 79
l-62 -79h-141l107 176h192l107 -176h-141z" />
    <glyph glyph-name="odieresis" unicode="&#xf6;" horiz-adv-x="600" 
d="M500.5 441.5q71.5 -68.5 71.5 -191.5t-71.5 -191.5t-200.5 -68.5t-200.5 68.5t-71.5 191.5t71.5 191.5t200.5 68.5t200.5 -68.5zM246.5 344.5q-15.5 -26.5 -15.5 -94.5t15.5 -94.5t53.5 -26.5t53.5 26.5t15.5 94.5t-15.5 94.5t-53.5 26.5t-53.5 -26.5zM255 693.5
q25 -22.5 25 -62.5q0 -41 -25 -63t-71 -22q-44 0 -69 22.5t-25 62.5t25 62.5t69 22.5q46 0 71 -22.5zM484 693.5q25 -22.5 25 -62.5q0 -41 -25 -63t-71 -22q-44 0 -69 22.5t-25 62.5t25 62.5t69 22.5q46 0 71 -22.5z" />
    <glyph glyph-name="ograve" unicode="&#xf2;" horiz-adv-x="600" 
d="M500.5 441.5q71.5 -68.5 71.5 -191.5t-71.5 -191.5t-200.5 -68.5t-200.5 68.5t-71.5 191.5t71.5 191.5t200.5 68.5t200.5 -68.5zM246.5 344.5q-15.5 -26.5 -15.5 -94.5t15.5 -94.5t53.5 -26.5t53.5 26.5t15.5 94.5t-15.5 94.5t-53.5 26.5t-53.5 -26.5zM375 559h-144
l-102 175h183z" />
    <glyph glyph-name="ohungarumlaut" unicode="&#x151;" horiz-adv-x="600" 
d="M500.5 441.5q71.5 -68.5 71.5 -191.5t-71.5 -191.5t-200.5 -68.5t-200.5 68.5t-71.5 191.5t71.5 191.5t200.5 68.5t200.5 -68.5zM246.5 344.5q-15.5 -26.5 -15.5 -94.5t15.5 -94.5t53.5 -26.5t53.5 26.5t15.5 94.5t-15.5 94.5t-53.5 26.5t-53.5 -26.5zM245 559h-136
l67 175h163zM470 559h-137l67 175h164z" />
    <glyph glyph-name="omacron" unicode="&#x14d;" horiz-adv-x="600" 
d="M500.5 441.5q71.5 -68.5 71.5 -191.5t-71.5 -191.5t-200.5 -68.5t-200.5 68.5t-71.5 191.5t71.5 191.5t200.5 68.5t200.5 -68.5zM246.5 344.5q-15.5 -26.5 -15.5 -94.5t15.5 -94.5t53.5 -26.5t53.5 26.5t15.5 94.5t-15.5 94.5t-53.5 26.5t-53.5 -26.5zM490 559h-380v119
h380v-119z" />
    <glyph glyph-name="oslash" unicode="&#xf8;" horiz-adv-x="600" 
d="M459 473l37 48h67l-63 -79q35 -33 53.5 -82t18.5 -110q0 -123 -71.5 -191.5t-200.5 -68.5q-89 0 -151 33l-35 -47h-67l59 77q-78 67 -78 197q0 123 71.5 191.5t200.5 68.5q93 0 159 -37zM238 199l19 30l91 121q-15 21 -48 21q-38 0 -53.5 -26.5t-15.5 -94.5q0 -28 6 -51
h1zM353.5 155.5q15.5 26.5 15.5 94.5q0 20 -5 38h-1l-19 -28l-87 -116q14 -15 43 -15q38 0 53.5 26.5z" />
    <glyph glyph-name="otilde" unicode="&#xf5;" horiz-adv-x="600" 
d="M500.5 441.5q71.5 -68.5 71.5 -191.5t-71.5 -191.5t-200.5 -68.5t-200.5 68.5t-71.5 191.5t71.5 191.5t200.5 68.5t200.5 -68.5zM246.5 344.5q-15.5 -26.5 -15.5 -94.5t15.5 -94.5t53.5 -26.5t53.5 26.5t15.5 94.5t-15.5 94.5t-53.5 26.5t-53.5 -26.5zM466.5 592
q-35.5 -42 -101.5 -42q-30 0 -48.5 9t-39.5 25q-12 10 -20.5 15t-19.5 5q-15 0 -23 -12.5t-11 -39.5h-108q6 168 140 168q30 0 49.5 -9t39.5 -25q13 -10 21 -14.5t18 -4.5q15 0 23 12.5t11 39.5h108q-3 -85 -38.5 -127z" />
    <glyph glyph-name="oe" unicode="&#x153;" horiz-adv-x="941" 
d="M909 209h-329q6 -45 26.5 -63t59.5 -18q61 0 75 48l163 -47q-18 -68 -81.5 -103.5t-156.5 -35.5q-125 0 -187 80q-62 -80 -190 -80q-121 0 -191 69t-70 191t70 191t191 69q127 0 190 -80q58 80 176 80q125 0 192 -66t67 -176q0 -37 -5 -59zM604 354q-18 -19 -24 -63h143
q-4 41 -20 61.5t-47 20.5q-34 0 -52 -19zM354 156q16 27 16 94q0 68 -16 95t-54 27q-37 0 -52.5 -27.5t-15.5 -94.5t15.5 -94t52.5 -27q38 0 54 27z" />
    <glyph glyph-name="p" unicode="p" horiz-adv-x="628" 
d="M543.5 442.5q51.5 -67.5 51.5 -190.5q0 -124 -52 -193t-146 -69q-52 0 -89 25t-57 69v-294h-202v710h177l6 -111q20 56 63 88.5t103 32.5q94 0 145.5 -67.5zM374 161.5q18 26.5 18 88.5t-18.5 89t-53.5 27q-66 0 -69 -105v-22q3 -104 69 -104q36 0 54 26.5z" />
    <glyph glyph-name="thorn" unicode="&#xfe;" horiz-adv-x="628" 
d="M541 446.5q54 -63.5 54 -189.5q0 -99 -30.5 -158.5t-75.5 -84t-93 -24.5q-101 0 -145 87v-287h-202v916h202v-299q21 48 59 75.5t93 27.5q84 0 138 -63.5zM375 161q17 26 17 89t-17 89.5t-55 26.5q-69 0 -69 -112v-8q0 -111 69 -111q38 0 55 26z" />
    <glyph glyph-name="q" unicode="q" horiz-adv-x="628" 
d="M579 500v-710h-202v295q-20 -45 -57 -70t-89 -25q-94 0 -146.5 69t-52.5 193q0 122 52 190t146 68q60 0 102.5 -32.5t63.5 -88.5l5 111h178zM377 231v38q-3 49 -21 73t-48 24q-35 0 -53.5 -27t-18.5 -89t18 -88.5t54 -26.5q65 0 69 96z" />
    <glyph glyph-name="r" unicode="r" horiz-adv-x="437" 
d="M438 498l-19 -167q-9 7 -26 11t-37 4q-47 0 -76 -25.5t-29 -74.5v-246h-202v500h181l6 -117q18 61 55 94t94 33q35 0 53 -12z" />
    <glyph glyph-name="racute" unicode="&#x155;" horiz-adv-x="437" 
d="M438 498l-19 -167q-9 7 -26 11t-37 4q-47 0 -76 -25.5t-29 -74.5v-246h-202v500h181l6 -117q18 61 55 94t94 33q35 0 53 -12zM397 734l-102 -175h-144l63 175h183z" />
    <glyph glyph-name="rcaron" unicode="&#x159;" horiz-adv-x="437" 
d="M438 498l-19 -167q-9 7 -26 11t-37 4q-47 0 -76 -25.5t-29 -74.5v-246h-202v500h181l6 -117q18 61 55 94t94 33q35 0 53 -12zM328 559h-192l-107 175h141l62 -79l62 79h141z" />
    <glyph glyph-name="s" unicode="s" horiz-adv-x="535" 
d="M117.5 9q-62.5 19 -103.5 62l95 110q26 -31 64 -47.5t84 -16.5q26 0 42 6t16 18q0 11 -18 19.5t-64 18.5q-110 21 -158.5 60t-48.5 101q0 43 28.5 82t86 63.5t142.5 24.5q163 0 235 -83l-91 -99q-47 55 -136 55q-31 0 -47 -7.5t-16 -19.5q0 -10 17.5 -17.5t58.5 -14.5
q113 -17 163.5 -55.5t50.5 -106.5q0 -75 -63 -123.5t-186 -48.5q-89 0 -151.5 19z" />
    <glyph glyph-name="sacute" unicode="&#x15b;" horiz-adv-x="535" 
d="M117.5 9q-62.5 19 -103.5 62l95 110q26 -31 64 -47.5t84 -16.5q26 0 42 6t16 18q0 11 -18 19.5t-64 18.5q-110 21 -158.5 60t-48.5 101q0 43 28.5 82t86 63.5t142.5 24.5q163 0 235 -83l-91 -99q-47 55 -136 55q-31 0 -47 -7.5t-16 -19.5q0 -10 17.5 -17.5t58.5 -14.5
q113 -17 163.5 -55.5t50.5 -106.5q0 -75 -63 -123.5t-186 -48.5q-89 0 -151.5 19zM439 734l-102 -175h-144l63 175h183z" />
    <glyph glyph-name="scaron" unicode="&#x161;" horiz-adv-x="535" 
d="M117.5 9q-62.5 19 -103.5 62l95 110q26 -31 64 -47.5t84 -16.5q26 0 42 6t16 18q0 11 -18 19.5t-64 18.5q-110 21 -158.5 60t-48.5 101q0 43 28.5 82t86 63.5t142.5 24.5q163 0 235 -83l-91 -99q-47 55 -136 55q-31 0 -47 -7.5t-16 -19.5q0 -10 17.5 -17.5t58.5 -14.5
q113 -17 163.5 -55.5t50.5 -106.5q0 -75 -63 -123.5t-186 -48.5q-89 0 -151.5 19zM370 559h-192l-107 175h141l62 -79l62 79h141z" />
    <glyph glyph-name="germandbls" unicode="&#xdf;" horiz-adv-x="657" 
d="M583.5 305.5q48.5 -48.5 48.5 -126.5q0 -52 -24 -94.5t-73.5 -68.5t-122.5 -26q-41 0 -74.5 8.5t-55.5 23.5l29 130q12 -12 25 -17t34 -5q31 0 49.5 21t18.5 57q0 35 -21 53.5t-62 18.5h-52l22 138h29q33 1 51.5 22t18.5 57q0 35 -20.5 54.5t-55.5 19.5q-53 0 -75 -30.5
t-22 -101.5v-439h-202v448q0 129 71.5 196t229.5 67q86 0 146.5 -25t91.5 -69t31 -102q0 -42 -20 -78.5t-57 -58.5t-88 -22v-2q81 0 129.5 -48.5z" />
    <glyph glyph-name="longs" unicode="&#x17f;" horiz-adv-x="349" 
d="M48 532q0 98 59.5 144.5t151.5 46.5q37 0 61 -6t43 -20l-8 -121q-9 6 -18.5 8.5t-23.5 2.5q-32 0 -50.5 -16.5t-18.5 -52.5v-518h-196v532z" />
    <glyph glyph-name="t" unicode="t" horiz-adv-x="440" 
d="M433 26q-24 -16 -65 -26t-80 -10q-100 0 -150 40t-50 130v201h-81v139h81v109l202 56v-165h137v-139h-137v-169q0 -35 15.5 -50t47.5 -15q38 0 67 17z" />
    <glyph glyph-name="tcaron" unicode="&#x165;" horiz-adv-x="440" 
d="M501 767l-57 -223h-113l22 223h148zM420 144l13 -118q-24 -16 -65 -26t-80 -10q-100 0 -150 40t-50 130v201h-81v139h81v109l202 56v-165h137v-139h-137v-169q0 -35 15.5 -50t47.5 -15q38 0 67 17z" />
    <glyph glyph-name="u" unicode="u" horiz-adv-x="620" 
d="M571 500v-500h-182l-5 99q-45 -109 -171 -109q-166 0 -166 174v336h202v-286q0 -40 12.5 -56.5t39.5 -16.5q32 0 50 24t18 72v263h202z" />
    <glyph glyph-name="uacute" unicode="&#xfa;" horiz-adv-x="620" 
d="M571 500v-500h-182l-5 99q-45 -109 -171 -109q-166 0 -166 174v336h202v-286q0 -40 12.5 -56.5t39.5 -16.5q32 0 50 24t18 72v263h202zM465 734l-102 -175h-144l63 175h183z" />
    <glyph glyph-name="ucircumflex" unicode="&#xfb;" horiz-adv-x="620" 
d="M571 500v-500h-182l-5 99q-45 -109 -171 -109q-166 0 -166 174v336h202v-286q0 -40 12.5 -56.5t39.5 -16.5q32 0 50 24t18 72v263h202zM367 552l-62 79l-62 -79h-141l107 176h192l107 -176h-141z" />
    <glyph glyph-name="udieresis" unicode="&#xfc;" horiz-adv-x="620" 
d="M571 500v-500h-182l-5 99q-45 -109 -171 -109q-166 0 -166 174v336h202v-286q0 -40 12.5 -56.5t39.5 -16.5q32 0 50 24t18 72v263h202zM260 693.5q25 -22.5 25 -62.5q0 -41 -25 -63t-71 -22q-44 0 -69 22.5t-25 62.5t25 62.5t69 22.5q46 0 71 -22.5zM489 693.5
q25 -22.5 25 -62.5q0 -41 -25 -63t-71 -22q-44 0 -69 22.5t-25 62.5t25 62.5t69 22.5q46 0 71 -22.5z" />
    <glyph glyph-name="ugrave" unicode="&#xf9;" horiz-adv-x="620" 
d="M571 500v-500h-182l-5 99q-45 -109 -171 -109q-166 0 -166 174v336h202v-286q0 -40 12.5 -56.5t39.5 -16.5q32 0 50 24t18 72v263h202zM380 559h-144l-102 175h183z" />
    <glyph glyph-name="uhungarumlaut" unicode="&#x171;" horiz-adv-x="620" 
d="M571 500v-500h-182l-5 99q-45 -109 -171 -109q-166 0 -166 174v336h202v-286q0 -40 12.5 -56.5t39.5 -16.5q32 0 50 24t18 72v263h202zM250 559h-136l67 175h163zM475 559h-137l67 175h164z" />
    <glyph glyph-name="umacron" unicode="&#x16b;" horiz-adv-x="620" 
d="M571 500v-500h-182l-5 99q-45 -109 -171 -109q-166 0 -166 174v336h202v-286q0 -40 12.5 -56.5t39.5 -16.5q32 0 50 24t18 72v263h202zM495 559h-380v119h380v-119z" />
    <glyph glyph-name="uni0123" unicode="&#x123;" horiz-adv-x="569" 
d="M359 554h-161l71 216h124zM523.5 87q49.5 -40 49.5 -120q0 -90 -77 -136t-216 -46q-265 0 -265 112q0 33 23 57.5t73 35.5q-82 33 -82 109q0 35 22.5 62t60.5 42q-83 42 -83 136q0 84 66 127.5t192 43.5q53 0 99 -8q8 63 43.5 105.5t100.5 42.5q13 0 20 -1l19 -129
q-18 3 -33 3q-30 0 -51.5 -12t-31.5 -30q92 -43 92 -142q0 -83 -66 -126t-192 -43q-59 0 -105 9q-21 -6 -21 -24q0 -28 47 -28h172q94 0 143.5 -40zM245.5 384.5q-15.5 -16.5 -15.5 -44.5t15.5 -44.5t41.5 -16.5t41.5 16.5t15.5 44.5t-15.5 44.5t-41.5 16.5t-41.5 -16.5z
M418 -53q0 23 -48 23h-138q-38 0 -53 -6t-15 -20q0 -17 30.5 -25t98.5 -8q125 0 125 36z" />
    <glyph glyph-name="uni0137" unicode="&#x137;" horiz-adv-x="641" 
d="M323 189l-72 -84v-105h-202v706h202v-399l167 193h220l-181 -196l192 -304h-222zM355 -242h-128l28 187h173z" />
    <glyph glyph-name="uni013C" unicode="&#x13c;" horiz-adv-x="334" 
d="M250 187q0 -32 10 -46t34 -14q22 0 43 7l-11 -115q-18 -13 -50.5 -21t-64.5 -8q-87 0 -125 39t-38 128v549h202v-519zM204 -242h-128l28 187h173z" />
    <glyph glyph-name="uni0146" unicode="&#x146;" horiz-adv-x="620" 
d="M528.5 465q43.5 -45 43.5 -127v-338h-202v284q0 41 -13 58t-38 17q-32 0 -50 -23.5t-18 -72.5v-263h-202v500h182l5 -103q22 55 66 84t106 29q77 0 120.5 -45zM332 -242h-128l28 187h173z" />
    <glyph glyph-name="uni0157" unicode="&#x157;" horiz-adv-x="437" 
d="M438 498l-19 -167q-9 7 -26 11t-37 4q-47 0 -76 -25.5t-29 -74.5v-246h-202v500h181l6 -117q18 61 55 94t94 33q35 0 53 -12zM166 -242h-128l28 187h173z" />
    <glyph glyph-name="uni015F" unicode="&#x15f;" horiz-adv-x="535" 
d="M477.5 58q-40.5 -44 -120.5 -60q51 -36 51 -91q0 -62 -42 -92t-111 -30q-47 0 -77.5 11t-51.5 31l42 88q29 -29 73 -29q25 0 40 12.5t15 34.5q0 19 -13.5 33t-47.5 25q-75 3 -129.5 22.5t-91.5 57.5l95 110q26 -31 64 -47.5t84 -16.5q26 0 42 6t16 18q0 11 -18 19.5
t-64 18.5q-110 21 -158.5 60t-48.5 101q0 43 28.5 82t86 63.5t142.5 24.5q163 0 235 -83l-91 -99q-47 55 -136 55q-31 0 -47 -7.5t-16 -19.5q0 -10 17.5 -17.5t58.5 -14.5q113 -17 163.5 -55.5t50.5 -106.5q0 -60 -40.5 -104z" />
    <glyph glyph-name="uni0163" unicode="&#x163;" horiz-adv-x="444" 
d="M391 -93q0 -62 -42 -92t-110 -30q-48 0 -78.5 11t-51.5 31l43 88q27 -29 69 -29q27 0 42.5 12.5t15.5 35.5q0 22 -14.5 36.5t-49.5 25.5q-63 13 -95 52.5t-32 111.5v201h-81v139h81v109l202 56v-165h137v-139h-137v-169q0 -35 15.5 -50t47.5 -15q38 0 67 17l13 -118
q-33 -21 -90 -31q48 -36 48 -88z" />
    <glyph glyph-name="uni0219" unicode="&#x219;" horiz-adv-x="535" 
d="M117.5 9q-62.5 19 -103.5 62l95 110q26 -31 64 -47.5t84 -16.5q26 0 42 6t16 18q0 11 -18 19.5t-64 18.5q-110 21 -158.5 60t-48.5 101q0 43 28.5 82t86 63.5t142.5 24.5q163 0 235 -83l-91 -99q-47 55 -136 55q-31 0 -47 -7.5t-16 -19.5q0 -10 17.5 -17.5t58.5 -14.5
q113 -17 163.5 -55.5t50.5 -106.5q0 -75 -63 -123.5t-186 -48.5q-89 0 -151.5 19zM296 -242h-128l28 187h173z" />
    <glyph glyph-name="uni021B" unicode="&#x21b;" horiz-adv-x="440" 
d="M433 26q-24 -16 -65 -26t-80 -10q-100 0 -150 40t-50 130v201h-81v139h81v109l202 56v-165h137v-139h-137v-169q0 -35 15.5 -50t47.5 -15q38 0 67 17zM274 -242h-128l28 187h173z" />
    <glyph glyph-name="uogonek" unicode="&#x173;" horiz-adv-x="620" 
d="M575 -190q-21 -14 -48 -19.5t-63 -5.5q-64 0 -103.5 29t-39.5 85q0 35 18 61t51 42l-6 101q-23 -56 -67 -84.5t-104 -28.5q-166 0 -166 174v336h202v-286q0 -40 12.5 -56.5t39.5 -16.5q31 0 49.5 25t18.5 72v262h202v-500q-54 -6 -83.5 -24t-29.5 -42q0 -19 13 -29.5
t36 -10.5q29 0 43 9z" />
    <glyph glyph-name="uring" unicode="&#x16f;" horiz-adv-x="620" 
d="M571 500v-500h-182l-5 99q-45 -109 -171 -109q-166 0 -166 174v336h202v-286q0 -40 12.5 -56.5t39.5 -16.5q32 0 50 24t18 72v263h202zM408 754.5q36 -32.5 36 -89.5q0 -58 -36 -90.5t-102 -32.5q-65 0 -101.5 32.5t-36.5 90.5q0 57 36.5 89.5t101.5 32.5q66 0 102 -32.5
zM273 697.5q-12 -11.5 -12 -32.5t12 -33t33 -12t33.5 12t12.5 33t-12.5 32.5t-33.5 11.5t-33 -11.5z" />
    <glyph glyph-name="v" unicode="v" horiz-adv-x="575" 
d="M581 500l-170 -500h-247l-170 500h211l83 -375l84 375h209z" />
    <glyph glyph-name="w" unicode="w" horiz-adv-x="926" 
d="M926 500l-143 -500h-247l-74 284l-72 -284h-247l-143 500h210l69 -361l85 361h198l85 -361l69 361h210z" />
    <glyph glyph-name="x" unicode="x" horiz-adv-x="609" 
d="M387 0l-85 164l-84 -164h-222l177 254l-171 246h225l79 -156l81 156h221l-171 -249l175 -251h-225z" />
    <glyph glyph-name="y" unicode="y" horiz-adv-x="583" 
d="M425 30q-31 -91 -68 -144t-88 -77t-124 -24q-90 0 -146 35l39 130q16 -11 35.5 -16t52.5 -5q31 0 48 8t25 29l7 19l-61 142l-146 373h222l60 -271l21 -111l24 114l63 268h199z" />
    <glyph glyph-name="yacute" unicode="&#xfd;" horiz-adv-x="583" 
d="M425 30q-31 -91 -68 -144t-88 -77t-124 -24q-90 0 -146 35l39 130q16 -11 35.5 -16t52.5 -5q31 0 48 8t25 29l7 19l-61 142l-146 373h222l60 -271l21 -111l24 114l63 268h199zM474 734l-102 -175h-144l63 175h183z" />
    <glyph glyph-name="ydieresis" unicode="&#xff;" horiz-adv-x="583" 
d="M425 30q-31 -91 -68 -144t-88 -77t-124 -24q-90 0 -146 35l39 130q16 -11 35.5 -16t52.5 -5q31 0 48 8t25 29l7 19l-61 142l-146 373h222l60 -271l21 -111l24 114l63 268h199zM269 693.5q25 -22.5 25 -62.5q0 -41 -25 -63t-71 -22q-44 0 -69 22.5t-25 62.5t25 62.5
t69 22.5q46 0 71 -22.5zM498 693.5q25 -22.5 25 -62.5q0 -41 -25 -63t-71 -22q-44 0 -69 22.5t-25 62.5t25 62.5t69 22.5q46 0 71 -22.5z" />
    <glyph glyph-name="z" unicode="z" horiz-adv-x="508" 
d="M29 119l175 197l50 49l-76 -2h-149v137h449v-119l-174 -195l-51 -51l85 2h149v-137h-458v119z" />
    <glyph glyph-name="zacute" unicode="&#x17a;" horiz-adv-x="508" 
d="M29 119l175 197l50 49l-76 -2h-149v137h449v-119l-174 -195l-51 -51l85 2h149v-137h-458v119zM412 734l-102 -175h-144l63 175h183z" />
    <glyph glyph-name="zcaron" unicode="&#x17e;" horiz-adv-x="508" 
d="M29 119l175 197l50 49l-76 -2h-149v137h449v-119l-174 -195l-51 -51l85 2h149v-137h-458v119zM343 559h-192l-107 175h141l62 -79l62 79h141z" />
    <glyph glyph-name="zdotaccent" unicode="&#x17c;" horiz-adv-x="508" 
d="M29 119l175 197l50 49l-76 -2h-149v137h449v-119l-174 -195l-51 -51l85 2h149v-137h-458v119zM330.5 701.5q26.5 -22.5 26.5 -65.5t-26.5 -65t-78.5 -22q-102 0 -102 87q0 88 102 88q52 0 78.5 -22.5z" />
    <glyph glyph-name="germandbls.calt" horiz-adv-x="729" 
d="M665 309q47 -42 47 -121q0 -94 -60 -143.5t-158 -49.5q-71 0 -115.5 14t-72.5 42l50 115q19 -16 40 -23t53 -7q34 0 54 16t20 44q0 29 -21 43.5t-60 14.5h-92v107l137 150h-96q-60 0 -93 -35t-33 -99v-377h-204v410q0 117 77 183.5t212 66.5h326v-146l-139 -155
q81 -8 128 -50z" />
    <glyph glyph-name="longs.component" horiz-adv-x="299" 
d="M48 532q0 100 51.5 145.5t141.5 45.5q43 0 73 -16l-7 -127q-8 7 -27 7q-36 0 -36 -51v-536h-196v532z" />
    <glyph glyph-name="iacute_j.loclNLD" horiz-adv-x="599" 
d="M312 734l-102 -175h-144l63 175h183zM620 734l-102 -175h-144l63 175h183zM251 0h-202v500h202v-500zM551 -20q0 -103 -51 -149t-157 -46q-87 0 -142 31l26 123q9 -8 24.5 -12.5t32.5 -4.5q32 0 48.5 18t16.5 58v502h202v-520z" />
    <glyph glyph-name="g.ss01" horiz-adv-x="628" 
d="M578 500v-460q0 -136 -76 -195.5t-213 -59.5q-105 0 -167.5 34t-75.5 120l194 47q1 -81 67 -81q33 0 51 22t18 65v102q-24 -36 -61 -55.5t-85 -19.5q-94 0 -146 63.5t-52 179.5q0 118 52.5 183t146.5 65q64 0 104.5 -34.5t56.5 -94.5l5 119h181zM358 187q18 24 18 73v8
q0 97 -69 97q-35 0 -53 -23.5t-18 -77.5t18 -77.5t53 -23.5q33 0 51 24z" />
    <glyph glyph-name="gbreve.ss01" horiz-adv-x="628" 
d="M578 500v-460q0 -136 -76 -195.5t-213 -59.5q-105 0 -167.5 34t-75.5 120l194 47q1 -81 67 -81q33 0 51 22t18 65v102q-24 -36 -61 -55.5t-85 -19.5q-94 0 -146 63.5t-52 179.5q0 118 52.5 183t146.5 65q64 0 104.5 -34.5t56.5 -94.5l5 119h181zM358 187q18 24 18 73v8
q0 97 -69 97q-35 0 -53 -23.5t-18 -77.5t18 -77.5t53 -23.5q33 0 51 24zM447.5 591.5q-46.5 -44.5 -129.5 -44.5t-129.5 44.5t-46.5 123.5h125q0 -29 13 -45t38 -16t38 16t13 45h125q0 -79 -46.5 -123.5z" />
    <glyph glyph-name="gcommaaccent.ss01" horiz-adv-x="628" 
d="M405 554h-161l71 216h124zM578 500v-460q0 -136 -76 -195.5t-213 -59.5q-105 0 -167.5 34t-75.5 120l194 47q1 -81 67 -81q33 0 51 22t18 65v102q-24 -36 -61 -55.5t-85 -19.5q-94 0 -146 63.5t-52 179.5q0 118 52.5 183t146.5 65q64 0 104.5 -34.5t56.5 -94.5l5 119h181
zM358 187q18 24 18 73v8q0 97 -69 97q-35 0 -53 -23.5t-18 -77.5t18 -77.5t53 -23.5q33 0 51 24z" />
    <glyph glyph-name="l.ss02" horiz-adv-x="301" 
d="M251 0h-202v706h202v-706z" />
    <glyph glyph-name="lacute.ss02" horiz-adv-x="301" 
d="M291 916l-86 -160h-143l54 160h175zM251 0h-202v706h202v-706z" />
    <glyph glyph-name="lcaron.ss02" horiz-adv-x="410" 
d="M399 452h-113l22 254h148zM251 0h-202v706h202v-706z" />
    <glyph glyph-name="lcommaaccent.ss02" horiz-adv-x="301" 
d="M251 0h-202v706h202v-706zM163 -242h-128l28 187h173z" />
    <glyph glyph-name="ldot.ss02" horiz-adv-x="534" 
d="M251 0h-202v706h202v-706zM500.5 425.5q29.5 -26.5 29.5 -72.5q0 -47 -29.5 -73.5t-82.5 -26.5t-83 26.5t-30 73.5t30 73t83 26t82.5 -26.5z" />
    <glyph glyph-name="lslash.ss02" horiz-adv-x="360" 
d="M353 373l-72 -38v-335h-202v215l-74 -48v132l74 37v370h202v-249l72 48v-132z" />
    <glyph glyph-name="n.swsh" horiz-adv-x="660" 
d="M664 37l-13 -116q-33 -15 -56 -21t-59 -6q-74 0 -120 36.5t-46 109.5v244q0 41 -13 58t-38 17q-32 0 -50 -23.5t-18 -72.5v-263h-202v500h182l5 -103q22 55 66 84t106 29q77 0 120.5 -45t43.5 -127v-268q0 -43 43 -43q29 0 49 10z" />
    <glyph glyph-name="nacute.swsh" horiz-adv-x="660" 
d="M664 37l-13 -116q-33 -15 -56 -21t-59 -6q-74 0 -120 36.5t-46 109.5v244q0 41 -13 58t-38 17q-32 0 -50 -23.5t-18 -72.5v-263h-202v500h182l5 -103q22 55 66 84t106 29q77 0 120.5 -45t43.5 -127v-268q0 -43 43 -43q29 0 49 10zM471 734l-102 -175h-144l63 175h183z
" />
    <glyph glyph-name="ncaron.swsh" horiz-adv-x="660" 
d="M664 37l-13 -116q-33 -15 -56 -21t-59 -6q-74 0 -120 36.5t-46 109.5v244q0 41 -13 58t-38 17q-32 0 -50 -23.5t-18 -72.5v-263h-202v500h182l5 -103q22 55 66 84t106 29q77 0 120.5 -45t43.5 -127v-268q0 -43 43 -43q29 0 49 10zM402 559h-192l-107 175h141l62 -79
l62 79h141z" />
    <glyph glyph-name="ncommaaccent.swsh" horiz-adv-x="660" 
d="M664 37l-13 -116q-33 -15 -56 -21t-59 -6q-74 0 -120 36.5t-46 109.5v244q0 41 -13 58t-38 17q-32 0 -50 -23.5t-18 -72.5v-263h-202v500h182l5 -103q22 55 66 84t106 29q77 0 120.5 -45t43.5 -127v-268q0 -43 43 -43q29 0 49 10zM292 -242h-128l28 187h173z" />
    <glyph glyph-name="ntilde.swsh" horiz-adv-x="660" 
d="M664 37l-13 -116q-33 -15 -56 -21t-59 -6q-74 0 -120 36.5t-46 109.5v244q0 41 -13 58t-38 17q-32 0 -50 -23.5t-18 -72.5v-263h-202v500h182l5 -103q22 55 66 84t106 29q77 0 120.5 -45t43.5 -127v-268q0 -43 43 -43q29 0 49 10zM476.5 592q-35.5 -42 -101.5 -42
q-30 0 -48.5 9t-39.5 25q-12 10 -20.5 15t-19.5 5q-15 0 -23 -12.5t-11 -39.5h-108q6 168 140 168q30 0 49.5 -9t39.5 -25q13 -10 21 -14.5t18 -4.5q15 0 23 12.5t11 39.5h108q-3 -85 -38.5 -127z" />
    <glyph glyph-name="r.swsh" horiz-adv-x="648" 
d="M470 499q28 -11 63 -33q30 -19 55 -30.5t62 -16.5l-91 -143q-29 5 -51 15t-50 27q-30 17 -48 24t-41 7q-59 0 -88.5 -35.5t-29.5 -84.5v-229h-202v500h181l6 -120q38 130 162 130q44 0 72 -11z" />
    <glyph glyph-name="racute.swsh" horiz-adv-x="648" 
d="M470 499q28 -11 63 -33q30 -19 55 -30.5t62 -16.5l-91 -143q-29 5 -51 15t-50 27q-30 17 -48 24t-41 7q-59 0 -88.5 -35.5t-29.5 -84.5v-229h-202v500h181l6 -120q38 130 162 130q44 0 72 -11zM447 734l-102 -175h-144l63 175h183z" />
    <glyph glyph-name="rcaron.swsh" horiz-adv-x="648" 
d="M470 499q28 -11 63 -33q30 -19 55 -30.5t62 -16.5l-91 -143q-29 5 -51 15t-50 27q-30 17 -48 24t-41 7q-59 0 -88.5 -35.5t-29.5 -84.5v-229h-202v500h181l6 -120q38 130 162 130q44 0 72 -11zM378 559h-192l-107 175h141l62 -79l62 79h141z" />
    <glyph glyph-name="rcommaaccent.swsh" horiz-adv-x="648" 
d="M470 499q28 -11 63 -33q30 -19 55 -30.5t62 -16.5l-91 -143q-29 5 -51 15t-50 27q-30 17 -48 24t-41 7q-59 0 -88.5 -35.5t-29.5 -84.5v-229h-202v500h181l6 -120q38 130 162 130q44 0 72 -11zM166 -242h-128l28 187h173z" />
    <glyph glyph-name="t.swsh" horiz-adv-x="541" 
d="M290 361v-169q0 -35 15.5 -50t47.5 -15q38 0 67 17l13 -118q-24 -16 -65 -26t-80 -10q-100 0 -150 40t-50 130v201h-81v139h81v109l202 56v-165h131q54 0 89 9.5t68 35.5l58 -111q-35 -39 -85.5 -56t-121.5 -17h-139z" />
    <glyph glyph-name="tcaron.swsh" horiz-adv-x="541" 
d="M444 544h-113l22 223h148zM290 361v-169q0 -35 15.5 -50t47.5 -15q38 0 67 17l13 -118q-24 -16 -65 -26t-80 -10q-100 0 -150 40t-50 130v201h-81v139h81v109l202 56v-165h131q54 0 89 9.5t68 35.5l58 -111q-35 -39 -85.5 -56t-121.5 -17h-139z" />
    <glyph glyph-name="uni0163.swsh" horiz-adv-x="585" 
d="M290 361v-169q0 -35 15.5 -50t47.5 -15q38 0 67 17l13 -118q-25 -16 -62 -25q56 -38 56 -94q0 -62 -42 -92t-110 -30q-48 0 -78.5 11t-51.5 31l43 88q27 -29 69 -29q27 0 42.5 12.5t15.5 35.5q0 20 -10.5 33t-36.5 23q-89 4 -134.5 44.5t-45.5 125.5v201h-81v139h81v109
l202 56v-165h131q54 0 89 9.5t68 35.5l58 -111q-35 -39 -85.5 -56t-121.5 -17h-139z" />
    <glyph glyph-name="uni021B.swsh" horiz-adv-x="541" 
d="M290 361v-169q0 -35 15.5 -50t47.5 -15q38 0 67 17l13 -118q-24 -16 -65 -26t-80 -10q-100 0 -150 40t-50 130v201h-81v139h81v109l202 56v-165h131q54 0 89 9.5t68 35.5l58 -111q-35 -39 -85.5 -56t-121.5 -17h-139zM274 -242h-128l28 187h173z" />
    <glyph glyph-name="y.swsh" horiz-adv-x="638" 
d="M-1 -180l39 130q16 -11 35.5 -16t52.5 -5q31 0 48 8t25 29l7 19l-61 142l-146 373h222l60 -271l21 -111l24 114l56 201q20 79 71.5 118t126.5 39q43 0 70.5 -9t53.5 -32l-36 -125q-12 7 -22.5 10.5t-28.5 3.5q-32 0 -51 -16.5t-31 -55.5l-110 -336q-28 -91 -65.5 -144.5
t-89 -77t-125.5 -23.5q-90 0 -146 35z" />
    <glyph glyph-name="yacute.swsh" horiz-adv-x="638" 
d="M-1 -180l39 130q16 -11 35.5 -16t52.5 -5q31 0 48 8t25 29l7 19l-61 142l-146 373h222l60 -271l21 -111l24 114l56 201q20 79 71.5 118t126.5 39q43 0 70.5 -9t53.5 -32l-36 -125q-12 7 -22.5 10.5t-28.5 3.5q-32 0 -51 -16.5t-31 -55.5l-110 -336q-28 -91 -65.5 -144.5
t-89 -77t-125.5 -23.5q-90 0 -146 35zM474 734l-102 -175h-144l63 175h183z" />
    <glyph glyph-name="ydieresis.swsh" horiz-adv-x="638" 
d="M650.5 581q27.5 -9 53.5 -32l-36 -125q-12 7 -22.5 10.5t-28.5 3.5q-32 0 -51 -16.5t-31 -55.5l-110 -336q-28 -91 -65.5 -144.5t-89 -77t-125.5 -23.5q-90 0 -146 35l39 130q16 -11 35.5 -16t52.5 -5q31 0 48 8t25 29l7 19l-61 142l-146 373h222l60 -271l21 -111l24 114
l56 201q19 75 67 115q-14 -2 -22 -2q-44 0 -69 22.5t-25 62.5t25 62.5t69 22.5q46 0 71 -22.5t25 -62.5q0 -31 -15 -52q35 11 72 11q43 0 70.5 -9zM129 568.5q-25 22.5 -25 62.5t25 62.5t69 22.5q46 0 71 -22.5t25 -62.5q0 -41 -25 -63t-71 -22q-44 0 -69 22.5z" />
    <glyph glyph-name="c_t" horiz-adv-x="967" 
d="M960 26q-24 -16 -65 -26t-80 -10q-100 0 -150 40t-50 130v341q0 43 -15.5 62.5t-39.5 19.5q-52 0 -52 -75q0 -61 43 -161l-186 -57q-4 81 -57 81q-40 0 -58.5 -28.5t-18.5 -94.5t19.5 -92.5t56.5 -26.5q52 0 63 73l181 -57q-3 -43 -32.5 -78.5t-83 -56t-127.5 -20.5
q-136 0 -208 67.5t-72 192.5q0 124 71 192t199 68q35 0 74 -8q-9 23 -9 49q0 80 58.5 125.5t157.5 45.5q60 0 114 -20t89 -63t35 -109v-30h137v-139h-137v-169q0 -35 15.5 -50t47.5 -15q38 0 67 17z" />
    <glyph glyph-name="s_t" horiz-adv-x="936" 
d="M929 26q-24 -16 -65 -26t-80 -10q-99 0 -149.5 40t-50.5 130v332q0 43 -17 63t-42 20q-24 0 -37 -14t-13 -40q0 -27 8.5 -48t32.5 -45l-91 -98q-41 55 -133 55q-32 0 -48 -8.5t-16 -20.5q0 -11 17 -18t66 -15q109 -18 158 -54t49 -105q0 -49 -27 -88t-82.5 -62.5
t-138.5 -23.5q-89 0 -152 19.5t-104 61.5l94 108q26 -29 65 -46.5t84 -17.5q26 0 42.5 7t16.5 19q0 13 -19.5 22.5t-66.5 18.5q-107 20 -155.5 58.5t-48.5 99.5q0 43 28.5 82t86 63.5t142.5 24.5q26 0 59 -4q-13 21 -13 45q0 81 64.5 126t163.5 45q104 0 166.5 -47.5
t62.5 -152.5v-22h137v-139h-137v-169q0 -35 15.5 -50t47.5 -15q38 0 67 17z" />
    <glyph glyph-name="longs_i" horiz-adv-x="599" 
d="M48 532q0 100 51.5 145.5t141.5 45.5q43 0 73 -16l-7 -127q-8 7 -27 7q-36 0 -36 -51v-536h-196v532zM362 565q-26 21 -26 68q0 48 26 69t87 21t87 -21t26 -69q0 -47 -26 -68t-87 -21t-87 21zM550 0h-202v500h202v-500z" />
    <glyph glyph-name="longs_l" horiz-adv-x="683" 
d="M48 532q0 98 59.5 144.5t151.5 46.5q37 0 61 -6t43 -20l-8 -121q-9 6 -18.5 8.5t-23.5 2.5q-32 0 -50.5 -16.5t-18.5 -52.5v-518h-196v532zM599 187q0 -32 9.5 -46t33.5 -14q23 0 43 7l-10 -115q-18 -13 -50.5 -21t-64.5 -8q-87 0 -125 39t-38 128v549h202v-519z" />
    <glyph glyph-name="longs_s" horiz-adv-x="833" 
d="M48 532q0 98 59.5 144.5t151.5 46.5q37 0 61 -6t43 -20l-8 -121q-9 6 -18.5 8.5t-23.5 2.5q-32 0 -50.5 -16.5t-18.5 -52.5v-518h-196v532zM415.5 9q-62.5 19 -103.5 62l95 110q26 -31 64 -47.5t84 -16.5q26 0 42 6t16 18q0 11 -18 19.5t-64 18.5q-110 21 -158.5 60
t-48.5 101q0 43 28.5 82t86 63.5t142.5 24.5q163 0 235 -83l-91 -99q-47 55 -136 55q-31 0 -47 -7.5t-16 -19.5q0 -10 17.5 -17.5t58.5 -14.5q113 -17 163.5 -55.5t50.5 -106.5q0 -75 -63 -123.5t-186 -48.5q-89 0 -151.5 19z" />
    <glyph glyph-name="g.ss01_j" horiz-adv-x="922" 
d="M691 565q-26 21 -26 68q0 48 26 69t86 21q61 0 87.5 -21t26.5 -69q0 -47 -26.5 -68t-87.5 -21q-60 0 -86 21zM502 -155.5q-76 -59.5 -213 -59.5q-105 0 -167.5 34t-75.5 120l194 47q1 -81 67 -81q33 0 51 22t18 65v102q-24 -36 -61 -55.5t-85 -19.5q-94 0 -146 63.5
t-52 179.5q0 118 52.5 183t146.5 65q64 0 104.5 -34.5t56.5 -94.5l5 119h181v-460q0 -136 -76 -195.5zM677 500h202v-528q0 -107 -59 -147t-154 -40q-27 0 -47.5 4t-43.5 14l27 137q14 -14 39 -14q36 0 36 55v519zM358 187q18 24 18 73v8q0 97 -69 97q-35 0 -53 -23.5
t-18 -77.5t18 -77.5t53 -23.5q33 0 51 24z" />
    <glyph glyph-name="fl.ss02" horiz-adv-x="724" 
d="M271 500h146v-139h-133v-361h-202v361h-74v139h74v32q0 98 61 144.5t155 46.5q42 0 74.5 -8t50.5 -23l-16 -121q-20 16 -57 16q-39 0 -59 -15.5t-20 -50.5v-21zM674 0h-202v706h202v-706z" />
    <glyph glyph-name="longs_l.ss02" horiz-adv-x="648" 
d="M48 532q0 98 59.5 144.5t151.5 46.5q37 0 61 -6t43 -20l-8 -121q-9 6 -18.5 8.5t-23.5 2.5q-32 0 -50.5 -16.5t-18.5 -52.5v-518h-196v532zM599 0h-202v706h202v-706z" />
    <glyph glyph-name="Gcommaaccent.sc" horiz-adv-x="639" 
d="M331 307h264v-307h-124l-7 85q-47 -93 -161 -93q-81 0 -142 33.5t-95 98.5t-34 156q0 137 80 212.5t223 75.5q102 0 172 -44.5t92 -126.5l-173 -48q-9 41 -30.5 57.5t-54.5 16.5q-50 0 -78.5 -36t-28.5 -107q0 -76 28.5 -112.5t88.5 -36.5q39 0 59.5 19.5t21.5 52.5v1
h-101v103zM360 -242h-128l28 187h173z" />
    <glyph glyph-name="Kcommaaccent.sc" horiz-adv-x="679" 
d="M328 206l-65 -73v-133h-202v560h202v-225l196 225h212l-205 -234l212 -326h-226zM374 -242h-128l28 187h173z" />
    <glyph glyph-name="Lcommaaccent.sc" horiz-adv-x="577" 
d="M541 150v-150h-480v560h202v-410h278zM339 -242h-128l28 187h173z" />
    <glyph glyph-name="Ncommaaccent.sc" horiz-adv-x="701" 
d="M640 0h-221l-136 259l-42 89h-2l6 -144v-204h-184v560h221l135 -257l43 -91h2l-6 144v204h184v-560zM373 -242h-128l28 187h173z" />
    <glyph glyph-name="Rcommaaccent.sc" horiz-adv-x="633" 
d="M323 182h-64v-182h-198v560h302q114 0 176.5 -49t62.5 -141q0 -59 -27.5 -100.5t-79.5 -64.5l132 -205h-215zM259 301h75q34 0 52.5 16t18.5 46t-18.5 46t-52.5 16h-75v-124zM358 -242h-128l28 187h173z" />
    <glyph glyph-name="Scedilla.sc" horiz-adv-x="580" 
d="M252 368q23 -7 73 -14q69 -9 115.5 -22.5t81.5 -49t35 -100.5q0 -70 -46 -116.5t-128 -64.5q56 -36 56 -94q0 -62 -42 -92t-111 -30q-47 0 -77.5 11t-51.5 31l42 88q29 -29 73 -29q25 0 40 12.5t15 34.5q0 20 -15 34.5t-52 24.5q-76 3 -133.5 21t-107.5 56l78 132
q47 -38 88.5 -52.5t100.5 -14.5q68 0 68 31q0 17 -22 23.5t-73 13.5q-69 9 -116 22t-82 49t-35 103q0 89 72.5 140.5t195.5 51.5q92 0 150 -18.5t115 -61.5l-81 -130q-50 40 -87.5 54.5t-94.5 14.5q-33 0 -50 -10t-17 -26t23 -23z" />
    <glyph glyph-name="Scommaaccent.sc" horiz-adv-x="580" 
d="M444 549.5q58 -18.5 115 -61.5l-81 -130q-50 40 -87.5 54.5t-94.5 14.5q-33 0 -50 -10t-17 -26t23 -23t73 -14q69 -9 115.5 -22.5t81.5 -49t35 -100.5q0 -89 -72.5 -139.5t-195.5 -50.5q-88 0 -151.5 18t-118.5 59l78 132q47 -38 88.5 -52.5t100.5 -14.5q68 0 68 31
q0 17 -22 23.5t-73 13.5q-69 9 -116 22t-82 49t-35 103q0 89 72.5 140.5t195.5 51.5q92 0 150 -18.5zM333 -242h-128l28 187h173z" />
    <glyph glyph-name="uni0162.sc" horiz-adv-x="627" 
d="M414 410v-408q40 -31 40 -90q0 -65 -42 -96t-111 -31q-87 0 -134 43l51 92q13 -16 28 -23.5t39 -7.5t40 13t16 38q0 49 -75 60h-53v410h-185v150h572v-150h-186z" />
    <glyph glyph-name="uni021A.sc" horiz-adv-x="627" 
d="M600 410h-186v-410h-201v410h-185v150h572v-150zM326 -242h-128l28 187h173z" />
    <glyph glyph-name="a.sc" horiz-adv-x="641" 
d="M411 103h-189l-32 -103h-189l199 560h242l198 -560h-198zM314 417l-53 -184h111l-54 184h-4z" />
    <glyph glyph-name="aacute.sc" horiz-adv-x="641" 
d="M383 615h-144l53 164h185zM411 103h-189l-32 -103h-189l199 560h242l198 -560h-198zM314 417l-53 -184h111l-54 184h-4z" />
    <glyph glyph-name="abreve.sc" horiz-adv-x="641" 
d="M411 103h-189l-32 -103h-189l199 560h242l198 -560h-198zM314 417l-53 -184h111l-54 184h-4zM450.5 651.5q-46.5 -44.5 -129.5 -44.5t-129.5 44.5t-46.5 123.5h125q0 -29 13 -45t38 -16t38 16t13 45h125q0 -79 -46.5 -123.5z" />
    <glyph glyph-name="acircumflex.sc" horiz-adv-x="641" 
d="M261 614h-145l110 167h190l110 -167h-145l-60 77zM411 103h-189l-32 -103h-189l199 560h242l198 -560h-198zM314 417l-53 -184h111l-54 184h-4z" />
    <glyph glyph-name="adieresis.sc" horiz-adv-x="641" 
d="M411 103h-189l-32 -103h-189l199 560h242l198 -560h-198zM314 417l-53 -184h111l-54 184h-4zM276 753.5q25 -22.5 25 -62.5q0 -41 -25 -63t-71 -22q-44 0 -69 22.5t-25 62.5t25 62.5t69 22.5q46 0 71 -22.5zM505 753.5q25 -22.5 25 -62.5q0 -41 -25 -63t-71 -22
q-44 0 -69 22.5t-25 62.5t25 62.5t69 22.5q46 0 71 -22.5z" />
    <glyph glyph-name="agrave.sc" horiz-adv-x="641" 
d="M241 615l-94 164h185l53 -164h-144zM411 103h-189l-32 -103h-189l199 560h242l198 -560h-198zM314 417l-53 -184h111l-54 184h-4z" />
    <glyph glyph-name="amacron.sc" horiz-adv-x="641" 
d="M411 103h-189l-32 -103h-189l199 560h242l198 -560h-198zM314 417l-53 -184h111l-54 184h-4zM511 619h-380v119h380v-119z" />
    <glyph glyph-name="aogonek.sc" horiz-adv-x="641" 
d="M645 -190q-22 -14 -48.5 -19.5t-62.5 -5.5q-65 0 -105.5 29.5t-40.5 86.5q0 64 60 99h-6l-31 103h-189l-32 -103h-189l199 560h242l198 -560q-63 -7 -89 -23t-26 -42q0 -20 13.5 -30.5t38.5 -10.5q29 0 43 9zM314 417l-53 -184h111l-54 184h-4z" />
    <glyph glyph-name="aring.sc" horiz-adv-x="641" 
d="M411 103h-187l-32 -103h-191l199 542q-38 32 -38 89q0 61 42.5 97t116.5 36t116 -36t42 -97q0 -54 -38 -87l199 -544h-196zM281.5 661q-14.5 -14 -14.5 -38q0 -23 14.5 -37t39.5 -14t39.5 14t14.5 37q0 24 -14.5 38t-39.5 14t-39.5 -14zM321 409h-4l-54 -176h108z" />
    <glyph glyph-name="atilde.sc" horiz-adv-x="641" 
d="M411 103h-189l-32 -103h-189l199 560h242l198 -560h-198zM314 417l-53 -184h111l-54 184h-4zM486.5 652q-35.5 -42 -101.5 -42q-30 0 -48.5 9t-39.5 25q-12 10 -20.5 15t-19.5 5q-15 0 -23 -12.5t-11 -39.5h-108q6 168 140 168q30 0 49.5 -9t39.5 -25q13 -10 21 -14.5
t18 -4.5q15 0 23 12.5t11 39.5h108q-3 -85 -38.5 -127z" />
    <glyph glyph-name="ae.sc" horiz-adv-x="871" 
d="M842 134v-134h-467v149h-143l-49 -149h-188l214 560h622v-134h-272v-83h203v-130h-203v-79h283zM375 279v151h-50l-50 -151h100z" />
    <glyph glyph-name="b.sc" horiz-adv-x="639" 
d="M61 560h328q105 -1 156 -38t51 -112q0 -51 -30 -85t-89 -44v-3q67 -7 100.5 -41t33.5 -89q0 -148 -204 -148h-346v560zM340 337q33 0 47.5 11t14.5 35t-14.5 35t-47.5 11h-85v-92h85zM361 127q57 0 57 42q0 43 -57 43h-106v-85h106z" />
    <glyph glyph-name="c.sc" horiz-adv-x="605" 
d="M512 42q-71 -50 -186 -50q-139 0 -216.5 75.5t-77.5 212.5q0 138 79 213t221 75q101 0 173.5 -48t85.5 -135l-180 -49q-5 81 -80 81q-46 0 -71 -33.5t-25 -103.5q0 -71 25 -104t74 -33q77 0 83 78l177 -47q-11 -82 -82 -132z" />
    <glyph glyph-name="cacute.sc" horiz-adv-x="605" 
d="M494 779l-94 -164h-144l53 164h185zM512 42q-71 -50 -186 -50q-139 0 -216.5 75.5t-77.5 212.5q0 138 79 213t221 75q101 0 173.5 -48t85.5 -135l-180 -49q-5 81 -80 81q-46 0 -71 -33.5t-25 -103.5q0 -71 25 -104t74 -33q77 0 83 78l177 -47q-11 -82 -82 -132z" />
    <glyph glyph-name="ccaron.sc" horiz-adv-x="605" 
d="M427 614h-190l-110 167h145l60 -77l60 77h145zM512 42q-71 -50 -186 -50q-139 0 -216.5 75.5t-77.5 212.5q0 138 79 213t221 75q101 0 173.5 -48t85.5 -135l-180 -49q-5 81 -80 81q-46 0 -71 -33.5t-25 -103.5q0 -71 25 -104t74 -33q77 0 83 78l177 -47q-11 -82 -82 -132
z" />
    <glyph glyph-name="ccedilla.sc" horiz-adv-x="605" 
d="M539.5 64.5q-46.5 -45.5 -123.5 -63.5q57 -36 57 -94q0 -62 -42 -92t-111 -30q-47 0 -77.5 11t-51.5 31l42 88q29 -29 73 -29q25 0 40 12.5t15 34.5q0 21 -15.5 35.5t-54.5 24.5q-124 10 -191.5 84.5t-67.5 202.5q0 138 79 213t221 75q101 0 173.5 -48t85.5 -135
l-180 -49q-5 81 -80 81q-46 0 -71 -33.5t-25 -103.5q0 -71 25 -104t74 -33q77 0 83 78l177 -47q-8 -64 -54.5 -109.5z" />
    <glyph glyph-name="d.sc" horiz-adv-x="664" 
d="M546.5 486.5q76.5 -73.5 76.5 -206.5t-76.5 -206.5t-216.5 -73.5h-269v560h269q140 0 216.5 -73.5zM399 179.5q21 32.5 21 100.5t-21 100.5t-71 32.5h-65v-266h65q50 0 71 32.5z" />
    <glyph glyph-name="eth.sc" horiz-adv-x="683" 
d="M565.5 486.5q76.5 -73.5 76.5 -206.5t-76.5 -206.5t-216.5 -73.5h-269v239h-76v79h76v242h269q140 0 216.5 -73.5zM418 179.5q21 32.5 21 100.5t-21 100.5t-71 32.5h-65v-95h90v-79h-90v-92h65q50 0 71 32.5z" />
    <glyph glyph-name="dcaron.sc" horiz-adv-x="664" 
d="M203 614l-110 167h145l60 -77l60 77h145l-110 -167h-190zM546.5 486.5q76.5 -73.5 76.5 -206.5t-76.5 -206.5t-216.5 -73.5h-269v560h269q140 0 216.5 -73.5zM399 179.5q21 32.5 21 100.5t-21 100.5t-71 32.5h-65v-266h65q50 0 71 32.5z" />
    <glyph glyph-name="dcroat.sc" horiz-adv-x="683" 
d="M565.5 486.5q76.5 -73.5 76.5 -206.5t-76.5 -206.5t-216.5 -73.5h-269v239h-76v79h76v242h269q140 0 216.5 -73.5zM418 179.5q21 32.5 21 100.5t-21 100.5t-71 32.5h-65v-95h90v-79h-90v-92h65q50 0 71 32.5z" />
    <glyph glyph-name="e.sc" horiz-adv-x="585" 
d="M556 137v-137h-495v560h492v-137h-290v-77h225v-130h-225v-79h293z" />
    <glyph glyph-name="eacute.sc" horiz-adv-x="585" 
d="M369 615h-144l54 164h185zM556 137v-137h-495v560h492v-137h-290v-77h225v-130h-225v-79h293z" />
    <glyph glyph-name="ecaron.sc" horiz-adv-x="585" 
d="M201 614l-110 167h145l60 -77l60 77h145l-110 -167h-190zM556 137v-137h-495v560h492v-137h-290v-77h225v-130h-225v-79h293z" />
    <glyph glyph-name="ecircumflex.sc" horiz-adv-x="585" 
d="M241 614h-145l110 167h190l110 -167h-145l-60 77zM556 137v-137h-495v560h492v-137h-290v-77h225v-130h-225v-79h293z" />
    <glyph glyph-name="edieresis.sc" horiz-adv-x="585" 
d="M556 137v-137h-495v560h492v-137h-290v-77h225v-130h-225v-79h293zM257 753.5q25 -22.5 25 -62.5q0 -41 -25 -63t-71 -22q-44 0 -69 22.5t-25 62.5t25 62.5t69 22.5q46 0 71 -22.5zM486 753.5q25 -22.5 25 -62.5q0 -41 -25 -63t-71 -22q-44 0 -69 22.5t-25 62.5t25 62.5
t69 22.5q46 0 71 -22.5z" />
    <glyph glyph-name="edotaccent.sc" horiz-adv-x="585" 
d="M556 137v-137h-495v560h492v-137h-290v-77h225v-130h-225v-79h293zM379.5 761.5q26.5 -22.5 26.5 -65.5t-26.5 -65t-78.5 -22q-102 0 -102 87q0 88 102 88q52 0 78.5 -22.5z" />
    <glyph glyph-name="egrave.sc" horiz-adv-x="585" 
d="M227 615l-94 164h185l53 -164h-144zM556 137v-137h-495v560h492v-137h-290v-77h225v-130h-225v-79h293z" />
    <glyph glyph-name="emacron.sc" horiz-adv-x="585" 
d="M556 137v-137h-495v560h492v-137h-290v-77h225v-130h-225v-79h293zM491 619h-380v119h380v-119z" />
    <glyph glyph-name="eogonek.sc" horiz-adv-x="585" 
d="M561 -190q-22 -14 -48.5 -19.5t-62.5 -5.5q-64 0 -105 29t-41 86q0 65 73 100h-316v560h492v-137h-290v-77h225v-130h-225v-79h293v-137q-63 -7 -89 -23t-26 -42q0 -19 14 -30t38 -11q29 0 43 9z" />
    <glyph glyph-name="f.sc" horiz-adv-x="578" 
d="M263 423v-85h225v-138h-225v-200h-202v560h492v-137h-290z" />
    <glyph glyph-name="g.sc" horiz-adv-x="639" 
d="M331 307h264v-307h-124l-7 85q-47 -93 -161 -93q-81 0 -142 33.5t-95 98.5t-34 156q0 137 80 212.5t223 75.5q102 0 172 -44.5t92 -126.5l-173 -48q-9 41 -30.5 57.5t-54.5 16.5q-50 0 -78.5 -36t-28.5 -107q0 -76 28.5 -112.5t88.5 -36.5q39 0 59.5 19.5t21.5 52.5v1
h-101v103z" />
    <glyph glyph-name="gbreve.sc" horiz-adv-x="639" 
d="M331 307h264v-307h-124l-7 85q-47 -93 -161 -93q-81 0 -142 33.5t-95 98.5t-34 156q0 137 80 212.5t223 75.5q102 0 172 -44.5t92 -126.5l-173 -48q-9 41 -30.5 57.5t-54.5 16.5q-50 0 -78.5 -36t-28.5 -107q0 -76 28.5 -112.5t88.5 -36.5q39 0 59.5 19.5t21.5 52.5v1
h-101v103zM467.5 651.5q-46.5 -44.5 -129.5 -44.5t-129.5 44.5t-46.5 123.5h125q0 -29 13 -45t38 -16t38 16t13 45h125q0 -79 -46.5 -123.5z" />
    <glyph glyph-name="h.sc" horiz-adv-x="688" 
d="M627 560v-560h-202v209h-162v-209h-202v560h202v-201h162v201h202z" />
    <glyph glyph-name="i.sc" horiz-adv-x="323" 
d="M263 0h-202v560h202v-560z" />
    <glyph glyph-name="iacute.sc" horiz-adv-x="323" 
d="M319 779l-94 -164h-144l53 164h185zM263 0h-202v560h202v-560z" />
    <glyph glyph-name="iacute_j.loclNLD.sc" horiz-adv-x="914" 
d="M319 779l-94 -164h-145l54 164h185zM929 779l-94 -164h-145l54 164h185zM263 0h-202v560h202v-560zM865 222q0 -119 -66 -174.5t-197 -55.5q-123 0 -187 53.5t-64 144.5q0 28 6 58l189 31q-4 -29 -4 -56q0 -44 14.5 -62t43.5 -18q34 0 48.5 22t14.5 71v324h202v-338z" />
    <glyph glyph-name="icircumflex.sc" horiz-adv-x="323" 
d="M222 614l-60 77l-60 -77h-145l110 167h190l110 -167h-145zM263 0h-202v560h202v-560z" />
    <glyph glyph-name="idieresis.sc" horiz-adv-x="323" 
d="M122 753.5q25 -22.5 25 -62.5t-25 -62.5t-69 -22.5q-43 0 -66.5 22.5t-23.5 62.5t23.5 62.5t66.5 22.5q44 0 69 -22.5zM336 753.5q25 -22.5 25 -62.5t-25 -62.5t-69 -22.5q-43 0 -66.5 22.5t-23.5 62.5t23.5 62.5t66.5 22.5q44 0 69 -22.5zM263 0h-202v560h202v-560z" />
    <glyph glyph-name="i.sc.loclTRK" horiz-adv-x="323" 
d="M263 0h-202v560h202v-560zM240.5 753.5q26.5 -22.5 26.5 -65.5t-26.5 -65t-78.5 -22q-102 0 -102 87q0 88 102 88q52 0 78.5 -22.5z" />
    <glyph glyph-name="igrave.sc" horiz-adv-x="323" 
d="M226 615h-144l-94 164h185zM263 0h-202v560h202v-560z" />
    <glyph glyph-name="ij.sc" horiz-adv-x="914" 
d="M263 0h-202v560h202v-560zM864 222q0 -119 -65.5 -174.5t-197.5 -55.5q-123 0 -187 54t-64 145q0 27 6 57l189 31q-4 -28 -4 -55q0 -45 15 -63t43 -18q35 0 49 22t14 71v324h202v-338z" />
    <glyph glyph-name="imacron.sc" horiz-adv-x="323" 
d="M304 619h-285v119h285v-119zM263 0h-202v560h202v-560z" />
    <glyph glyph-name="iogonek.sc" horiz-adv-x="323" 
d="M271 -190q-22 -14 -48.5 -19.5t-63.5 -5.5q-64 0 -104.5 29t-40.5 86q0 32 16 57.5t45 42.5h-14v560h202v-560q-62 -9 -87 -24.5t-25 -40.5q0 -20 13 -30.5t38 -10.5q27 0 43 10z" />
    <glyph glyph-name="j.sc" horiz-adv-x="591" 
d="M541 222q0 -119 -65.5 -174.5t-197.5 -55.5q-123 0 -187 54t-64 145q0 27 6 57l189 31q-4 -28 -4 -55q0 -45 15 -63t43 -18q35 0 49 22t14 71v324h202v-338z" />
    <glyph glyph-name="k.sc" horiz-adv-x="679" 
d="M328 206l-65 -73v-133h-202v560h202v-225l196 225h212l-205 -234l212 -326h-226z" />
    <glyph glyph-name="l.sc" horiz-adv-x="577" 
d="M541 150v-150h-480v560h202v-410h278z" />
    <glyph glyph-name="lacute.sc" horiz-adv-x="577" 
d="M225 615h-144l53 164h185zM541 150v-150h-480v560h202v-410h278z" />
    <glyph glyph-name="lcaron.sc" horiz-adv-x="577" 
d="M541 150v-150h-480v560h202v-410h278zM456 306h-131l25 254h173z" />
    <glyph glyph-name="ldot.sc" horiz-adv-x="643" 
d="M541 150v-150h-480v560h202v-410h278zM593.5 397q29.5 -26 29.5 -73t-29.5 -73t-82.5 -26t-82.5 26t-29.5 73q0 46 29.5 72.5t82.5 26.5t82.5 -26z" />
    <glyph glyph-name="lslash.sc" horiz-adv-x="615" 
d="M579 150v-150h-481v172l-95 -46v122l95 46v266h202v-169l148 71v-122l-148 -71v-119h279z" />
    <glyph glyph-name="m.sc" horiz-adv-x="864" 
d="M61 560h271l68 -228l32 -113h3l31 113l67 228h271v-560h-181v170l10 212h-1l-127 -382h-146l-126 382h-1l10 -212v-170h-181v560z" />
    <glyph glyph-name="n.sc" horiz-adv-x="701" 
d="M640 0h-221l-136 259l-42 89h-2l6 -144v-204h-184v560h221l135 -257l43 -91h2l-6 144v204h184v-560z" />
    <glyph glyph-name="nacute.sc" horiz-adv-x="701" 
d="M512 779l-94 -164h-144l53 164h185zM640 0h-221l-136 259l-42 89h-2l6 -144v-204h-184v560h221l135 -257l43 -91h2l-6 144v204h184v-560z" />
    <glyph glyph-name="ncaron.sc" horiz-adv-x="701" 
d="M445 614h-190l-110 167h145l60 -77l60 77h145zM640 0h-221l-136 259l-42 89h-2l6 -144v-204h-184v560h221l135 -257l43 -91h2l-6 144v204h184v-560z" />
    <glyph glyph-name="ntilde.sc" horiz-adv-x="701" 
d="M640 0h-221l-136 259l-42 89h-2l6 -144v-204h-184v560h221l135 -257l43 -91h2l-6 144v204h184v-560zM521.5 652q-35.5 -42 -101.5 -42q-30 0 -48.5 9t-39.5 25q-12 10 -20.5 15t-19.5 5q-15 0 -23 -12.5t-11 -39.5h-108q6 168 140 168q30 0 49.5 -9t39.5 -25
q13 -10 21 -14.5t18 -4.5q15 0 23 12.5t11 39.5h108q-3 -85 -38.5 -127z" />
    <glyph glyph-name="o.sc" horiz-adv-x="662" 
d="M550.5 491.5q79.5 -76.5 79.5 -211.5t-79.5 -211.5t-219.5 -76.5t-219.5 76.5t-79.5 211.5t79.5 211.5t219.5 76.5t219.5 -76.5zM258.5 384.5q-23.5 -32.5 -23.5 -104.5t23.5 -104.5t72.5 -32.5q50 0 73 32.5t23 104.5t-23 104.5t-73 32.5q-49 0 -72.5 -32.5z" />
    <glyph glyph-name="oacute.sc" horiz-adv-x="662" 
d="M488 779l-94 -164h-144l53 164h185zM550.5 491.5q79.5 -76.5 79.5 -211.5t-79.5 -211.5t-219.5 -76.5t-219.5 76.5t-79.5 211.5t79.5 211.5t219.5 76.5t219.5 -76.5zM258.5 384.5q-23.5 -32.5 -23.5 -104.5t23.5 -104.5t72.5 -32.5q50 0 73 32.5t23 104.5t-23 104.5
t-73 32.5q-49 0 -72.5 -32.5z" />
    <glyph glyph-name="ocircumflex.sc" horiz-adv-x="662" 
d="M391 614l-60 77l-60 -77h-145l110 167h190l110 -167h-145zM550.5 491.5q79.5 -76.5 79.5 -211.5t-79.5 -211.5t-219.5 -76.5t-219.5 76.5t-79.5 211.5t79.5 211.5t219.5 76.5t219.5 -76.5zM258.5 384.5q-23.5 -32.5 -23.5 -104.5t23.5 -104.5t72.5 -32.5q50 0 73 32.5
t23 104.5t-23 104.5t-73 32.5q-49 0 -72.5 -32.5z" />
    <glyph glyph-name="odieresis.sc" horiz-adv-x="662" 
d="M550.5 491.5q79.5 -76.5 79.5 -211.5t-79.5 -211.5t-219.5 -76.5t-219.5 76.5t-79.5 211.5t79.5 211.5t219.5 76.5t219.5 -76.5zM258.5 384.5q-23.5 -32.5 -23.5 -104.5t23.5 -104.5t72.5 -32.5q50 0 73 32.5t23 104.5t-23 104.5t-73 32.5q-49 0 -72.5 -32.5zM287 753.5
q25 -22.5 25 -62.5q0 -41 -25 -63t-71 -22q-44 0 -69 22.5t-25 62.5t25 62.5t69 22.5q46 0 71 -22.5zM516 753.5q25 -22.5 25 -62.5q0 -41 -25 -63t-71 -22q-44 0 -69 22.5t-25 62.5t25 62.5t69 22.5q46 0 71 -22.5z" />
    <glyph glyph-name="ograve.sc" horiz-adv-x="662" 
d="M395 615h-144l-94 164h185zM550.5 491.5q79.5 -76.5 79.5 -211.5t-79.5 -211.5t-219.5 -76.5t-219.5 76.5t-79.5 211.5t79.5 211.5t219.5 76.5t219.5 -76.5zM258.5 384.5q-23.5 -32.5 -23.5 -104.5t23.5 -104.5t72.5 -32.5q50 0 73 32.5t23 104.5t-23 104.5t-73 32.5
q-49 0 -72.5 -32.5z" />
    <glyph glyph-name="ohungarumlaut.sc" horiz-adv-x="662" 
d="M362 779l-94 -164h-145l54 164h185zM602 779l-94 -164h-145l54 164h185zM550.5 491.5q79.5 -76.5 79.5 -211.5t-79.5 -211.5t-219.5 -76.5t-219.5 76.5t-79.5 211.5t79.5 211.5t219.5 76.5t219.5 -76.5zM258.5 384.5q-23.5 -32.5 -23.5 -104.5t23.5 -104.5t72.5 -32.5
q50 0 73 32.5t23 104.5t-23 104.5t-73 32.5q-49 0 -72.5 -32.5z" />
    <glyph glyph-name="omacron.sc" horiz-adv-x="662" 
d="M550.5 491.5q79.5 -76.5 79.5 -211.5t-79.5 -211.5t-219.5 -76.5t-219.5 76.5t-79.5 211.5t79.5 211.5t219.5 76.5t219.5 -76.5zM258.5 384.5q-23.5 -32.5 -23.5 -104.5t23.5 -104.5t72.5 -32.5q50 0 73 32.5t23 104.5t-23 104.5t-73 32.5q-49 0 -72.5 -32.5zM521 619
h-380v119h380v-119z" />
    <glyph glyph-name="oslash.sc" horiz-adv-x="662" 
d="M630 280q0 -135 -79.5 -211.5t-219.5 -76.5q-100 0 -171 40l-35 -46h-68l62 75q-87 78 -87 219q0 135 79.5 211.5t219.5 76.5q102 0 172 -41l34 45h68l-61 -74q86 -77 86 -218zM258.5 384.5q-23.5 -32.5 -23.5 -104.5q0 -48 11 -79l145 198q-23 18 -60 18
q-49 0 -72.5 -32.5zM404 175.5q23 32.5 23 104.5q0 41 -7 68l-141 -192q20 -13 52 -13q50 0 73 32.5z" />
    <glyph glyph-name="otilde.sc" horiz-adv-x="662" 
d="M550.5 491.5q79.5 -76.5 79.5 -211.5t-79.5 -211.5t-219.5 -76.5t-219.5 76.5t-79.5 211.5t79.5 211.5t219.5 76.5t219.5 -76.5zM258.5 384.5q-23.5 -32.5 -23.5 -104.5t23.5 -104.5t72.5 -32.5q50 0 73 32.5t23 104.5t-23 104.5t-73 32.5q-49 0 -72.5 -32.5zM497.5 652
q-35.5 -42 -101.5 -42q-30 0 -48.5 9t-39.5 25q-12 10 -20.5 15t-19.5 5q-15 0 -23 -12.5t-11 -39.5h-108q6 168 140 168q30 0 49.5 -9t39.5 -25q13 -10 21 -14.5t18 -4.5q15 0 23 12.5t11 39.5h108q-3 -85 -38.5 -127z" />
    <glyph glyph-name="oe.sc" horiz-adv-x="929" 
d="M901 137v-137h-420v92q-23 -54 -66.5 -77t-114.5 -23q-74 0 -135 34.5t-97 100t-36 153.5t36 153.5t97 100t135 34.5q72 0 115 -23t66 -77v92h416v-137h-285v-77h227v-130h-227v-79h289zM400.5 175.5q23.5 32.5 23.5 104.5t-23.5 104.5t-72.5 32.5q-50 0 -74 -32.5
t-24 -104.5t24 -104.5t74 -32.5q49 0 72.5 32.5z" />
    <glyph glyph-name="p.sc" horiz-adv-x="626" 
d="M539.5 508q60.5 -52 60.5 -146t-60.5 -145.5t-169.5 -51.5h-107v-165h-202v560h309q109 0 169.5 -52zM402 360q0 65 -70 65h-69v-129h69q70 0 70 64z" />
    <glyph glyph-name="thorn.sc" horiz-adv-x="634" 
d="M539.5 424q61.5 -52 61.5 -143t-61.5 -143t-171.5 -52h-105v-86h-202v560h202v-84h105q110 0 171.5 -52zM404 281q0 62 -72 62h-69v-124h69q72 0 72 62z" />
    <glyph glyph-name="q.sc" horiz-adv-x="662" 
d="M532 -31.5q22 8.5 40 30.5l47 -129q-27 -21 -63.5 -34t-79.5 -13q-98 0 -149.5 43t-45.5 129q-118 14 -183.5 88.5t-65.5 196.5q0 135 79.5 211.5t219.5 76.5t219.5 -76.5t79.5 -211.5q0 -122 -64.5 -196.5t-180.5 -88.5q16 -35 89 -35q36 0 58 8.5zM258.5 175.5
q23.5 -32.5 72.5 -32.5q50 0 73 32.5t23 104.5t-23 104.5t-73 32.5q-49 0 -72.5 -32.5t-23.5 -104.5t23.5 -104.5z" />
    <glyph glyph-name="r.sc" horiz-adv-x="633" 
d="M323 182h-64v-182h-198v560h302q114 0 176.5 -49t62.5 -141q0 -59 -27.5 -100.5t-79.5 -64.5l132 -205h-215zM259 301h75q34 0 52.5 16t18.5 46t-18.5 46t-52.5 16h-75v-124z" />
    <glyph glyph-name="racute.sc" horiz-adv-x="633" 
d="M374 615h-144l53 164h185zM323 182h-64v-182h-198v560h302q114 0 176.5 -49t62.5 -141q0 -59 -27.5 -100.5t-79.5 -64.5l132 -205h-215zM259 301h75q34 0 52.5 16t18.5 46t-18.5 46t-52.5 16h-75v-124z" />
    <glyph glyph-name="rcaron.sc" horiz-adv-x="633" 
d="M211 614l-110 167h145l60 -77l60 77h145l-110 -167h-190zM323 182h-64v-182h-198v560h302q114 0 176.5 -49t62.5 -141q0 -59 -27.5 -100.5t-79.5 -64.5l132 -205h-215zM259 301h75q34 0 52.5 16t18.5 46t-18.5 46t-52.5 16h-75v-124z" />
    <glyph glyph-name="s.sc" horiz-adv-x="580" 
d="M444 549.5q58 -18.5 115 -61.5l-81 -130q-50 40 -87.5 54.5t-94.5 14.5q-33 0 -50 -10t-17 -26t23 -23t73 -14q69 -9 115.5 -22.5t81.5 -49t35 -100.5q0 -89 -72.5 -139.5t-195.5 -50.5q-88 0 -151.5 18t-118.5 59l78 132q47 -38 88.5 -52.5t100.5 -14.5q68 0 68 31
q0 17 -22 23.5t-73 13.5q-69 9 -116 22t-82 49t-35 103q0 89 72.5 140.5t195.5 51.5q92 0 150 -18.5z" />
    <glyph glyph-name="sacute.sc" horiz-adv-x="580" 
d="M448 779l-94 -164h-144l53 164h185zM444 549.5q58 -18.5 115 -61.5l-81 -130q-50 40 -87.5 54.5t-94.5 14.5q-33 0 -50 -10t-17 -26t23 -23t73 -14q69 -9 115.5 -22.5t81.5 -49t35 -100.5q0 -89 -72.5 -139.5t-195.5 -50.5q-88 0 -151.5 18t-118.5 59l78 132
q47 -38 88.5 -52.5t100.5 -14.5q68 0 68 31q0 17 -22 23.5t-73 13.5q-69 9 -116 22t-82 49t-35 103q0 89 72.5 140.5t195.5 51.5q92 0 150 -18.5z" />
    <glyph glyph-name="scaron.sc" horiz-adv-x="580" 
d="M382 614h-190l-110 167h145l60 -77l60 77h145zM444 549.5q58 -18.5 115 -61.5l-81 -130q-50 40 -87.5 54.5t-94.5 14.5q-33 0 -50 -10t-17 -26t23 -23t73 -14q69 -9 115.5 -22.5t81.5 -49t35 -100.5q0 -89 -72.5 -139.5t-195.5 -50.5q-88 0 -151.5 18t-118.5 59l78 132
q47 -38 88.5 -52.5t100.5 -14.5q68 0 68 31q0 17 -22 23.5t-73 13.5q-69 9 -116 22t-82 49t-35 103q0 89 72.5 140.5t195.5 51.5q92 0 150 -18.5z" />
    <glyph glyph-name="germandbls.sc" horiz-adv-x="684" 
d="M660 163q0 -82 -52 -124.5t-142 -42.5q-112 0 -162 48l38 103q41 -27 85 -27q28 0 43.5 11.5t15.5 33.5q0 21 -15.5 30t-48.5 9h-91v104l130 111h-104q-40 0 -67 -27.5t-27 -74.5v-317h-202v320q0 71 34 125.5t95 84.5t139 30h305v-137l-132 -115q158 -10 158 -145z" />
    <glyph glyph-name="t.sc" horiz-adv-x="627" 
d="M600 410h-186v-410h-201v410h-185v150h572v-150z" />
    <glyph glyph-name="tcaron.sc" horiz-adv-x="627" 
d="M214 614l-110 167h145l60 -77l60 77h145l-110 -167h-190zM600 410h-186v-410h-201v410h-185v150h572v-150z" />
    <glyph glyph-name="u.sc" horiz-adv-x="660" 
d="M610 241q0 -249 -280 -249t-280 249v319h202v-327q0 -46 19 -68t59 -22q41 0 60 22t19 68v327h201v-319z" />
    <glyph glyph-name="uacute.sc" horiz-adv-x="660" 
d="M487 779l-94 -164h-144l53 164h185zM610 241q0 -249 -280 -249t-280 249v319h202v-327q0 -46 19 -68t59 -22q41 0 60 22t19 68v327h201v-319z" />
    <glyph glyph-name="ucircumflex.sc" horiz-adv-x="660" 
d="M390 614l-60 77l-60 -77h-145l110 167h190l110 -167h-145zM610 241q0 -249 -280 -249t-280 249v319h202v-327q0 -46 19 -68t59 -22q41 0 60 22t19 68v327h201v-319z" />
    <glyph glyph-name="udieresis.sc" horiz-adv-x="660" 
d="M610 241q0 -249 -280 -249t-280 249v319h202v-327q0 -46 19 -68t59 -22q41 0 60 22t19 68v327h201v-319zM286 753.5q25 -22.5 25 -62.5q0 -41 -25 -63t-71 -22q-44 0 -69 22.5t-25 62.5t25 62.5t69 22.5q46 0 71 -22.5zM515 753.5q25 -22.5 25 -62.5q0 -41 -25 -63
t-71 -22q-44 0 -69 22.5t-25 62.5t25 62.5t69 22.5q46 0 71 -22.5z" />
    <glyph glyph-name="ugrave.sc" horiz-adv-x="660" 
d="M394 615h-144l-94 164h185zM610 241q0 -249 -280 -249t-280 249v319h202v-327q0 -46 19 -68t59 -22q41 0 60 22t19 68v327h201v-319z" />
    <glyph glyph-name="uhungarumlaut.sc" horiz-adv-x="660" 
d="M362 779l-95 -164h-144l53 164h186zM602 779l-95 -164h-144l53 164h186zM610 241q0 -249 -280 -249t-280 249v319h202v-327q0 -46 19 -68t59 -22q41 0 60 22t19 68v327h201v-319z" />
    <glyph glyph-name="umacron.sc" horiz-adv-x="660" 
d="M610 241q0 -249 -280 -249t-280 249v319h202v-327q0 -46 19 -68t59 -22q41 0 60 22t19 68v327h201v-319zM520 619h-380v119h380v-119z" />
    <glyph glyph-name="uogonek.sc" horiz-adv-x="660" 
d="M610 560v-319q0 -202 -184 -240q-33 -12 -47.5 -27.5t-14.5 -34.5t13.5 -30t37.5 -11q29 0 43 9l25 -93q-21 -14 -48 -19.5t-63 -5.5q-64 0 -105 29t-41 86t47 91q-223 23 -223 246v319h202v-327q0 -46 19 -68t59 -22q41 0 60 22t19 68v327h201z" />
    <glyph glyph-name="uring.sc" horiz-adv-x="660" 
d="M610 241q0 -249 -280 -249t-280 249v319h202v-327q0 -46 19 -68t59 -22q41 0 60 22t19 68v327h201v-319zM432 776.5q36 -32.5 36 -89.5q0 -58 -36 -90.5t-102 -32.5q-65 0 -101.5 32.5t-36.5 90.5q0 57 36.5 89.5t101.5 32.5q66 0 102 -32.5zM297 719.5
q-12 -11.5 -12 -32.5t12 -33t33 -12t33.5 12t12.5 33t-12.5 32.5t-33.5 11.5t-33 -11.5z" />
    <glyph glyph-name="v.sc" horiz-adv-x="652" 
d="M447 0h-240l-210 560h216l78 -252l40 -152h1l39 151l79 253h205z" />
    <glyph glyph-name="w.sc" horiz-adv-x="965" 
d="M447 160l-37 -160h-249l-162 560h216l60 -289l24 -127l81 416h207l84 -416l23 127l60 289h212l-162 -560h-242l-37 160l-40 220h-1z" />
    <glyph glyph-name="x.sc" horiz-adv-x="614" 
d="M382 0l-91 140l-92 -140h-206l200 282l-190 278h229l80 -139l83 139h207l-187 -273l202 -287h-235z" />
    <glyph glyph-name="y.sc" horiz-adv-x="619" 
d="M410 203v-203h-202v203l-208 357h204l72 -142l37 -82l37 82l71 142h198z" />
    <glyph glyph-name="yacute.sc" horiz-adv-x="619" 
d="M466 779l-94 -164h-144l53 164h185zM410 203v-203h-202v203l-208 357h204l72 -142l37 -82l37 82l71 142h198z" />
    <glyph glyph-name="ydieresis.sc" horiz-adv-x="619" 
d="M410 203v-203h-202v203l-208 357h204l72 -142l37 -82l37 82l71 142h198zM265 753.5q25 -22.5 25 -62.5q0 -41 -25 -63t-71 -22q-44 0 -69 22.5t-25 62.5t25 62.5t69 22.5q46 0 71 -22.5zM494 753.5q25 -22.5 25 -62.5q0 -41 -25 -63t-71 -22q-44 0 -69 22.5t-25 62.5
t25 62.5t69 22.5q46 0 71 -22.5z" />
    <glyph glyph-name="z.sc" horiz-adv-x="593" 
d="M560 145v-145h-519v128l226 230l67 57h-300v145h520v-129l-229 -226l-70 -60h305z" />
    <glyph glyph-name="zacute.sc" horiz-adv-x="593" 
d="M355 615h-144l53 164h185zM560 145v-145h-519v128l226 230l67 57h-300v145h520v-129l-229 -226l-70 -60h305z" />
    <glyph glyph-name="zcaron.sc" horiz-adv-x="577" 
d="M191 614l-109 167h144l60 -77l60 77h145l-109 -167h-191zM560 145v-145h-519v128l226 230l67 57h-300v145h520v-129l-229 -226l-70 -60h305z" />
    <glyph glyph-name="zdotaccent.sc" horiz-adv-x="593" 
d="M560 145v-145h-519v128l226 230l67 57h-300v145h520v-129l-229 -226l-70 -60h305zM370.5 761.5q26.5 -22.5 26.5 -65.5t-26.5 -65t-78.5 -22q-102 0 -102 87q0 88 102 88q52 0 78.5 -22.5z" />
    <glyph glyph-name="Rcommaaccent.sc.ss03" horiz-adv-x="640" 
d="M61 560h302q113 0 176 -47t63 -129q0 -62 -33 -101t-88 -47v-3q41 -9 64 -32.5t28 -52.5q3 -13 7 -37q9 -45 14.5 -66t16.5 -40v-5h-212q-10 26 -15 75q-2 9 -4 26t-5 29q-7 30 -24.5 41t-46.5 11h-45v-182h-198v560zM331 301q74 0 74 62t-74 62h-72v-124h72zM350 -242
h-128l28 187h173z" />
    <glyph glyph-name="r.sc.ss03" horiz-adv-x="640" 
d="M61 560h302q113 0 176 -47t63 -129q0 -62 -33 -101t-88 -47v-3q41 -9 64 -32.5t28 -52.5q3 -13 7 -37q9 -45 14.5 -66t16.5 -40v-5h-212q-10 26 -15 75q-2 9 -4 26t-5 29q-7 30 -24.5 41t-46.5 11h-45v-182h-198v560zM331 301q74 0 74 62t-74 62h-72v-124h72z" />
    <glyph glyph-name="racute.sc.ss03" horiz-adv-x="640" 
d="M61 560h302q113 0 176 -47t63 -129q0 -62 -33 -101t-88 -47v-3q41 -9 64 -32.5t28 -52.5q3 -13 7 -37q9 -45 14.5 -66t16.5 -40v-5h-212q-10 26 -15 75q-2 9 -4 26t-5 29q-7 30 -24.5 41t-46.5 11h-45v-182h-198v560zM331 301q74 0 74 62t-74 62h-72v-124h72zM471 794
l-102 -175h-144l63 175h183z" />
    <glyph glyph-name="rcaron.sc.ss03" horiz-adv-x="640" 
d="M61 560h302q113 0 176 -47t63 -129q0 -62 -33 -101t-88 -47v-3q41 -9 64 -32.5t28 -52.5q3 -13 7 -37q9 -45 14.5 -66t16.5 -40v-5h-212q-10 26 -15 75q-2 9 -4 26t-5 29q-7 30 -24.5 41t-46.5 11h-45v-182h-198v560zM331 301q74 0 74 62t-74 62h-72v-124h72zM402 619
h-192l-107 175h141l62 -79l62 79h141z" />
    <glyph glyph-name="Gcommaaccent.sc.ss04" horiz-adv-x="640" 
d="M337 305h265v-72q0 -116 -67.5 -178.5t-195.5 -62.5q-144 0 -223 74t-79 212q0 137 79 213.5t223 76.5q99 0 171 -43t95 -128l-174 -45q-9 36 -28.5 53.5t-57.5 17.5q-50 0 -78.5 -37t-28.5 -106q0 -75 26.5 -112t82.5 -37q44 0 67.5 20t23.5 48v5h-101v101zM402 -242
h-128l28 187h173z" />
    <glyph glyph-name="g.sc.ss04" horiz-adv-x="640" 
d="M337 305h265v-72q0 -116 -67.5 -178.5t-195.5 -62.5q-144 0 -223 74t-79 212q0 137 79 213.5t223 76.5q99 0 171 -43t95 -128l-174 -45q-9 36 -28.5 53.5t-57.5 17.5q-50 0 -78.5 -37t-28.5 -106q0 -75 26.5 -112t82.5 -37q44 0 67.5 20t23.5 48v5h-101v101z" />
    <glyph glyph-name="gbreve.sc.ss04" horiz-adv-x="640" 
d="M337 305h265v-72q0 -116 -67.5 -178.5t-195.5 -62.5q-144 0 -223 74t-79 212q0 137 79 213.5t223 76.5q99 0 171 -43t95 -128l-174 -45q-9 36 -28.5 53.5t-57.5 17.5q-50 0 -78.5 -37t-28.5 -106q0 -75 26.5 -112t82.5 -37q44 0 67.5 20t23.5 48v5h-101v101zM475.5 651.5
q-46.5 -44.5 -129.5 -44.5t-129.5 44.5t-46.5 123.5h125q0 -29 13 -45t38 -16t38 16t13 45h125q0 -79 -46.5 -123.5z" />
    <glyph glyph-name="iacute_j.loclNLD.sc.ss05" horiz-adv-x="619" 
d="M370 779l-94 -164h-144l53 164h185zM571 779l-94 -164h-145l54 164h185zM570 230q0 -112 -72.5 -175t-194.5 -63q-120 0 -187 49.5t-67 141.5q0 10 2 32h197q-1 -6 -1 -16q0 -56 59 -56q32 0 47 19.5t15 66.5v331h202v-330zM252 263h-202v297h202v-297z" />
    <glyph glyph-name="ij.sc.ss05" horiz-adv-x="619" 
d="M570 230q0 -112 -72.5 -175t-194.5 -63q-120 0 -187 49.5t-67 141.5q0 10 2 32h197q-1 -6 -1 -16q0 -56 59 -56q32 0 47 19.5t15 66.5v331h202v-330zM252 263h-202v297h202v-297z" />
    <glyph glyph-name="ordfeminine" unicode="&#xaa;" horiz-adv-x="458" 
d="M238 511v13q0 19 -10.5 30t-29.5 11q-43 0 -48 -48l-121 23q7 58 51.5 89.5t125.5 31.5q91 0 134.5 -35t43.5 -107v-105q0 -15 7 -22.5t19 -7.5q13 0 19 3l-11 -75q-23 -13 -61 -13q-37 0 -61.5 14.5t-32.5 42.5q-17 -27 -49.5 -42t-78.5 -15q-110 0 -110 83
q0 45 32 71.5t106 41.5zM225.5 391.5q12.5 10.5 12.5 30.5v35l-33 -9q-41 -11 -41 -40q0 -27 31 -27q18 0 30.5 10.5zM37 234h381v-101h-381v101z" />
    <glyph glyph-name="ordmasculine" unicode="&#xba;" horiz-adv-x="445" 
d="M82.5 347q-50.5 48 -50.5 133t50.5 133t139.5 48t140 -48t51 -133t-51 -133t-140 -48t-139.5 48zM256 410.5q10 20.5 10 69.5q0 48 -10 69t-34 21q-23 0 -33.5 -21t-10.5 -69t10.5 -69t33.5 -21q24 0 34 20.5zM36 234h373v-101h-373v101z" />
    <glyph glyph-name="pi" unicode="&#x3c0;" horiz-adv-x="808" 
d="M654 364v-163q0 -74 73 -74q12 0 19 1l-16 -132q-36 -3 -66 -3q-81 0 -127.5 18.5t-65.5 54.5t-19 92v206h-115v-364h-202v364h-118v136h762v-136h-125z" />
    <glyph glyph-name="zero" unicode="0" horiz-adv-x="651" 
d="M111.5 75q-70.5 85 -70.5 255t70.5 255t214.5 85q143 0 213.5 -85t70.5 -255t-70.5 -255t-213.5 -85q-144 0 -214.5 85zM375 163.5q18 17.5 26 57t8 109.5t-8 109.5t-26 57t-49 17.5q-32 0 -50 -17.5t-26 -57t-8 -109.5t8 -109.5t26 -57t50 -17.5q31 0 49 17.5z" />
    <glyph glyph-name="one" unicode="1" horiz-adv-x="450" 
d="M385 660v-660h-196v465q-75 -67 -151 -79l-15 166q56 6 117 39t85 69h160z" />
    <glyph glyph-name="two" unicode="2" horiz-adv-x="601" 
d="M55 126q155 89 230 168.5t75 145.5q0 33 -18 53.5t-52 20.5q-82 0 -82 -126l-175 47q0 76 35 129t96 79.5t139 26.5q89 0 147 -32t85 -81t27 -101q0 -92 -69 -166t-198 -142v-2q62 5 146 5h127v-151h-513v126z" />
    <glyph glyph-name="three" unicode="3" horiz-adv-x="597" 
d="M483 620q64 -50 64 -140q0 -53 -23 -86t-52.5 -47t-48.5 -14v-4q24 0 55.5 -11.5t56.5 -45t25 -91.5q0 -57 -34.5 -100.5t-95 -67t-135.5 -23.5q-114 0 -179.5 39t-91.5 127l184 77q1 -49 23 -69.5t59 -20.5q34 0 54 16t20 47t-19 46t-60 15h-41v121h31q39 0 57 15.5
t19 48.5q0 31 -17 48t-46 17q-72 0 -75 -86l-177 57q25 182 266 182q117 0 181 -50z" />
    <glyph glyph-name="four" unicode="4" horiz-adv-x="659" 
d="M637 135h-94v-135h-178v135h-336v89l276 436h238v-390h94v-135zM216 270h149v151l3 109h-2q-18 -50 -54 -108z" />
    <glyph glyph-name="five" unicode="5" horiz-adv-x="583" 
d="M499 372.5q55 -54.5 55 -141.5q0 -81 -36.5 -135.5t-97 -80t-134.5 -25.5q-91 0 -156.5 28t-111.5 97l177 102q7 -40 27.5 -59t65.5 -19q40 0 62.5 19t22.5 57q0 37 -21 57.5t-65 20.5q-60 0 -90 -31l-152 26l44 372h426v-153h-281l-12 -94l-6 -30h1q18 21 53 32.5
t78 11.5q96 0 151 -54.5z" />
    <glyph glyph-name="six" unicode="6" horiz-adv-x="616" 
d="M493 634.5q63 -35.5 87 -113.5l-164 -77q-17 68 -85 68q-48 0 -78 -42.5t-30 -120.5v-15h2q36 74 152 74q60 0 108 -25t75.5 -71t27.5 -106q0 -100 -69.5 -158t-194.5 -58q-137 0 -209 84.5t-72 255.5t82 255.5t219 84.5q86 0 149 -35.5zM273 260q-20 -19 -20 -52
q0 -34 20 -52.5t56 -18.5q37 0 57 18.5t20 52.5t-20 52.5t-57 18.5q-36 0 -56 -19z" />
    <glyph glyph-name="seven" unicode="7" horiz-adv-x="633" 
d="M607 660v-139q-117 -110 -163.5 -236.5t-46.5 -284.5h-201q0 148 50.5 270t162.5 234h-367v156h565z" />
    <glyph glyph-name="eight" unicode="8" horiz-adv-x="631" 
d="M506.5 616.5q69.5 -50.5 69.5 -138.5q0 -51 -28 -88t-81 -56v-1q62 -19 94.5 -59t32.5 -100q0 -85 -74 -134.5t-205 -49.5q-130 0 -204 49.5t-74 134.5q0 60 32.5 100t94.5 59v1q-53 19 -81 56t-28 88q0 88 69 138.5t191 50.5t191.5 -50.5zM261.5 508
q-19.5 -17 -19.5 -48t19.5 -48.5t53.5 -17.5t54 17.5t20 48.5t-19.5 48t-54.5 17q-34 0 -53.5 -17zM376 151q21 18 21 50t-21.5 50t-60.5 18q-38 0 -60 -18t-22 -50t21.5 -50t60.5 -18q40 0 61 18z" />
    <glyph glyph-name="nine" unicode="9" horiz-adv-x="612" 
d="M506 584q72 -86 72 -259q0 -335 -289 -335q-93 0 -155 34t-93 108l181 68q6 -30 22.5 -45t48.5 -15q49 0 75 37.5t26 111.5v19h-4q-12 -34 -53 -54t-95 -20q-56 0 -105 26t-78 73.5t-29 109.5q0 107 70 167t198 60q136 0 208 -86zM234.5 496.5q-19.5 -18.5 -19.5 -52.5
t19.5 -52.5t56.5 -18.5t57 18.5t20 52.5q0 33 -20 52t-57 19t-56.5 -18.5z" />
    <glyph glyph-name="zero.osf" horiz-adv-x="622" 
d="M590 280q0 -290 -279 -290t-279 290t279 290t279 -290zM249.5 397q-18.5 -35 -18.5 -117t18.5 -117t61.5 -35t62 35.5t19 116.5t-19 116.5t-62 35.5t-61.5 -35z" />
    <glyph glyph-name="one.osf" horiz-adv-x="444" 
d="M381 560v-560h-196v363q-77 -68 -150 -75l-14 165q58 8 117.5 39.5t82.5 67.5h160z" />
    <glyph glyph-name="two.osf" horiz-adv-x="583" 
d="M483.5 517q61.5 -53 61.5 -134q0 -64 -30.5 -108t-74 -71t-105.5 -53q-30 -12 -54 -18v-2l21 1q62 4 89 4h164v-136h-512v119q136 66 196.5 101t87.5 68.5t27 80.5q0 32 -18 47.5t-51 15.5q-74 0 -74 -88q0 -16 1 -25l-182 41q-3 91 57 150.5t203 59.5q132 0 193.5 -53z
" />
    <glyph glyph-name="three.osf" horiz-adv-x="569" 
d="M458 519.5q63 -50.5 63 -139.5q0 -52 -20 -84.5t-46 -47t-45 -15.5v-4q22 -1 51 -14t51 -45.5t22 -84.5q0 -92 -70.5 -143.5t-181.5 -51.5q-113 0 -179.5 39t-92.5 127l174 72q1 -51 25 -75.5t65 -24.5q34 0 55 19.5t21 54.5q0 36 -19 51t-59 15h-41v113h30q36 0 56 19.5
t20 57.5q0 36 -16.5 55t-49.5 19q-38 0 -58 -22.5t-22 -75.5l-169 54q25 182 262 182q111 0 174 -50.5z" />
    <glyph glyph-name="four.osf" horiz-adv-x="658" 
d="M636 35h-94v-135h-178v135h-336v89l276 436h238v-390h94v-135zM215 170h149v151l3 109h-2q-18 -50 -54 -108z" />
    <glyph glyph-name="five.osf" horiz-adv-x="579" 
d="M487.5 273q49.5 -54 49.5 -146q0 -118 -71 -177.5t-181 -59.5q-97 0 -165 31.5t-103 111.5l168 84q6 -40 29 -64.5t62 -24.5q41 0 62 21.5t21 62.5q0 39 -21.5 60t-59.5 21q-32 0 -51 -8.5t-37 -25.5l-146 29l43 372h427v-148h-285l-13 -107q-3 -20 -5 -26h1q16 22 52 35
t79 13q95 0 144.5 -54z" />
    <glyph glyph-name="six.osf" horiz-adv-x="596" 
d="M481 632.5q62 -37.5 83 -122.5l-163 -61q-7 36 -25 55t-50 19q-52 0 -82.5 -42.5t-30.5 -137.5v-10h3q17 35 59 55t91 20q58 0 105 -24t74 -70t27 -108q0 -103 -68.5 -159.5t-188.5 -56.5q-134 0 -208 86t-74 254t79.5 254t215.5 86q91 0 153 -37.5zM261 260
q-20 -20 -20 -56t20 -56t57 -20t56.5 19.5t19.5 56.5t-19.5 56.5t-56.5 19.5t-57 -20z" />
    <glyph glyph-name="seven.osf" horiz-adv-x="612" 
d="M585 560v-139q-112 -110 -161 -240.5t-49 -280.5h-201q0 145 53 271.5t166 237.5h-372v151h564z" />
    <glyph glyph-name="eight.osf" horiz-adv-x="631" 
d="M503.5 617.5q68.5 -49.5 68.5 -137.5q0 -102 -110 -146v-1q61 -19 96 -59.5t35 -95.5q0 -90 -73.5 -139t-204.5 -49q-130 0 -203.5 49t-73.5 139q0 55 34 95.5t96 59.5v1q-53 21 -81 58t-28 88q0 88 68 137.5t188 49.5t188.5 -49.5zM260 515.5q-20 -17.5 -20 -48.5
q0 -32 19.5 -49t55.5 -17t55.5 17t19.5 49q0 31 -20 48.5t-55 17.5t-55 -17.5zM375.5 143.5q21.5 18.5 21.5 51.5t-21.5 51.5t-60.5 18.5q-38 0 -59.5 -18.5t-21.5 -51.5t21.5 -51.5t59.5 -18.5q39 0 60.5 18.5z" />
    <glyph glyph-name="nine.osf" horiz-adv-x="611" 
d="M506 483.5q74 -86.5 74 -258.5q0 -159 -75 -247t-208 -88q-95 0 -157.5 33.5t-93.5 123.5l172 60q5 -41 24 -60t61 -19q100 0 100 161v26h-3q-28 -76 -146 -76q-62 0 -110.5 26.5t-76 74.5t-27.5 110q0 102 70 161t190 59q132 0 206 -86.5zM239 406q-20 -20 -20 -57
q0 -36 20 -56t57 -20t57 20.5t20 55.5q0 36 -20 56.5t-57 20.5t-57 -20z" />
    <glyph glyph-name="zero.tf" 
d="M30 330q0 340 272 340t272 -340t-272 -340t-272 340zM346 163q16 17 23 56.5t7 110.5t-7 110.5t-23 56.5t-44 17t-44 -17t-23 -56.5t-7 -110.5t7 -110.5t23 -56.5t44 -17t44 17z" />
    <glyph glyph-name="one.tf" 
d="M573 151v-151h-506v151h172v325q-36 -33 -77.5 -54.5t-84.5 -25.5l-15 156q58 6 117.5 38.5t84.5 69.5h160v-509h149z" />
    <glyph glyph-name="two.tf" 
d="M49 126q155 89 230 168.5t75 145.5q0 33 -18 53.5t-52 20.5q-82 0 -82 -126l-175 47q0 76 35 129t96 79.5t139 26.5q89 0 147 -32t85 -81t27 -101q0 -92 -69 -166t-198 -142v-2q62 5 146 5h127v-151h-513v126z" />
    <glyph glyph-name="three.tf" 
d="M487 620q63 -50 63 -140q0 -53 -23 -86t-52.5 -47t-48.5 -14v-4q25 0 56 -11.5t56 -44.5t25 -92q0 -57 -34 -100.5t-93 -67t-133 -23.5q-114 0 -180 39t-92 127l181 77q1 -51 22.5 -70.5t60.5 -19.5q31 0 51.5 17.5t20.5 47.5t-18.5 44.5t-57.5 14.5h-40v121h31
q71 0 72 64q0 30 -17 47.5t-44 17.5q-34 0 -55 -20t-20 -66l-175 57q25 182 266 182q115 0 178 -50z" />
    <glyph glyph-name="four.tf" 
d="M313 133h-287v91l229 436h236v-390h99v-137h-99v-133h-178v133zM321 270v90q0 86 3 168h-3q-4 -14 -14 -37t-18 -39l-95 -182h127z" />
    <glyph glyph-name="five.tf" 
d="M510 372.5q55 -54.5 55 -141.5q0 -81 -36.5 -135.5t-97 -80t-134.5 -25.5q-91 0 -156.5 28t-111.5 97l177 102q7 -40 27.5 -59t65.5 -19q40 0 62.5 19t22.5 57q0 37 -21 57.5t-65 20.5q-60 0 -90 -31l-152 26l44 372h426v-153h-281l-12 -94l-6 -30h1q18 21 53 32.5
t78 11.5q96 0 151 -54.5z" />
    <glyph glyph-name="six.tf" 
d="M480.5 634.5q62.5 -35.5 91.5 -113.5l-166 -77q-7 33 -28 50.5t-56 17.5q-44 0 -70.5 -42t-26.5 -119v-17h2q15 35 55.5 54.5t97.5 19.5q59 0 104 -25t70 -70.5t25 -106.5q0 -99 -67 -157.5t-183 -58.5q-139 0 -212.5 86.5t-73.5 253.5q0 171 79.5 255.5t210.5 84.5
q85 0 147.5 -35.5zM272 260q-19 -19 -19 -52q0 -34 19 -52.5t53 -18.5t53 18.5t19 52.5t-19 52.5t-53 18.5t-53 -19z" />
    <glyph glyph-name="seven.tf" 
d="M571 660v-139q-78 -83 -119.5 -155.5t-59 -157t-17.5 -208.5h-203q0 157 51.5 276t161.5 228h-353v156h539z" />
    <glyph glyph-name="eight.tf" 
d="M484.5 616.5q66.5 -50.5 66.5 -138.5q0 -50 -27.5 -87t-76.5 -57v-1q56 -20 87.5 -57.5t31.5 -93.5q0 -91 -70 -141.5t-194 -50.5t-194 50.5t-70 141.5q0 55 31 93.5t88 57.5v1q-48 19 -76 56.5t-28 87.5q0 88 66.5 138.5t182.5 50.5t182.5 -50.5zM249.5 509
q-18.5 -17 -18.5 -48t19 -48t52 -17t52 17t19 48t-18.5 48t-52.5 17t-52.5 -17zM360 149q20 18 20 50t-20 50t-57 18t-57 -18t-20 -50t20 -50t57 -18t57 18z" />
    <glyph glyph-name="nine.tf" 
d="M495.5 584q71.5 -86 71.5 -259q0 -176 -71 -255.5t-210 -79.5q-190 0 -249 142l184 68q7 -32 23.5 -46t50.5 -14q47 0 69.5 37t22.5 112v19h-3q-31 -74 -151 -74q-58 0 -104.5 25t-72.5 72t-26 112q0 105 69 166t192 61q133 0 204.5 -86zM233 496.5q-19 -18.5 -19 -52.5
t19 -52.5t54 -18.5q34 0 53 18.5t19 52.5q0 33 -19 52t-53 19q-35 0 -54 -18.5z" />
    <glyph glyph-name="zero.tosf" 
d="M505 497.5q67 -72.5 67 -217.5t-67 -217.5t-203 -72.5t-203 72.5t-67 217.5t67 217.5t203 72.5t203 -72.5zM246.5 397q-16.5 -35 -16.5 -117t16.5 -117t55.5 -35t55.5 35t16.5 117t-16.5 117t-55.5 35t-55.5 -35z" />
    <glyph glyph-name="one.tosf" 
d="M584 145v-145h-509v145h178v233q-81 -64 -161 -71l-15 145q59 6 123 39t89 69h145v-415h150z" />
    <glyph glyph-name="two.tosf" 
d="M489.5 517q61.5 -53 61.5 -134q0 -64 -30.5 -108t-74 -71t-105.5 -53q-30 -12 -54 -18v-2l21 1q62 4 89 4h164v-136h-512v119q136 66 196.5 101t87.5 68.5t27 80.5q0 32 -18 47.5t-51 15.5q-74 0 -74 -88q0 -16 1 -25l-182 41q-3 91 57 150.5t203 59.5q132 0 193.5 -53z
" />
    <glyph glyph-name="three.tosf" 
d="M475 519.5q63 -50.5 63 -139.5q0 -52 -20 -84.5t-46 -47t-45 -15.5v-4q22 -1 51 -14t51 -45.5t22 -84.5q0 -92 -70.5 -143.5t-181.5 -51.5q-113 0 -179.5 39t-92.5 127l174 72q1 -51 25 -75.5t65 -24.5q34 0 55 19.5t21 54.5q0 36 -19 51t-59 15h-41v113h30q36 0 56 19.5
t20 57.5q0 36 -16.5 55t-49.5 19q-38 0 -58 -22.5t-22 -75.5l-169 54q25 182 262 182q111 0 174 -50.5z" />
    <glyph glyph-name="four.tosf" 
d="M313 35h-290v89l234 436h234v-390h95v-135h-95v-135h-178v135zM321 170v90q0 58 4 170h-3q-11 -34 -35 -77l-102 -183h136z" />
    <glyph glyph-name="five.tosf" 
d="M506.5 273q49.5 -54 49.5 -146q0 -118 -71 -177.5t-181 -59.5q-97 0 -165 31.5t-103 111.5l168 84q6 -40 29 -64.5t62 -24.5q41 0 62 21.5t21 62.5q0 39 -21.5 60t-59.5 21q-32 0 -51 -8.5t-37 -25.5l-146 29l43 372h427v-148h-285l-13 -107q-3 -20 -5 -26h1q16 22 52 35
t79 13q95 0 144.5 -54z" />
    <glyph glyph-name="six.tosf" 
d="M486 632.5q62 -37.5 83 -122.5l-163 -61q-7 36 -25 55t-50 19q-52 0 -82.5 -42.5t-30.5 -137.5v-10h3q17 35 59 55t91 20q58 0 105 -24t74 -70t27 -108q0 -103 -68.5 -159.5t-188.5 -56.5q-134 0 -208 86t-74 254t79.5 254t215.5 86q91 0 153 -37.5zM266 260
q-20 -20 -20 -56t20 -56t57 -20t56.5 19.5t19.5 56.5t-19.5 56.5t-56.5 19.5t-57 -20z" />
    <glyph glyph-name="seven.tosf" 
d="M576 560v-139q-117 -110 -163.5 -236.5t-46.5 -284.5h-200q0 147 52.5 271.5t164.5 237.5h-347v151h540z" />
    <glyph glyph-name="eight.tosf" 
d="M489.5 617.5q68.5 -49.5 68.5 -137.5q0 -102 -110 -146v-1q61 -19 96 -59.5t35 -95.5q0 -90 -73.5 -139t-204.5 -49q-130 0 -203.5 49t-73.5 139q0 55 34 95.5t96 59.5v1q-53 21 -81 58t-28 88q0 88 68 137.5t188 49.5t188.5 -49.5zM246 515.5q-20 -17.5 -20 -48.5
q0 -32 19.5 -49t55.5 -17t55.5 17t19.5 49q0 31 -20 48.5t-55 17.5t-55 -17.5zM361.5 143.5q21.5 18.5 21.5 51.5t-21.5 51.5t-60.5 18.5q-38 0 -59.5 -18.5t-21.5 -51.5t21.5 -51.5t59.5 -18.5q39 0 60.5 18.5z" />
    <glyph glyph-name="nine.tosf" 
d="M500 483.5q74 -86.5 74 -258.5q0 -159 -75 -247t-208 -88q-95 0 -157.5 33.5t-93.5 123.5l172 60q5 -41 24 -60t61 -19q100 0 100 161v26h-3q-28 -76 -146 -76q-62 0 -110.5 26.5t-76 74.5t-27.5 110q0 102 70 161t190 59q132 0 206 -86.5zM233 406q-20 -20 -20 -57
q0 -36 20 -56t57 -20t57 20.5t20 55.5q0 36 -20 56.5t-57 20.5t-57 -20z" />
    <glyph glyph-name="zero.zero" horiz-adv-x="651" 
d="M539.5 585q70.5 -85 70.5 -255t-70.5 -255t-213.5 -85q-144 0 -214.5 85t-70.5 255t70.5 255t214.5 85q143 0 213.5 -85zM276 496.5q-18 -17.5 -26 -57t-8 -109.5q0 -75 10 -115l119 285q-17 14 -45 14q-32 0 -50 -17.5zM375 163.5q18 17.5 26 57t8 109.5q0 66 -8 109
l-118 -282q16 -11 43 -11q31 0 49 17.5z" />
    <glyph glyph-name="zero.osf.zero" horiz-adv-x="622" 
d="M590 280q0 -290 -279 -290t-279 290t279 290t279 -290zM249.5 397q-18.5 -35 -18.5 -117q0 -59 8 -90l116 229q-16 13 -44 13q-43 0 -61.5 -35zM373 163.5q19 35.5 19 116.5q0 53 -7 82l-113 -224q14 -10 39 -10q43 0 62 35.5z" />
    <glyph glyph-name="zero.tf.zero" 
d="M574 330q0 -340 -272 -340t-272 340t272 340t272 -340zM258 497q-16 -17 -23 -56.5t-7 -110.5q0 -64 6 -103l112 270q-16 17 -44 17t-44 -17zM346 163q16 17 23 56.5t7 110.5q0 64 -5 96l-110 -267q16 -13 41 -13q28 0 44 17z" />
    <glyph glyph-name="zero.tosf.zero" 
d="M505 497.5q67 -72.5 67 -217.5t-67 -217.5t-203 -72.5t-203 72.5t-67 217.5t67 217.5t203 72.5t203 -72.5zM246.5 397q-16.5 -35 -16.5 -117q0 -50 6 -83l110 218q-16 17 -44 17q-39 0 -55.5 -35zM357.5 163q16.5 35 16.5 117q0 40 -3 68l-106 -209q14 -11 37 -11
q39 0 55.5 35z" />
    <glyph glyph-name="fraction" unicode="&#x2044;" horiz-adv-x="268" 
d="M305 661h134l-476 -661h-134z" />
    <glyph glyph-name="onehalf" unicode="&#xbd;" horiz-adv-x="988" 
d="M280 665v-397h-141v204q0 25 3 62q-62 -43 -120 -46v116q35 4 78.5 23t59.5 38h120zM623 661h134l-476 -661h-134zM611 84q44 20 88 47q115 70 115 124q0 16 -9 25.5t-27 9.5q-45 0 -42 -70l-139 35q1 69 50 106t134 37q94 0 138.5 -38.5t44.5 -92.5q0 -70 -80 -122
q-33 -23 -86 -40v-2q48 4 102 4h68v-111h-357v88z" />
    <glyph glyph-name="onequarter" unicode="&#xbc;" horiz-adv-x="919" 
d="M280 665v-397h-141v204q0 25 3 62q-62 -43 -120 -46v116q35 4 78.5 23t59.5 38h120zM623 661h134l-476 -661h-134zM905 75h-56v-79h-125v79h-202v64l155 255h172v-225h56v-94zM724 169v64q0 21 2 59l1 23h-3q-12 -33 -30 -62l-52 -84h82z" />
    <glyph glyph-name="threequarters" unicode="&#xbe;" horiz-adv-x="987" 
d="M314 640.5q43 -29.5 43 -85.5q0 -38 -22.5 -61t-62.5 -26v-4q46 0 69.5 -21t23.5 -61q0 -55 -44.5 -87.5t-122.5 -32.5q-80 0 -127.5 24t-66.5 79l132 47q0 -50 49 -50q19 0 29.5 9.5t10.5 25.5q0 15 -9.5 22t-30.5 7h-22v70h18q38 0 38 34q0 33 -35 33q-41 0 -45 -48
l-127 40q9 59 57 87t121 28q81 0 124 -29.5zM691 661h134l-476 -661h-134zM972 75h-56v-79h-125v79h-202v64l155 255h172v-225h56v-94zM791 169v64q0 21 2 59l1 23h-3q-12 -33 -30 -62l-52 -84h82z" />
    <glyph glyph-name="zero.dnom" horiz-adv-x="419" 
d="M67 40q-46 50 -46 154t46 154t142 50q97 0 143 -50t46 -154t-46 -154t-143 -50q-96 0 -142 50zM245.5 112q10.5 23 10.5 82t-10.5 82t-36.5 23t-36 -23t-10 -82t10 -82t36 -23t36.5 23z" />
    <glyph glyph-name="one.dnom" horiz-adv-x="318" 
d="M280 393v-397h-141v204q0 37 3 62q-62 -43 -120 -46v116q35 4 78.5 23t59.5 38h120z" />
    <glyph glyph-name="two.dnom" horiz-adv-x="402" 
d="M25 84q44 20 88 47q115 70 115 124q0 16 -9 25.5t-27 9.5q-45 0 -42 -70l-139 35q1 69 50 106t134 37q94 0 138.5 -38.5t44.5 -92.5q0 -70 -80 -122q-33 -23 -86 -40v-2q48 4 102 4h68v-111h-357v88z" />
    <glyph glyph-name="three.dnom" horiz-adv-x="386" 
d="M314 368.5q43 -29.5 43 -85.5q0 -38 -22.5 -61t-62.5 -26v-4q46 0 69.5 -21t23.5 -61q0 -55 -44.5 -87.5t-122.5 -32.5q-80 0 -127.5 24t-66.5 79l132 47q0 -50 49 -50q19 0 29.5 9.5t10.5 25.5q0 15 -9.5 22t-30.5 7h-22v70h18q38 0 38 34q0 33 -35 33q-41 0 -45 -48
l-127 40q9 59 57 87t121 28q81 0 124 -29.5z" />
    <glyph glyph-name="four.dnom" horiz-adv-x="408" 
d="M394 75h-56v-79h-125v79h-202v64l155 255h172v-225h56v-94zM213 169v64q0 21 2 59l1 23h-3q-12 -33 -30 -62l-52 -84h82z" />
    <glyph glyph-name="five.dnom" horiz-adv-x="394" 
d="M334 219q32 -31 32 -89q0 -71 -48.5 -105.5t-126.5 -34.5q-68 0 -112 17t-69 62l128 54q6 -17 17.5 -25.5t32.5 -8.5q20 0 32 10t12 29q0 16 -11.5 25.5t-31.5 9.5q-18 0 -28.5 -4t-18.5 -13l-116 13l26 234h299v-104h-193l-3 -33q-1 -14 -7 -24h1q21 18 87 18t98 -31z
" />
    <glyph glyph-name="six.dnom" horiz-adv-x="412" 
d="M73 40.5q-49 50.5 -49 153.5q0 100 55.5 152t146.5 52q62 0 103.5 -20t62.5 -68l-109 -51q-5 18 -19 28.5t-35 10.5q-32 0 -51 -24t-19 -64q0 -8 1 -11h1q31 40 103 40q58 0 94.5 -29.5t36.5 -91.5q0 -61 -46.5 -94.5t-133.5 -33.5q-93 0 -142 50.5zM250.5 97
q11.5 9 11.5 26q0 35 -43 35q-21 0 -32.5 -9t-11.5 -26q0 -35 43 -35q21 0 32.5 9z" />
    <glyph glyph-name="seven.dnom" horiz-adv-x="370" 
d="M361 393v-87q-65 -60 -90.5 -138t-25.5 -172h-144q0 77 29 152.5t82 132.5h-200v112h349z" />
    <glyph glyph-name="eight.dnom" horiz-adv-x="428" 
d="M341.5 366q47.5 -32 47.5 -86q0 -30 -17.5 -52.5t-52.5 -33.5v-1q80 -20 80 -87q0 -55 -49 -85.5t-137 -30.5q-87 0 -135.5 30.5t-48.5 85.5q0 33 19.5 55t58.5 32v1q-33 10 -51 32.5t-18 53.5q0 54 47.5 86t127.5 32q81 0 128.5 -32zM182 301.5q-11 -9.5 -11 -26.5
q0 -35 43 -35t43 35q0 17 -11 26.5t-32 9.5t-32 -9.5zM247.5 86.5q11.5 9.5 11.5 27.5q0 17 -11.5 26.5t-33.5 9.5t-34 -9.5t-12 -26.5q0 -18 12 -27.5t34 -9.5t33.5 9.5z" />
    <glyph glyph-name="nine.dnom" horiz-adv-x="417" 
d="M342.5 347q50.5 -51 50.5 -153q0 -105 -55 -154.5t-149 -49.5q-64 0 -105 21.5t-56 75.5l120 36q2 -18 13.5 -25.5t35.5 -7.5q60 0 60 79v12h-1q-11 -18 -34.5 -28.5t-55.5 -10.5q-65 0 -106 35t-41 90q0 63 48.5 97t131.5 34q93 0 143.5 -51zM157 265q0 -34 42 -34
q43 0 43 34q0 17 -11 26.5t-32 9.5q-42 0 -42 -36z" />
    <glyph glyph-name="zero.numr" horiz-adv-x="419" 
d="M67 312q-46 50 -46 154t46 154t142 50q97 0 143 -50t46 -154t-46 -154t-143 -50q-96 0 -142 50zM245.5 384q10.5 23 10.5 82t-10.5 82t-36.5 23t-36 -23t-10 -82t10 -82t36 -23t36.5 23z" />
    <glyph glyph-name="one.numr" horiz-adv-x="318" 
d="M280 665v-397h-141v204q0 25 3 62q-62 -43 -120 -46v116q35 4 78.5 23t59.5 38h120z" />
    <glyph glyph-name="two.numr" horiz-adv-x="402" 
d="M25 356q44 20 88 47q115 70 115 124q0 16 -9 25.5t-27 9.5q-45 0 -42 -70l-139 35q1 69 50 106t134 37q94 0 138.5 -38.5t44.5 -92.5q0 -70 -80 -122q-33 -23 -86 -40v-2q48 4 102 4h68v-111h-357v88z" />
    <glyph glyph-name="three.numr" horiz-adv-x="386" 
d="M314 640.5q43 -29.5 43 -85.5q0 -38 -22.5 -61t-62.5 -26v-4q46 0 69.5 -21t23.5 -61q0 -55 -44.5 -87.5t-122.5 -32.5q-80 0 -127.5 24t-66.5 79l132 47q0 -50 49 -50q19 0 29.5 9.5t10.5 25.5q0 15 -9.5 22t-30.5 7h-22v70h18q38 0 38 34q0 33 -35 33q-41 0 -45 -48
l-127 40q9 59 57 87t121 28q81 0 124 -29.5z" />
    <glyph glyph-name="four.numr" horiz-adv-x="408" 
d="M394 347h-56v-79h-125v79h-202v64l155 255h172v-225h56v-94zM213 441v64q0 21 2 59l1 23h-3q-12 -33 -30 -62l-52 -84h82z" />
    <glyph glyph-name="five.numr" horiz-adv-x="394" 
d="M334 491q32 -31 32 -89q0 -71 -48.5 -105.5t-126.5 -34.5q-68 0 -112 17t-69 62l128 54q6 -17 17.5 -25.5t32.5 -8.5q20 0 32 10t12 29q0 16 -11.5 25.5t-31.5 9.5q-18 0 -28.5 -4t-18.5 -13l-116 13l26 234h299v-104h-193l-3 -33q-1 -14 -7 -24h1q21 18 87 18t98 -31z
" />
    <glyph glyph-name="six.numr" horiz-adv-x="412" 
d="M73 312.5q-49 50.5 -49 153.5q0 100 55.5 152t146.5 52q62 0 103.5 -20t62.5 -68l-109 -51q-5 18 -19 28.5t-35 10.5q-32 0 -51 -24t-19 -64q0 -8 1 -11h1q31 40 103 40q58 0 94.5 -29.5t36.5 -91.5q0 -61 -46.5 -94.5t-133.5 -33.5q-93 0 -142 50.5zM250.5 369
q11.5 9 11.5 26q0 35 -43 35q-21 0 -32.5 -9t-11.5 -26q0 -35 43 -35q21 0 32.5 9z" />
    <glyph glyph-name="seven.numr" horiz-adv-x="370" 
d="M361 665v-87q-65 -60 -90.5 -138t-25.5 -172h-144q0 77 29 152.5t82 132.5h-200v112h349z" />
    <glyph glyph-name="eight.numr" horiz-adv-x="428" 
d="M341.5 638q47.5 -32 47.5 -86q0 -30 -17.5 -52.5t-52.5 -33.5v-1q80 -20 80 -87q0 -55 -49 -85.5t-137 -30.5q-87 0 -135.5 30.5t-48.5 85.5q0 33 19.5 55t58.5 32v1q-33 10 -51 32.5t-18 53.5q0 54 47.5 86t127.5 32q81 0 128.5 -32zM182 573.5q-11 -9.5 -11 -26.5
q0 -35 43 -35t43 35q0 17 -11 26.5t-32 9.5t-32 -9.5zM247.5 358.5q11.5 9.5 11.5 27.5q0 17 -11.5 26.5t-33.5 9.5t-34 -9.5t-12 -26.5q0 -18 12 -27.5t34 -9.5t33.5 9.5z" />
    <glyph glyph-name="nine.numr" horiz-adv-x="417" 
d="M342.5 619q50.5 -51 50.5 -153q0 -105 -55 -154.5t-149 -49.5q-64 0 -105 21.5t-56 75.5l120 36q2 -18 13.5 -25.5t35.5 -7.5q60 0 60 79v12h-1q-11 -18 -34.5 -28.5t-55.5 -10.5q-65 0 -106 35t-41 90q0 63 48.5 97t131.5 34q93 0 143.5 -51zM157 537q0 -34 42 -34
q43 0 43 34q0 17 -11 26.5t-32 9.5q-42 0 -42 -36z" />
    <glyph glyph-name="uni2780" unicode="&#x2780;" horiz-adv-x="910" 
d="M255 6.5q-87 46.5 -135 130.5t-48 193t48 193t135 130.5t200 46.5t200 -46.5t135 -130.5t48 -193t-48 -193t-135 -130.5t-200 -46.5t-200 46.5zM604.5 80.5q64.5 35.5 100.5 100.5t36 149t-36 149t-100.5 100.5t-149.5 35.5t-149.5 -35.5t-100.5 -100.5t-36 -149t36 -149
t100.5 -100.5t149.5 -35.5t149.5 35.5zM555 533v-397h-141v204q0 37 3 62q-62 -43 -120 -46v116q35 4 78.5 23t59.5 38h120z" />
    <glyph glyph-name="uni2781" unicode="&#x2781;" horiz-adv-x="910" 
d="M255 6.5q-87 46.5 -135 130.5t-48 193t48 193t135 130.5t200 46.5t200 -46.5t135 -130.5t48 -193t-48 -193t-135 -130.5t-200 -46.5t-200 46.5zM604.5 80.5q64.5 35.5 100.5 100.5t36 149t-36 149t-100.5 100.5t-149.5 35.5t-149.5 -35.5t-100.5 -100.5t-36 -149t36 -149
t100.5 -100.5t149.5 -35.5t149.5 35.5zM278 233q44 20 88 47q115 70 115 124q0 16 -9 25.5t-27 9.5q-45 0 -42 -70l-139 35q1 69 50 106t134 37q94 0 138.5 -38.5t44.5 -92.5q0 -70 -80 -122q-33 -23 -86 -40v-2q48 4 102 4h68v-111h-357v88z" />
    <glyph glyph-name="uni2782" unicode="&#x2782;" horiz-adv-x="910" 
d="M255 6.5q-87 46.5 -135 130.5t-48 193t48 193t135 130.5t200 46.5t200 -46.5t135 -130.5t48 -193t-48 -193t-135 -130.5t-200 -46.5t-200 46.5zM604.5 80.5q64.5 35.5 100.5 100.5t36 149t-36 149t-100.5 100.5t-149.5 35.5t-149.5 -35.5t-100.5 -100.5t-36 -149t36 -149
t100.5 -100.5t149.5 -35.5t149.5 35.5zM583 505.5q43 -29.5 43 -85.5q0 -38 -22.5 -61t-62.5 -26v-4q46 0 69.5 -21t23.5 -61q0 -55 -44.5 -87.5t-122.5 -32.5q-80 0 -127.5 24t-66.5 79l132 47q0 -50 49 -50q19 0 29.5 9.5t10.5 25.5q0 15 -9.5 22t-30.5 7h-22v70h18
q38 0 38 34q0 33 -35 33q-41 0 -45 -48l-127 40q9 59 57 87t121 28q81 0 124 -29.5z" />
    <glyph glyph-name="uni2783" unicode="&#x2783;" horiz-adv-x="910" 
d="M255 6.5q-87 46.5 -135 130.5t-48 193t48 193t135 130.5t200 46.5t200 -46.5t135 -130.5t48 -193t-48 -193t-135 -130.5t-200 -46.5t-200 46.5zM604.5 80.5q64.5 35.5 100.5 100.5t36 149t-36 149t-100.5 100.5t-149.5 35.5t-149.5 -35.5t-100.5 -100.5t-36 -149t36 -149
t100.5 -100.5t149.5 -35.5t149.5 35.5zM623 215h-56v-79h-125v79h-202v64l155 255h172v-225h56v-94zM442 309v64q0 21 2 59l1 23h-3q-12 -33 -30 -62l-52 -84h82z" />
    <glyph glyph-name="uni2784" unicode="&#x2784;" horiz-adv-x="910" 
d="M255 6.5q-87 46.5 -135 130.5t-48 193t48 193t135 130.5t200 46.5t200 -46.5t135 -130.5t48 -193t-48 -193t-135 -130.5t-200 -46.5t-200 46.5zM604.5 80.5q64.5 35.5 100.5 100.5t36 149t-36 149t-100.5 100.5t-149.5 35.5t-149.5 -35.5t-100.5 -100.5t-36 -149t36 -149
t100.5 -100.5t149.5 -35.5t149.5 35.5zM596 349q32 -31 32 -89q0 -71 -48.5 -105.5t-126.5 -34.5q-68 0 -112 17t-69 62l128 54q6 -17 17.5 -25.5t32.5 -8.5q20 0 32 10t12 29q0 16 -11.5 25.5t-31.5 9.5q-18 0 -28.5 -4t-18.5 -13l-116 13l26 234h299v-104h-193l-3 -33
q-1 -14 -7 -24h1q21 18 87 18t98 -31z" />
    <glyph glyph-name="uni2785" unicode="&#x2785;" horiz-adv-x="910" 
d="M255 6.5q-87 46.5 -135 130.5t-48 193t48 193t135 130.5t200 46.5t200 -46.5t135 -130.5t48 -193t-48 -193t-135 -130.5t-200 -46.5t-200 46.5zM604.5 80.5q64.5 35.5 100.5 100.5t36 149t-36 149t-100.5 100.5t-149.5 35.5t-149.5 -35.5t-100.5 -100.5t-36 -149t36 -149
t100.5 -100.5t149.5 -35.5t149.5 35.5zM310 174.5q-49 50.5 -49 153.5q0 100 55.5 152t146.5 52q62 0 103.5 -20t62.5 -68l-109 -51q-5 18 -19 28.5t-35 10.5q-32 0 -51 -24t-19 -64q0 -8 1 -11h1q31 40 103 40q58 0 94.5 -29.5t36.5 -91.5q0 -61 -46.5 -94.5t-133.5 -33.5
q-93 0 -142 50.5zM487.5 231q11.5 9 11.5 26q0 35 -43 35q-21 0 -32.5 -9t-11.5 -26q0 -35 43 -35q21 0 32.5 9z" />
    <glyph glyph-name="uni2786" unicode="&#x2786;" horiz-adv-x="910" 
d="M255 6.5q-87 46.5 -135 130.5t-48 193t48 193t135 130.5t200 46.5t200 -46.5t135 -130.5t48 -193t-48 -193t-135 -130.5t-200 -46.5t-200 46.5zM604.5 80.5q64.5 35.5 100.5 100.5t36 149t-36 149t-100.5 100.5t-149.5 35.5t-149.5 -35.5t-100.5 -100.5t-36 -149t36 -149
t100.5 -100.5t149.5 -35.5t149.5 35.5zM633 516v-87q-65 -60 -90.5 -138t-25.5 -172h-144q0 77 29 152.5t82 132.5h-200v112h349z" />
    <glyph glyph-name="uni2787" unicode="&#x2787;" horiz-adv-x="910" 
d="M255 6.5q-87 46.5 -135 130.5t-48 193t48 193t135 130.5t200 46.5t200 -46.5t135 -130.5t48 -193t-48 -193t-135 -130.5t-200 -46.5t-200 46.5zM604.5 80.5q64.5 35.5 100.5 100.5t36 149t-36 149t-100.5 100.5t-149.5 35.5t-149.5 -35.5t-100.5 -100.5t-36 -149t36 -149
t100.5 -100.5t149.5 -35.5t149.5 35.5zM583.5 504q47.5 -32 47.5 -86q0 -30 -17.5 -52.5t-52.5 -33.5v-1q80 -20 80 -87q0 -55 -49 -85.5t-137 -30.5q-87 0 -135.5 30.5t-48.5 85.5q0 33 19.5 55t58.5 32v1q-33 10 -51 32.5t-18 53.5q0 54 47.5 86t127.5 32q81 0 128.5 -32z
M424 439.5q-11 -9.5 -11 -26.5q0 -35 43 -35t43 35q0 17 -11 26.5t-32 9.5t-32 -9.5zM489.5 224.5q11.5 9.5 11.5 27.5q0 17 -11.5 26.5t-33.5 9.5t-34 -9.5t-12 -26.5q0 -18 12 -27.5t34 -9.5t33.5 9.5z" />
    <glyph glyph-name="uni2788" unicode="&#x2788;" horiz-adv-x="910" 
d="M255 6.5q-87 46.5 -135 130.5t-48 193t48 193t135 130.5t200 46.5t200 -46.5t135 -130.5t48 -193t-48 -193t-135 -130.5t-200 -46.5t-200 46.5zM604.5 80.5q64.5 35.5 100.5 100.5t36 149t-36 149t-100.5 100.5t-149.5 35.5t-149.5 -35.5t-100.5 -100.5t-36 -149t36 -149
t100.5 -100.5t149.5 -35.5t149.5 35.5zM603.5 482q50.5 -51 50.5 -153q0 -105 -55 -154.5t-149 -49.5q-64 0 -105 21.5t-56 75.5l120 36q2 -18 13.5 -25.5t35.5 -7.5q60 0 60 79v12h-1q-11 -18 -34.5 -28.5t-55.5 -10.5q-65 0 -106 35t-41 90q0 63 48.5 97t131.5 34
q93 0 143.5 -51zM418 400q0 -34 42 -34q43 0 43 34q0 17 -11 26.5t-32 9.5q-42 0 -42 -36z" />
    <glyph glyph-name="uni2080" unicode="&#x2080;" horiz-adv-x="419" 
d="M67 -145q-46 50 -46 154t46 154t142 50q97 0 143 -50t46 -154t-46 -154t-143 -50q-96 0 -142 50zM245.5 -73q10.5 23 10.5 82t-10.5 82t-36.5 23t-36 -23t-10 -82t10 -82t36 -23t36.5 23z" />
    <glyph glyph-name="uni2081" unicode="&#x2081;" horiz-adv-x="318" 
d="M280 208v-397h-141v204q0 37 3 62q-62 -43 -120 -46v116q35 4 78.5 23t59.5 38h120z" />
    <glyph glyph-name="uni2082" unicode="&#x2082;" horiz-adv-x="402" 
d="M25 -101q44 20 88 47q115 70 115 124q0 16 -9 25.5t-27 9.5q-45 0 -42 -70l-139 35q1 69 50 106t134 37q94 0 138.5 -38.5t44.5 -92.5q0 -70 -80 -122q-33 -23 -86 -40v-2q48 4 102 4h68v-111h-357v88z" />
    <glyph glyph-name="uni2083" unicode="&#x2083;" horiz-adv-x="386" 
d="M314 183.5q43 -29.5 43 -85.5q0 -38 -22.5 -61t-62.5 -26v-4q46 0 69.5 -21t23.5 -61q0 -55 -44.5 -87.5t-122.5 -32.5q-80 0 -127.5 24t-66.5 79l132 47q0 -50 49 -50q19 0 29.5 9.5t10.5 25.5q0 15 -9.5 22t-30.5 7h-22v70h18q38 0 38 34q0 33 -35 33q-41 0 -45 -48
l-127 40q9 59 57 87t121 28q81 0 124 -29.5z" />
    <glyph glyph-name="uni2084" unicode="&#x2084;" horiz-adv-x="408" 
d="M394 -110h-56v-79h-125v79h-202v64l155 255h172v-225h56v-94zM213 -16v64q0 21 2 59l1 23h-3q-12 -33 -30 -62l-52 -84h82z" />
    <glyph glyph-name="uni2085" unicode="&#x2085;" horiz-adv-x="394" 
d="M334 34q32 -31 32 -89q0 -71 -48.5 -105.5t-126.5 -34.5q-68 0 -112 17t-69 62l128 54q6 -17 17.5 -25.5t32.5 -8.5q20 0 32 10t12 29q0 16 -11.5 25.5t-31.5 9.5q-18 0 -28.5 -4t-18.5 -13l-116 13l26 234h299v-104h-193l-3 -33q-1 -14 -7 -24h1q21 18 87 18t98 -31z
" />
    <glyph glyph-name="uni2086" unicode="&#x2086;" horiz-adv-x="412" 
d="M73 -144.5q-49 50.5 -49 153.5q0 100 55.5 152t146.5 52q62 0 103.5 -20t62.5 -68l-109 -51q-5 18 -19 28.5t-35 10.5q-32 0 -51 -24t-19 -64q0 -8 1 -11h1q31 40 103 40q58 0 94.5 -29.5t36.5 -91.5q0 -61 -46.5 -94.5t-133.5 -33.5q-93 0 -142 50.5zM250.5 -88
q11.5 9 11.5 26q0 35 -43 35q-21 0 -32.5 -9t-11.5 -26q0 -35 43 -35q21 0 32.5 9z" />
    <glyph glyph-name="uni2087" unicode="&#x2087;" horiz-adv-x="370" 
d="M361 208v-87q-65 -60 -90.5 -138t-25.5 -172h-144q0 77 29 152.5t82 132.5h-200v112h349z" />
    <glyph glyph-name="uni2088" unicode="&#x2088;" horiz-adv-x="428" 
d="M341.5 181q47.5 -32 47.5 -86q0 -30 -17.5 -52.5t-52.5 -33.5v-1q80 -20 80 -87q0 -55 -49 -85.5t-137 -30.5q-87 0 -135.5 30.5t-48.5 85.5q0 33 19.5 55t58.5 32v1q-33 10 -51 32.5t-18 53.5q0 54 47.5 86t127.5 32q81 0 128.5 -32zM182 116.5q-11 -9.5 -11 -26.5
q0 -35 43 -35t43 35q0 17 -11 26.5t-32 9.5t-32 -9.5zM247.5 -98.5q11.5 9.5 11.5 27.5q0 17 -11.5 26.5t-33.5 9.5t-34 -9.5t-12 -26.5q0 -18 12 -27.5t34 -9.5t33.5 9.5z" />
    <glyph glyph-name="uni2089" unicode="&#x2089;" horiz-adv-x="417" 
d="M342.5 162q50.5 -51 50.5 -153q0 -105 -55 -154.5t-149 -49.5q-64 0 -105 21.5t-56 75.5l120 36q2 -18 13.5 -25.5t35.5 -7.5q60 0 60 79v12h-1q-11 -18 -34.5 -28.5t-55.5 -10.5q-65 0 -106 35t-41 90q0 63 48.5 97t131.5 34q93 0 143.5 -51zM157 80q0 -34 42 -34
q43 0 43 34q0 17 -11 26.5t-32 9.5q-42 0 -42 -36z" />
    <glyph glyph-name="uni2070" unicode="&#x2070;" horiz-adv-x="419" 
d="M67 377q-46 50 -46 154t46 154t142 50q97 0 143 -50t46 -154t-46 -154t-143 -50q-96 0 -142 50zM245.5 449q10.5 23 10.5 82t-10.5 82t-36.5 23t-36 -23t-10 -82t10 -82t36 -23t36.5 23z" />
    <glyph glyph-name="uni00B9" unicode="&#xb9;" horiz-adv-x="318" 
d="M280 730v-397h-141v204q0 37 3 62q-62 -43 -120 -46v116q35 4 78.5 23t59.5 38h120z" />
    <glyph glyph-name="uni00B2" unicode="&#xb2;" horiz-adv-x="402" 
d="M25 421q44 20 88 47q115 70 115 124q0 16 -9 25.5t-27 9.5q-45 0 -42 -70l-139 35q1 69 50 106t134 37q94 0 138.5 -38.5t44.5 -92.5q0 -70 -80 -122q-33 -23 -86 -40v-2q48 4 102 4h68v-111h-357v88z" />
    <glyph glyph-name="uni00B3" unicode="&#xb3;" horiz-adv-x="386" 
d="M314 705.5q43 -29.5 43 -85.5q0 -38 -22.5 -61t-62.5 -26v-4q46 0 69.5 -21t23.5 -61q0 -55 -44.5 -87.5t-122.5 -32.5q-80 0 -127.5 24t-66.5 79l132 47q0 -50 49 -50q19 0 29.5 9.5t10.5 25.5q0 15 -9.5 22t-30.5 7h-22v70h18q38 0 38 34q0 33 -35 33q-41 0 -45 -48
l-127 40q9 59 57 87t121 28q81 0 124 -29.5z" />
    <glyph glyph-name="uni2074" unicode="&#x2074;" horiz-adv-x="408" 
d="M394 412h-56v-79h-125v79h-202v64l155 255h172v-225h56v-94zM213 506v64q0 21 2 59l1 23h-3q-12 -33 -30 -62l-52 -84h82z" />
    <glyph glyph-name="uni2075" unicode="&#x2075;" horiz-adv-x="394" 
d="M334 556q32 -31 32 -89q0 -71 -48.5 -105.5t-126.5 -34.5q-68 0 -112 17t-69 62l128 54q6 -17 17.5 -25.5t32.5 -8.5q20 0 32 10t12 29q0 16 -11.5 25.5t-31.5 9.5q-18 0 -28.5 -4t-18.5 -13l-116 13l26 234h299v-104h-193l-3 -33q-1 -14 -7 -24h1q21 18 87 18t98 -31z
" />
    <glyph glyph-name="uni2076" unicode="&#x2076;" horiz-adv-x="412" 
d="M73 377.5q-49 50.5 -49 153.5q0 100 55.5 152t146.5 52q62 0 103.5 -20t62.5 -68l-109 -51q-5 18 -19 28.5t-35 10.5q-32 0 -51 -24t-19 -64q0 -8 1 -11h1q31 40 103 40q58 0 94.5 -29.5t36.5 -91.5q0 -61 -46.5 -94.5t-133.5 -33.5q-93 0 -142 50.5zM250.5 434
q11.5 9 11.5 26q0 35 -43 35q-21 0 -32.5 -9t-11.5 -26q0 -35 43 -35q21 0 32.5 9z" />
    <glyph glyph-name="uni2077" unicode="&#x2077;" horiz-adv-x="370" 
d="M361 730v-87q-65 -60 -90.5 -138t-25.5 -172h-144q0 77 29 152.5t82 132.5h-200v112h349z" />
    <glyph glyph-name="uni2078" unicode="&#x2078;" horiz-adv-x="428" 
d="M341.5 703q47.5 -32 47.5 -86q0 -30 -17.5 -52.5t-52.5 -33.5v-1q80 -20 80 -87q0 -55 -49 -85.5t-137 -30.5q-87 0 -135.5 30.5t-48.5 85.5q0 33 19.5 55t58.5 32v1q-33 10 -51 32.5t-18 53.5q0 54 47.5 86t127.5 32q81 0 128.5 -32zM182 638.5q-11 -9.5 -11 -26.5
q0 -35 43 -35t43 35q0 17 -11 26.5t-32 9.5t-32 -9.5zM247.5 423.5q11.5 9.5 11.5 27.5q0 17 -11.5 26.5t-33.5 9.5t-34 -9.5t-12 -26.5q0 -18 12 -27.5t34 -9.5t33.5 9.5z" />
    <glyph glyph-name="uni2079" unicode="&#x2079;" horiz-adv-x="417" 
d="M342.5 684q50.5 -51 50.5 -153q0 -105 -55 -154.5t-149 -49.5q-64 0 -105 21.5t-56 75.5l120 36q2 -18 13.5 -25.5t35.5 -7.5q60 0 60 79v12h-1q-11 -18 -34.5 -28.5t-55.5 -10.5q-65 0 -106 35t-41 90q0 63 48.5 97t131.5 34q93 0 143.5 -51zM157 602q0 -34 42 -34
q43 0 43 34q0 17 -11 26.5t-32 9.5q-42 0 -42 -36z" />
    <glyph glyph-name="zero.sc" horiz-adv-x="603" 
d="M499.5 494q68.5 -74 68.5 -214t-68.5 -214t-198.5 -74t-198.5 74t-68.5 214t68.5 214t198.5 74t198.5 -74zM247 387q-15 -30 -15 -107t15 -107t54 -30t54 30t15 107t-15 107t-54 30t-54 -30z" />
    <glyph glyph-name="one.sc" horiz-adv-x="431" 
d="M369 560v-560h-202v272q0 47 6 107q-66 -48 -137 -55l-17 154q53 7 103 29.5t81 52.5h166z" />
    <glyph glyph-name="two.sc" horiz-adv-x="572" 
d="M424.5 542q54.5 -26 79 -66t24.5 -85q0 -98 -62 -154t-162 -96v-2q39 4 108 4h121v-143h-484v118q163 81 224.5 135.5t61.5 103.5q0 28 -15.5 44t-44.5 16q-36 0 -54.5 -26t-16.5 -72l-173 43q-2 55 24 101.5t83.5 75.5t147.5 29q84 0 138.5 -26z" />
    <glyph glyph-name="three.sc" horiz-adv-x="561" 
d="M407.5 546.5q51.5 -21.5 78 -57.5t26.5 -80q0 -48 -18.5 -76t-44 -39t-48.5 -11v-3q24 2 52.5 -8.5t49.5 -38t21 -72.5q0 -50 -31 -88.5t-85.5 -59.5t-122.5 -21q-111 0 -175 33t-90 111l179 66q2 -37 19 -53t55 -16q29 0 45.5 13.5t16.5 36.5t-14.5 32.5t-43.5 9.5h-50
v106h35q61 0 61 51q1 20 -12.5 32.5t-41.5 12.5q-29 0 -45.5 -16.5t-15.5 -45.5l-172 50q8 73 77.5 113t170.5 40q72 0 123.5 -21.5z" />
    <glyph glyph-name="four.sc" horiz-adv-x="635" 
d="M339 105h-301v95l244 360h238v-321h87v-134h-87v-105h-181v105zM340 239l6 212h-3q-12 -32 -42 -79l-89 -133h128z" />
    <glyph glyph-name="five.sc" horiz-adv-x="557" 
d="M471 313q47 -46 47 -121q0 -93 -62 -146.5t-173 -53.5q-90 0 -152.5 25t-97.5 83l161 81q13 -25 30 -36.5t52 -11.5q31 0 48.5 15.5t17.5 40.5q0 28 -18.5 42t-51.5 14q-25 0 -42 -7t-30 -23l-148 20l37 325h406v-137h-262l-9 -72q-4 -23 -10 -37l2 -1q39 46 133 46
q75 0 122 -46z" />
    <glyph glyph-name="six.sc" horiz-adv-x="565" 
d="M102.5 65.5q-68.5 73.5 -68.5 217.5q0 139 72 212t197 73q88 0 140.5 -29.5t85.5 -95.5l-146 -68q-9 26 -27 38t-49 12q-43 0 -70 -32.5t-27 -98.5v-10h2q44 61 144 61q75 0 126.5 -42.5t51.5 -123.5q0 -84 -60.5 -135.5t-175.5 -51.5q-127 0 -195.5 73.5zM344 137
q16 14 16 38t-16 37.5t-44 13.5t-44 -13.5t-16 -37.5t16 -38t44 -14t44 14z" />
    <glyph glyph-name="seven.sc" horiz-adv-x="565" 
d="M532 560v-139q-99 -80 -133.5 -188.5t-34.5 -232.5h-196q2 252 164 410h-294v150h494z" />
    <glyph glyph-name="eight.sc" horiz-adv-x="579" 
d="M102 35q-68 43 -68 117q0 91 104 132v2q-93 37 -93 115q0 79 65.5 123t178.5 44q114 0 179.5 -44t65.5 -123q0 -78 -94 -115v-2q105 -41 105 -132q0 -74 -68 -117t-188 -43q-119 0 -187 43zM333.5 350.5q16.5 13.5 16.5 36.5t-16.5 36.5t-44.5 13.5t-44.5 -13.5
t-16.5 -36.5t16.5 -36.5t44.5 -13.5t44.5 13.5zM337.5 136q17.5 14 17.5 38q0 25 -17.5 38.5t-48.5 13.5q-30 0 -47.5 -13.5t-17.5 -38.5q0 -24 17 -38t48 -14t48.5 14z" />
    <glyph glyph-name="nine.sc" horiz-adv-x="571" 
d="M125.5 20q-56.5 28 -90.5 93l155 75q3 -29 22.5 -44t53.5 -15q46 0 70.5 31.5t24.5 105.5v10h-3q-13 -33 -48.5 -50t-90.5 -17q-49 0 -92 19t-69.5 57.5t-26.5 93.5q0 85 63 137t180 52q126 0 194.5 -74t68.5 -218q0 -140 -67.5 -212t-198.5 -72q-89 0 -145.5 28z
M315.5 338q16.5 14 16.5 38q0 25 -16 38.5t-45 13.5t-44.5 -13.5t-15.5 -38.5q0 -24 16 -38t44 -14t44.5 14z" />
    <glyph glyph-name="asterisk" unicode="*" horiz-adv-x="594" 
d="M416 424l87 -112l-114 -83l-80 118l-12 29l-13 -29l-80 -118l-114 83l88 112l23 21l-31 3l-137 39l44 135l134 -49l27 -16l-7 31l-5 142h141l-5 -142l-7 -31l27 16l135 49l43 -135l-137 -39l-31 -3z" />
    <glyph glyph-name="backslash" unicode="\" horiz-adv-x="479" 
d="M198 706l271 -776h-188l-271 776h188z" />
    <glyph glyph-name="periodcentered" unicode="&#xb7;" horiz-adv-x="291" 
d="M228.5 425.5q29.5 -26.5 29.5 -72.5q0 -47 -29.5 -73.5t-82.5 -26.5t-83 26.5t-30 73.5t30 73t83 26t82.5 -26.5z" />
    <glyph glyph-name="bullet" unicode="&#x2022;" horiz-adv-x="430" 
d="M335.5 448q43.5 -42 43.5 -117q0 -74 -43.5 -116t-120.5 -42t-120.5 42t-43.5 116q0 75 43.5 117t120.5 42t120.5 -42z" />
    <glyph glyph-name="colon" unicode=":" horiz-adv-x="304" 
d="M234.5 484q29.5 -26 29.5 -73t-29.5 -73t-82.5 -26t-82.5 26t-29.5 73q0 46 29.5 72.5t82.5 26.5t82.5 -26zM234.5 164q29.5 -26 29.5 -73t-29.5 -73t-82.5 -26t-82.5 26t-29.5 73q0 46 29.5 72.5t82.5 26.5t82.5 -26z" />
    <glyph glyph-name="comma" unicode="," horiz-adv-x="299" 
d="M234.5 151q30.5 -39 30.5 -100q0 -70 -38.5 -126.5t-111.5 -86.5l-86 57q51 21 85 47.5t48 61.5l-4 4q-13 -13 -32 -13q-37 0 -65 24t-28 68q0 51 30 77t82 26q59 0 89.5 -39z" />
    <glyph glyph-name="ellipsis" unicode="&#x2026;" horiz-adv-x="938" 
d="M867.5 164q29.5 -26 29.5 -73t-29.5 -73t-82.5 -26t-82.5 26t-29.5 73q0 46 29.5 72.5t82.5 26.5t82.5 -26zM551.5 164q29.5 -26 29.5 -73t-29.5 -73t-82.5 -26t-82.5 26t-29.5 73q0 46 29.5 72.5t82.5 26.5t82.5 -26zM235.5 164q29.5 -26 29.5 -73t-29.5 -73t-82.5 -26
t-82.5 26t-29.5 73q0 46 29.5 72.5t82.5 26.5t82.5 -26z" />
    <glyph glyph-name="exclam" unicode="!" horiz-adv-x="312" 
d="M261 473l-22 -255h-167l-22 255v187h211v-187zM234.5 149.5q28.5 -23.5 28.5 -66.5t-28.5 -67t-78.5 -24q-51 0 -79.5 24t-28.5 67t28.5 66.5t79.5 23.5q50 0 78.5 -23.5z" />
    <glyph glyph-name="exclamdown" unicode="&#xa1;" horiz-adv-x="310" 
d="M76.5 350.5q-28.5 23.5 -28.5 66.5t28.5 67t79.5 24q50 0 78.5 -24t28.5 -67t-28.5 -66.5t-78.5 -23.5q-51 0 -79.5 23.5zM50 27l22 255h167l22 -255v-187h-211v187z" />
    <glyph glyph-name="numbersign" unicode="#" horiz-adv-x="706" 
d="M547 394l-21 -127h109v-117h-128l-24 -150h-132l24 150h-116l-24 -150h-133l24 150h-98v117h116l20 127h-93v117h112l24 149h133l-24 -149h116l24 149h133l-24 -149h113v-117h-131zM414 394h-117l-20 -127h117z" />
    <glyph glyph-name="period" unicode="." horiz-adv-x="299" 
d="M231.5 164q29.5 -26 29.5 -73t-29.5 -73t-82.5 -26t-82.5 26t-29.5 73q0 46 29.5 72.5t82.5 26.5t82.5 -26z" />
    <glyph glyph-name="question" unicode="?" horiz-adv-x="631" 
d="M518.5 625q72.5 -45 72.5 -140q0 -171 -191 -190l-14 -79h-167l-13 153q89 5 127.5 26.5t38.5 57.5q0 57 -65 57q-36 0 -57 -22t-23 -66l-197 70q9 81 79 129.5t211 48.5q126 0 198.5 -45zM383 150q28 -24 28 -67t-28 -67t-79 -24t-79.5 24t-28.5 67t28.5 67t79.5 24
t79 -24z" />
    <glyph glyph-name="questiondown" unicode="&#xbf;" horiz-adv-x="630" 
d="M247 351q-28 24 -28 67t28 67t79 24t79.5 -24t28.5 -67t-28.5 -67t-79.5 -24t-79 24zM111.5 -124q-72.5 45 -72.5 140q0 92 51 136t140 54l14 79h168l13 -154q-90 -4 -128.5 -25.5t-38.5 -58.5q0 -56 65 -56q76 0 80 88l197 -70q-9 -81 -79 -129.5t-211 -48.5
q-126 0 -198.5 45z" />
    <glyph glyph-name="quotedbl" unicode="&#x22;" horiz-adv-x="463" 
d="M395 386h-131v288h162zM187 386h-131v288h162z" />
    <glyph glyph-name="quotesingle" unicode="'" horiz-adv-x="255" 
d="M187 386h-131v288h162z" />
    <glyph glyph-name="semicolon" unicode=";" horiz-adv-x="304" 
d="M69 338q-30 26 -30 73t30 73t83 26t82.5 -26.5t29.5 -72.5q0 -47 -29.5 -73t-82.5 -26t-83 26zM237.5 151q30.5 -39 30.5 -100q0 -70 -38.5 -126.5t-111.5 -86.5l-86 57q51 21 85 47.5t48 61.5l-4 4q-13 -13 -32 -13q-37 0 -65 24t-28 68q0 51 30 77t82 26q59 0 89.5 -39
z" />
    <glyph glyph-name="slash" unicode="/" horiz-adv-x="479" 
d="M197 -70h-187l271 776h187z" />
    <glyph glyph-name="underscore" unicode="_" horiz-adv-x="539" 
d="M539 -211h-539v156h539v-156z" />
    <glyph glyph-name="periodcentered.case" horiz-adv-x="291" 
d="M227.5 433q29.5 -26 29.5 -73t-29.5 -73t-82.5 -26t-82.5 26t-29.5 73q0 46 29.5 72.5t82.5 26.5t82.5 -26z" />
    <glyph glyph-name="exclamdown.case" horiz-adv-x="310" 
d="M76.5 510.5q-28.5 23.5 -28.5 66.5t28.5 67t79.5 24q50 0 78.5 -24t28.5 -67t-28.5 -66.5t-78.5 -23.5q-51 0 -79.5 23.5zM50 187l22 255h167l22 -255v-187h-211v187z" />
    <glyph glyph-name="periodcentered.loclCAT.case" horiz-adv-x="49" 
d="M6.5 433q29.5 -26 29.5 -73t-29.5 -73t-82.5 -26t-82.5 26t-29.5 73q0 46 29.5 72.5t82.5 26.5t82.5 -26z" />
    <glyph glyph-name="questiondown.case" horiz-adv-x="630" 
d="M247 510q-28 24 -28 67t28 67t79 24t79.5 -24t28.5 -67t-28.5 -67t-79.5 -24t-79 24zM111.5 35q-72.5 45 -72.5 140q0 92 51 136t140 54l14 79h168l13 -154q-90 -4 -128.5 -25.5t-38.5 -58.5q0 -56 65 -56q76 0 80 88l197 -70q-9 -81 -79 -129.5t-211 -48.5
q-126 0 -198.5 45z" />
    <glyph glyph-name="periodcentered.loclCAT" horiz-adv-x="195" 
d="M163.5 426q29.5 -26 29.5 -73t-29.5 -73.5t-82.5 -26.5t-82.5 26.5t-29.5 73.5t29.5 73t82.5 26t82.5 -26z" />
    <glyph glyph-name="periodcentered.loclCAT.ss02" horiz-adv-x="291" 
d="M227.5 426q29.5 -26 29.5 -73t-29.5 -73t-82.5 -26t-82.5 26t-29.5 73q0 46 29.5 72.5t82.5 26.5t82.5 -26z" />
    <glyph glyph-name="colon.tf" horiz-adv-x="302" 
d="M233.5 484q29.5 -26 29.5 -73t-29.5 -73t-82.5 -26t-82.5 26t-29.5 73q0 46 29.5 72.5t82.5 26.5t82.5 -26zM233.5 164q29.5 -26 29.5 -73t-29.5 -73t-82.5 -26t-82.5 26t-29.5 73q0 46 29.5 72.5t82.5 26.5t82.5 -26z" />
    <glyph glyph-name="comma.tf" horiz-adv-x="305" 
d="M240.5 151q30.5 -39 30.5 -100q0 -70 -38.5 -126.5t-111.5 -86.5l-86 57q51 21 85 47.5t48 61.5l-4 4q-13 -13 -32 -13q-37 0 -65 24t-28 68q0 51 30 77t82 26q59 0 89.5 -39z" />
    <glyph glyph-name="numbersign.tf" 
d="M487 394l-20 -127h96v-117h-114l-24 -150h-109l24 150h-127l-23 -150h-109l23 150h-92v117h111l19 127h-102v117h121l23 149h109l-23 -149h126l23 149h109l-23 -149h86v-117h-104zM378 394h-126l-20 -127h126z" />
    <glyph glyph-name="period.tf" horiz-adv-x="302" 
d="M233.5 164q29.5 -26 29.5 -73t-29.5 -73t-82.5 -26t-82.5 26t-29.5 73q0 46 29.5 72.5t82.5 26.5t82.5 -26z" />
    <glyph glyph-name="semicolon.tf" horiz-adv-x="302" 
d="M70.5 338q-29.5 26 -29.5 73t29.5 73t82.5 26t82.5 -26.5t29.5 -72.5q0 -47 -29.5 -73t-82.5 -26t-82.5 26zM239 151q30 -39 30 -100q0 -70 -38.5 -126.5t-110.5 -86.5l-87 57q51 21 85 47t49 62l-5 4q-12 -13 -31 -13q-38 0 -66 24t-28 68q0 51 30.5 77t82.5 26
q59 0 89 -39z" />
    <glyph glyph-name="uni208D" unicode="&#x208d;" horiz-adv-x="267" 
d="M267 226q-45 -41 -63 -89t-18 -128t18 -128t63 -89l-73 -62q-140 91 -140 279t140 279z" />
    <glyph glyph-name="uni208E" unicode="&#x208e;" horiz-adv-x="267" 
d="M213 9q0 -187 -139 -279l-74 62q45 41 63.5 89.5t18.5 127.5t-18.5 127.5t-63.5 89.5l74 62q139 -92 139 -279z" />
    <glyph glyph-name="braceleft" unicode="{" horiz-adv-x="445" 
d="M342 -47.5q26 -21.5 84 -21.5l-2 -123q-98 0 -155.5 17.5t-84 58t-26.5 110.5v109q0 56 -25.5 80t-86.5 24v124q61 0 86.5 24t25.5 80v110q0 69 26.5 109.5t84 58.5t155.5 18l2 -124q-58 0 -84 -21.5t-26 -69.5v-127q0 -47 -23.5 -76t-69.5 -44q46 -15 69.5 -43.5
t23.5 -76.5v-126q0 -49 26 -70.5z" />
    <glyph glyph-name="braceright" unicode="}" horiz-adv-x="445" 
d="M312.5 355q25.5 -24 86.5 -24v-124q-61 0 -86.5 -24t-25.5 -80v-109q0 -70 -26.5 -110.5t-84 -58t-155.5 -17.5l-3 123q58 0 84.5 21.5t26.5 70.5v126q0 48 23 76.5t69 43.5q-46 15 -69 44t-23 76v127q0 48 -26.5 69.5t-84.5 21.5l3 124q98 0 155.5 -18t84 -58.5
t26.5 -109.5v-110q0 -56 25.5 -80z" />
    <glyph glyph-name="bracketleft" unicode="[" horiz-adv-x="407" 
d="M257 571v-603h126v-136h-298v874h298v-135h-126z" />
    <glyph glyph-name="bracketright" unicode="]" horiz-adv-x="407" 
d="M322 -168h-299v136h126v603h-126v135h299v-874z" />
    <glyph glyph-name="parenleft" unicode="(" horiz-adv-x="405" 
d="M402 641q-81 -73 -117.5 -158.5t-36.5 -212.5q0 -128 36.5 -213.5t117.5 -158.5l-92 -90q-241 148 -241 462q0 158 61.5 273.5t179.5 187.5z" />
    <glyph glyph-name="parenright" unicode=")" horiz-adv-x="405" 
d="M336 270q0 -315 -241 -462l-92 90q82 72 118 158t36 214t-36 213.5t-118 157.5l92 90q241 -146 241 -461z" />
    <glyph glyph-name="uni207D" unicode="&#x207d;" horiz-adv-x="267" 
d="M267 748q-45 -41 -63 -89t-18 -128t18 -128t63 -89l-73 -62q-140 91 -140 279t140 279z" />
    <glyph glyph-name="uni207E" unicode="&#x207e;" horiz-adv-x="267" 
d="M213 531q0 -187 -139 -279l-74 62q45 41 63.5 89.5t18.5 127.5t-18.5 127.5t-63.5 89.5l74 62q139 -92 139 -279z" />
    <glyph glyph-name="braceleft.case" horiz-adv-x="445" 
d="M342 25.5q26 -21.5 84 -21.5l-2 -124q-98 0 -155.5 18t-84 58.5t-26.5 110.5v96q0 56 -25.5 80t-86.5 24v124q61 0 86.5 24t25.5 80v97q0 69 26.5 109.5t84 58.5t155.5 18l2 -124q-58 0 -84 -21t-26 -70v-114q0 -47 -23.5 -76t-69.5 -44q46 -15 69.5 -43.5t23.5 -76.5
v-113q0 -49 26 -70.5z" />
    <glyph glyph-name="braceright.case" horiz-adv-x="445" 
d="M312.5 415q25.5 -24 86.5 -24v-124q-61 0 -86.5 -24t-25.5 -80v-96q0 -70 -26.5 -110.5t-84 -58.5t-155.5 -18l-3 124q58 0 84.5 21.5t26.5 70.5v113q0 48 23 76.5t69 43.5q-46 15 -69 44t-23 76v114q0 48 -26.5 69.5t-84.5 21.5l3 124q98 0 155.5 -18t84 -58.5
t26.5 -109.5v-97q0 -56 25.5 -80z" />
    <glyph glyph-name="bracketleft.case" horiz-adv-x="407" 
d="M257 616v-577h126v-136h-298v849h298v-136h-126z" />
    <glyph glyph-name="bracketright.case" horiz-adv-x="407" 
d="M322 -97h-299v136h126v577h-126v136h299v-849z" />
    <glyph glyph-name="parenleft.case" horiz-adv-x="405" 
d="M402 698q-81 -73 -117.5 -158.5t-36.5 -212.5q0 -128 36.5 -213.5t117.5 -158.5l-92 -90q-241 148 -241 462q0 158 61.5 273.5t179.5 187.5z" />
    <glyph glyph-name="parenright.case" horiz-adv-x="405" 
d="M274.5 600.5q61.5 -115.5 61.5 -273.5q0 -314 -241 -462l-92 90q81 73 117.5 158.5t36.5 213.5q0 127 -36.5 212.5t-117.5 158.5l92 90q118 -72 179.5 -187.5z" />
    <glyph glyph-name="emdash" unicode="&#x2014;" horiz-adv-x="1003" 
d="M926 191h-850v157h850v-157z" />
    <glyph glyph-name="endash" unicode="&#x2013;" horiz-adv-x="701" 
d="M625 191h-549v157h549v-157z" />
    <glyph glyph-name="hyphen" unicode="-" horiz-adv-x="534" 
d="M457 191h-379v158h379v-158z" />
    <glyph glyph-name="uni00AD" unicode="&#xad;" horiz-adv-x="534" 
d="M457 191h-379v158h379v-158z" />
    <glyph glyph-name="emdash.case" horiz-adv-x="1003" 
d="M926 253h-850v157h850v-157z" />
    <glyph glyph-name="endash.case" horiz-adv-x="701" 
d="M625 253h-549v157h549v-157z" />
    <glyph glyph-name="hyphen.case" horiz-adv-x="534" 
d="M457 253h-379v158h379v-158z" />
    <glyph glyph-name="guillemotleft" unicode="&#xab;" horiz-adv-x="618" 
d="M205 265l118 -196h-169l-125 196l125 196h169zM471 265l118 -196h-169l-125 196l125 196h169z" />
    <glyph glyph-name="guillemotright" unicode="&#xbb;" horiz-adv-x="618" 
d="M198 461l125 -196l-125 -196h-169l118 196l-118 196h169zM464 461l125 -196l-125 -196h-169l118 196l-118 196h169z" />
    <glyph glyph-name="guilsinglleft" unicode="&#x2039;" horiz-adv-x="353" 
d="M205 265l118 -196h-169l-125 196l125 196h169z" />
    <glyph glyph-name="guilsinglright" unicode="&#x203a;" horiz-adv-x="353" 
d="M198 461l126 -196l-126 -196h-169l118 196l-118 196h169z" />
    <glyph glyph-name="quotedblbase" unicode="&#x201e;" horiz-adv-x="557" 
d="M234.5 151q30.5 -39 30.5 -100q0 -70 -38.5 -126.5t-111.5 -86.5l-86 57q51 21 85 47.5t48 61.5l-4 4q-13 -13 -32 -13q-37 0 -65 24t-28 68q0 51 30 77t82 26q59 0 89.5 -39zM492.5 151q30.5 -39 30.5 -100q0 -70 -38.5 -126.5t-111.5 -86.5l-86 57q51 21 85 47.5
t48 61.5l-4 4q-13 -13 -32 -13q-37 0 -65 24t-28 68q0 51 30 77t82 26q59 0 89.5 -39z" />
    <glyph glyph-name="quotedblleft" unicode="&#x201c;" horiz-adv-x="573" 
d="M67 375.5q-30 39.5 -30 100.5q0 70 38.5 126.5t110.5 86.5l87 -58q-51 -20 -85 -46.5t-49 -62.5l5 -3q11 12 31 12q38 0 66 -23.5t28 -68.5q0 -50 -30.5 -76.5t-82.5 -26.5q-59 0 -89 39.5zM332 375.5q-30 39.5 -30 100.5q0 70 38.5 126.5t110.5 86.5l87 -58
q-51 -20 -85 -46.5t-49 -62.5l5 -3q11 12 31 12q38 0 66 -23.5t28 -68.5q0 -50 -30.5 -76.5t-82.5 -26.5q-59 0 -89 39.5z" />
    <glyph glyph-name="quotedblright" unicode="&#x201d;" horiz-adv-x="567" 
d="M246.5 647q30.5 -39 30.5 -100q0 -70 -38.5 -126.5t-111.5 -86.5l-87 58q108 42 134 108l-5 4q-12 -13 -31 -13q-37 0 -65 24t-28 68q0 51 30 77t82 26q59 0 89.5 -39zM505.5 647q30.5 -39 30.5 -100q0 -70 -38.5 -126.5t-111.5 -86.5l-87 58q108 42 134 108l-5 4
q-12 -13 -31 -13q-37 0 -65 24t-28 68q0 51 30 77t82 26q59 0 89.5 -39z" />
    <glyph glyph-name="quoteleft" unicode="&#x2018;" horiz-adv-x="308" 
d="M67 375.5q-30 39.5 -30 100.5q0 70 38.5 126.5t110.5 86.5l87 -58q-51 -20 -85 -46.5t-49 -62.5l5 -3q11 12 31 12q38 0 66 -23.5t28 -68.5q0 -50 -30.5 -76.5t-82.5 -26.5q-59 0 -89 39.5z" />
    <glyph glyph-name="quoteright" unicode="&#x2019;" horiz-adv-x="308" 
d="M246.5 647q30.5 -39 30.5 -100q0 -70 -38.5 -126.5t-111.5 -86.5l-87 58q108 42 134 108l-5 4q-12 -13 -31 -13q-37 0 -65 24t-28 68q0 51 30 77t82 26q59 0 89.5 -39z" />
    <glyph glyph-name="quotesinglbase" unicode="&#x201a;" horiz-adv-x="298" 
d="M234.5 151q30.5 -39 30.5 -100q0 -70 -38.5 -126.5t-111.5 -86.5l-86 57q51 21 85 47.5t48 61.5l-4 4q-13 -13 -32 -13q-37 0 -65 24t-28 68q0 51 30 77t82 26q59 0 89.5 -39z" />
    <glyph glyph-name="guillemotleft.case" horiz-adv-x="615" 
d="M205 321l118 -196h-169l-125 196l125 196h169zM471 321l118 -196h-169l-125 196l125 196h169z" />
    <glyph glyph-name="guillemotright.case" horiz-adv-x="615" 
d="M198 517l125 -196l-125 -196h-169l118 196l-118 196h169zM464 517l125 -196l-125 -196h-169l118 196l-118 196h169z" />
    <glyph glyph-name="guilsinglleft.case" horiz-adv-x="350" 
d="M205 321l118 -196h-169l-125 196l125 196h169z" />
    <glyph glyph-name="guilsinglright.case" horiz-adv-x="350" 
d="M198 517l126 -196l-126 -196h-169l118 196l-118 196h169z" />
    <glyph glyph-name="periodcentered.sc" horiz-adv-x="291" 
d="M227.5 389q29.5 -26 29.5 -73t-29.5 -73t-82.5 -26t-82.5 26t-29.5 73q0 46 29.5 72.5t82.5 26.5t82.5 -26z" />
    <glyph glyph-name="exclam.sc" horiz-adv-x="296" 
d="M250 446l-21 -245h-161l-22 245v114h204v-114zM223 141q27 -23 27 -63t-27 -62.5t-75 -22.5t-75 22.5t-27 62.5t27 63t75 23t75 -23z" />
    <glyph glyph-name="exclamdown.sc" horiz-adv-x="296" 
d="M73 419q-27 23 -27 63t27 62.5t75 22.5t75 -22.5t27 -62.5t-27 -63t-75 -23t-75 23zM46 114l21 245h162l21 -245v-114h-204v114z" />
    <glyph glyph-name="periodcentered.loclCAT.sc" horiz-adv-x="65" 
d="M15.5 397q29.5 -26 29.5 -73t-29.5 -73t-82.5 -26t-82.5 26t-29.5 73q0 46 29.5 72.5t82.5 26.5t82.5 -26z" />
    <glyph glyph-name="question.sc" horiz-adv-x="548" 
d="M464 529.5q69 -38.5 69 -117.5q0 -66 -51 -101t-119 -38l-9 -70h-178l-4 113q70 6 106 15t49 21t13 31q0 21 -16.5 32t-48.5 11q-38 0 -58 -14.5t-24 -49.5l-186 55q14 77 79.5 114t190.5 37q118 0 187 -38.5zM339 141q27 -23 27 -63t-27 -62.5t-75 -22.5t-75 22.5
t-27 62.5t27 63t75 23t75 -23z" />
    <glyph glyph-name="questiondown.sc" horiz-adv-x="545" 
d="M200 421q-27 23 -27 63t27 62.5t75 22.5t75 -22.5t27 -62.5t-27 -63t-75 -23t-75 23zM75 32.5q-69 38.5 -69 117.5q0 66 51 101t120 38l9 71h177l4 -114q-70 -6 -106 -15t-49 -21t-13 -30q0 -44 65 -44q38 0 58 15t24 50l186 -56q-14 -77 -79.5 -114t-189.5 -37
q-119 0 -188 38.5z" />
    <glyph glyph-name="quotedbl.sc" horiz-adv-x="464" 
d="M395 303h-131v287h162zM187 303h-131v287h162z" />
    <glyph glyph-name="quotedblleft.sc" horiz-adv-x="586" 
d="M69 293.5q-30 39.5 -30 100.5q0 70 38 126.5t111 85.5l87 -57q-51 -21 -85 -47t-49 -62l5 -3q12 12 31 12q37 0 65.5 -24t28.5 -68q0 -50 -30.5 -76.5t-82.5 -26.5q-59 0 -89 39.5zM343 293.5q-30 39.5 -30 100.5q0 70 38 126.5t111 85.5l87 -57q-51 -21 -85 -47t-49 -62
l5 -3q12 12 31 12q37 0 65.5 -24t28.5 -68q0 -50 -30.5 -76.5t-82.5 -26.5q-59 0 -89 39.5z" />
    <glyph glyph-name="quotedblright.sc" horiz-adv-x="579" 
d="M248.5 567q30.5 -39 30.5 -100q0 -70 -38.5 -126.5t-111.5 -86.5l-87 58q108 42 134 108l-5 4q-12 -13 -31 -13q-37 0 -65 24t-28 69q0 50 30 76t82 26q59 0 89.5 -39zM516.5 567q30.5 -39 30.5 -100q0 -70 -38.5 -126.5t-111.5 -86.5l-87 58q108 42 134 108l-5 4
q-12 -13 -31 -13q-37 0 -65 24t-28 69q0 50 30 76t82 26q59 0 89.5 -39z" />
    <glyph glyph-name="quoteleft.sc" horiz-adv-x="312" 
d="M69 293.5q-30 39.5 -30 100.5q0 70 38 126.5t111 85.5l87 -57q-51 -21 -85 -47t-49 -62l5 -3q12 12 31 12q37 0 65.5 -24t28.5 -68q0 -50 -30.5 -76.5t-82.5 -26.5q-59 0 -89 39.5z" />
    <glyph glyph-name="quoteright.sc" horiz-adv-x="312" 
d="M248.5 567q30.5 -39 30.5 -100q0 -70 -38.5 -126.5t-111.5 -86.5l-87 58q108 42 134 108l-5 4q-12 -13 -31 -13q-37 0 -65 24t-28 69q0 50 30 76t82 26q59 0 89.5 -39z" />
    <glyph glyph-name="quotesingle.sc" horiz-adv-x="256" 
d="M187 303h-131v287h162z" />
    <glyph glyph-name="uni00A0" unicode="&#xa0;" horiz-adv-x="267" 
 />
    <glyph glyph-name="space.tf" horiz-adv-x="302" 
 />
    <glyph glyph-name="Euro" unicode="&#x20ac;" horiz-adv-x="702" 
d="M684 176q-20 -92 -92.5 -139t-178.5 -47q-123 0 -204.5 60.5t-107.5 170.5h-89v66h78q-2 28 -2 43l1 25h-77v66h85q23 119 105.5 184t210.5 65q101 0 174.5 -42t94.5 -115l-145 -68q-5 45 -36.5 66t-77.5 21q-113 0 -142 -111h201l-28 -66h-182v-25q0 -29 1 -43h176
l-25 -66h-139q15 -47 47.5 -70t86.5 -23q45 0 74.5 22.5t38.5 69.5z" />
    <glyph glyph-name="cent" unicode="&#xa2;" horiz-adv-x="578" 
d="M499 37q-57 -42 -160 -46v-91h-59v91q-119 9 -181.5 76t-62.5 183q0 117 64 184.5t180 74.5v91h59v-91q111 -6 163 -50.5t55 -111.5l-146 -50q-4 37 -23 59.5t-49 29.5v-273q64 12 75 83l143 -50q-1 -67 -58 -109zM228.5 154q17.5 -31 51.5 -39v270q-36 -8 -52.5 -40.5
t-16.5 -96.5q0 -63 17.5 -94z" />
    <glyph glyph-name="currency" unicode="&#xa4;" horiz-adv-x="640" 
d="M514 235l101 -86l-115 -115l-90 104q-42 -16 -89 -16q-50 0 -92 17l-90 -105l-115 115l101 87q-19 43 -19 94q0 50 19 93l-101 87l115 114l90 -104q42 17 92 17q48 0 90 -17l89 104l115 -114l-100 -87q19 -44 19 -93q0 -52 -20 -95zM369 279q18 19 18 51q0 31 -18 50
t-48 19q-31 0 -49.5 -19t-18.5 -50q0 -32 18.5 -51t49.5 -19q30 0 48 19z" />
    <glyph glyph-name="dollar" unicode="$" horiz-adv-x="646" 
d="M297 1q-100 4 -165 31t-114 78l88 120q29 -43 78 -67t113 -29v122q-78 14 -130.5 31.5t-90.5 57.5t-38 109q0 86 68 141.5t191 63.5v85h66v-84q98 -4 157.5 -32.5t110.5 -81.5l-92 -112q-33 45 -75.5 67t-100.5 26v-129q77 -14 130.5 -32.5t91.5 -60t38 -111.5
q0 -85 -72.5 -136.5t-187.5 -56.5v-85h-66v85zM297 523q-37 -5 -56.5 -20t-19.5 -37q0 -21 19 -33t57 -22v112zM441 186q0 22 -20 35t-58 22v-108q78 8 78 51z" />
    <glyph glyph-name="florin" unicode="&#x192;" horiz-adv-x="526" 
d="M406.5 571q-22.5 -19 -28.5 -54l-16 -93h131v-137h-155l-40 -231q-16 -89 -71 -136.5t-143 -47.5q-39 0 -63.5 6t-49.5 22l25 119q21 -13 49 -13q34 0 56.5 19.5t28.5 53.5l36 208h-133v137h157l20 116q16 89 71 136.5t143 47.5q40 0 64.5 -6t48.5 -22l-25 -119
q-20 13 -49 13q-34 0 -56.5 -19z" />
    <glyph glyph-name="sterling" unicode="&#xa3;" horiz-adv-x="623" 
d="M600 138q0 -62 -38 -105t-105 -43q-48 0 -84.5 16t-78.5 45q-56 -61 -141 -61q-54 0 -89 25t-35 70q0 46 37 70.5t92 24.5q32 0 58 -3q-3 40 -18 72h-157v110h83q-22 33 -30.5 60.5t-8.5 57.5q0 52 27.5 96t83 70.5t135.5 26.5q214 0 250 -182l-162 -73q-14 64 -35 89
t-57 25q-31 0 -49.5 -16t-18.5 -44q0 -18 9 -39t30 -52q10 -15 12 -19h197v-110h-154q2 -24 2 -35q0 -38 -11 -76q21 -7 38 -11t37 -4q65 0 59 77l116 -16q6 -22 6 -46zM190 68.5q13 10.5 20 33.5q-27 11 -54 11q-39 0 -39 -27q0 -13 10 -20.5t28 -7.5q22 0 35 10.5z" />
    <glyph glyph-name="uni20BA" unicode="&#x20ba;" horiz-adv-x="731" 
d="M700 316q-2 -148 -78.5 -232t-220.5 -84h-277v261l-95 -26v63l95 27v74l-95 -26v63l95 27v197h204v-141l162 45v-63l-162 -45v-74l162 45v-64l-162 -45v-167h51q125 0 125 165h196z" />
    <glyph glyph-name="uni20BD" unicode="&#x20bd;" horiz-adv-x="702" 
d="M312 274v-62h182v-89h-182v-123h-204v123h-84v89h84v62h-84v95h84v291h295q130 0 198.5 -51.5t68.5 -142.5q0 -98 -67 -145t-200 -47h-91zM312 369h58q49 0 72 17t23 54t-23 54t-72 17h-58v-142z" />
    <glyph glyph-name="yen" unicode="&#xa5;" horiz-adv-x="699" 
d="M526 308h114v-60h-192v-63h192v-58h-192v-127h-197v127h-192v58h192v63h-192v60h114l66 -4l-225 356h206l87 -193l42 -103h2l42 104l87 192h205l-225 -356z" />
    <glyph glyph-name="cent.tf" 
d="M502 37q-57 -42 -160 -46v-91h-59v91q-119 9 -181.5 76t-62.5 183q0 117 64 184.5t180 74.5v91h59v-91q111 -6 163 -50.5t55 -111.5l-146 -50q-4 37 -23 59.5t-49 29.5v-273q64 12 75 83l143 -50q-1 -67 -58 -109zM231.5 154q17.5 -31 51.5 -39v270q-36 -8 -52.5 -40.5
t-16.5 -96.5q0 -63 17.5 -94z" />
    <glyph glyph-name="currency.tf" 
d="M496 235l101 -86l-115 -115l-90 104q-42 -16 -89 -16q-50 0 -92 17l-90 -105l-115 115l101 87q-19 43 -19 94q0 50 19 93l-101 87l115 114l90 -104q42 17 92 17q48 0 90 -17l89 104l115 -114l-100 -87q19 -44 19 -93q0 -52 -20 -95zM351 279q18 19 18 51q0 31 -18 50
t-48 19q-31 0 -49.5 -19t-18.5 -50q0 -32 18.5 -51t49.5 -19q30 0 48 19z" />
    <glyph glyph-name="dollar.tf" 
d="M459.5 360.5q47.5 -18.5 81 -58.5t33.5 -108q0 -84 -65 -135t-168 -58v-85h-60v85q-93 3 -154 30t-108 79l97 120q20 -41 66 -66t99 -30v118q-71 15 -119 33t-82 58.5t-34 110.5q0 86 62 142t173 63v85h60v-85q59 -2 101 -16.5t72.5 -36.5t69.5 -60l-94 -113
q-44 85 -149 93v-132q71 -15 118.5 -33.5zM225 431q19 -13 56 -23v117q-75 -10 -75 -59q0 -22 19 -35zM397 151q17 13 17 35q0 20 -18.5 32.5t-54.5 21.5v-106q39 4 56 17z" />
    <glyph glyph-name="Euro.tf" 
d="M585 171q-14 -83 -78.5 -132t-158.5 -49q-104 0 -170 60.5t-86 174.5h-80v66h72q-1 13 -1 39q0 18 1 27h-72v66h78q19 119 87.5 183t178.5 64q98 0 151.5 -35t72.5 -114l-145 -68q-7 79 -76 79q-39 0 -65.5 -27.5t-38.5 -81.5h146l-14 -66h-139q-1 -9 -1 -27q0 -27 1 -39
h125l-13 -66h-102q11 -47 35 -72t58 -25q40 0 61.5 20t25.5 62z" />
    <glyph glyph-name="florin.tf" 
d="M479 571q-23 -19 -29 -54l-17 -93h136v-137h-160l-42 -231q-16 -89 -71.5 -136.5t-144.5 -47.5q-40 0 -64.5 6t-49.5 22l25 119q21 -13 51 -13q35 0 57.5 19.5t28.5 53.5l38 208h-136v137h160l21 116q17 89 72 136.5t144 47.5q41 0 65.5 -6t48.5 -22l-24 -119
q-22 13 -51 13q-35 0 -58 -19z" />
    <glyph glyph-name="uni20BA.tf" 
d="M580 292q-2 -133 -67 -212.5t-191 -79.5h-232v264l-89 -25v64l89 24v74l-89 -24v63l89 25v195h195v-141l163 45v-63l-163 -45v-74l163 45v-64l-163 -45v-173h16q108 0 108 147h171z" />
    <glyph glyph-name="uni20BD.tf" 
d="M288 271v-59h147v-89h-147v-123h-191v123h-73v89h73v59h-73v94h73v295h242q125 0 190 -52t65 -142q0 -99 -63.5 -147t-191.5 -48h-51zM288 365h37q73 0 73 75q0 39 -17.5 57t-55.5 18h-37v-150z" />
    <glyph glyph-name="sterling.tf" 
d="M539 43.5q-34 -53.5 -108 -53.5q-40 0 -72 15t-69 42q-55 -57 -137 -57q-55 0 -90.5 25t-35.5 70q0 46 37.5 70.5t94.5 24.5q29 0 53 -3q-3 43 -26 88h-146v102h79q-19 30 -27 55.5t-8 54.5q0 52 27 96t81.5 70.5t132.5 26.5q101 0 155.5 -43.5t75.5 -136.5l-160 -60
q-6 53 -25.5 76t-53.5 23q-28 0 -44.5 -16.5t-16.5 -47.5q0 -17 8 -34.5t29 -50.5q6 -8 8 -13h194v-102h-148q4 -23 4 -52q0 -41 -12 -79q31 -11 57 -11q57 0 53 77l119 -16q5 -87 -29 -140.5zM189 68.5q12 10.5 18 33.5q-25 11 -51 11q-36 0 -36 -27q0 -13 10 -20.5
t27 -7.5q20 0 32 10.5z" />
    <glyph glyph-name="yen.tf" 
d="M463 308h97v-60h-163v-63h163v-58h-163v-127h-190v127h-163v58h163v63h-163v60h97l49 -1l-175 353h184l73 -197l29 -104h2l29 105l73 196h184l-175 -353z" />
    <glyph glyph-name="approxequal" unicode="&#x2248;" 
d="M251 537.5q28 -8.5 68 -25.5q35 -14 53.5 -20t38.5 -6q40 0 70.5 11t65.5 41v-144q-57 -50 -129 -50q-31 0 -58.5 7.5t-63.5 22.5q-36 14 -59 21t-48 7q-43 0 -72 -11.5t-60 -39.5v144q33 28 62 39.5t70 11.5q34 0 62 -8.5zM252 291.5q29 -8.5 67 -24.5
q30 -13 50.5 -19.5t41.5 -6.5q40 0 71 11t65 40v-144q-59 -50 -129 -50q-31 0 -57.5 8t-64.5 23q-36 14 -59 21t-48 7q-43 0 -72 -12t-60 -40v145q33 28 61.5 39t70.5 11q34 0 63 -8.5z" />
    <glyph glyph-name="asciitilde" unicode="~" horiz-adv-x="617" 
d="M527 282.5q-43 -53.5 -124 -53.5q-37 0 -61.5 10t-52.5 28q-17 11 -28 16.5t-23 5.5q-19 0 -29 -12.5t-14 -40.5h-152q5 103 48 156.5t124 53.5q37 0 61.5 -10t52.5 -28q16 -11 27 -16.5t23 -5.5q19 0 29 12.5t14 40.5h152q-4 -103 -47 -156.5z" />
    <glyph glyph-name="divide" unicode="&#xf7;" 
d="M370 615.5q24 -23.5 24 -65.5q0 -41 -24 -64.5t-67 -23.5t-67.5 23.5t-24.5 64.5q0 42 24.5 65.5t67.5 23.5t67 -23.5zM557 259h-510v138h510v-138zM370 171.5q24 -23.5 24 -64.5q0 -42 -24 -65t-67 -23q-44 0 -68 23t-24 65q0 41 24.5 64.5t67.5 23.5t67 -23.5z" />
    <glyph glyph-name="equal" unicode="=" 
d="M539 366h-474v132h474v-132zM539 144h-474v132h474v-132z" />
    <glyph glyph-name="uni208C" unicode="&#x208c;" horiz-adv-x="414" 
d="M55 146h303v-102h-303v102zM55 -18h303v-102h-303v102z" />
    <glyph glyph-name="uni207C" unicode="&#x207c;" horiz-adv-x="414" 
d="M55 668h303v-102h-303v102zM55 504h303v-102h-303v102z" />
    <glyph glyph-name="greater" unicode="&#x3e;" 
d="M544 379v-167l-495 -215v189l347 110l-347 109v189z" />
    <glyph glyph-name="greaterequal" unicode="&#x2265;" 
d="M546 530v-223l-492 -132v163l396 81l-396 80v163zM54 140h492v-140h-492v140z" />
    <glyph glyph-name="infinity" unicode="&#x221e;" horiz-adv-x="962" 
d="M878 479.5q56 -54.5 56 -183.5q0 -131 -58.5 -184.5t-163.5 -53.5q-68 0 -125 28t-130 99q-55 -56 -90 -82.5t-65.5 -35.5t-75.5 -9q-88 0 -143 54.5t-55 183.5t56 183.5t144 54.5q47 0 86.5 -8t87 -35.5t104.5 -81.5q56 56 95 82.5t67.5 34t65.5 8.5q88 0 144 -54.5z
M778 280.5q18 19.5 18 58.5t-15 58t-48 19q-18 0 -34 -5.5t-42.5 -26t-67.5 -61.5q36 -34 66.5 -48t64.5 -14q40 0 58 19.5zM265.5 181.5q15.5 5.5 40.5 26t66 62.5q-39 36 -67.5 48.5t-64.5 12.5q-74 0 -74 -78q0 -40 17.5 -58.5t48.5 -18.5q18 0 33.5 5.5z" />
    <glyph glyph-name="integral" unicode="&#x222b;" horiz-adv-x="484" 
d="M486 726l-14 -119q-12 9 -26 13t-35 4q-77 0 -77 -67v-495q0 -97 -59.5 -143.5t-150.5 -46.5q-83 0 -125 32l14 119q12 -9 25.5 -13t34.5 -4q37 0 57 15.5t20 51.5v495q0 97 60 143.5t151 46.5q83 0 125 -32z" />
    <glyph glyph-name="less" unicode="&#x3c;" 
d="M555 405l-348 -110l348 -109v-189l-495 215v167l495 215v-189z" />
    <glyph glyph-name="lessequal" unicode="&#x2264;" 
d="M550 499l-395 -80l395 -81v-163l-492 132v223l492 132v-163zM58 140h492v-140h-492v140z" />
    <glyph glyph-name="logicalnot" unicode="&#xac;" 
d="M544 397v-312h-157v174h-327v138h484z" />
    <glyph glyph-name="minus" unicode="&#x2212;" 
d="M544 254h-484v148h484v-148z" />
    <glyph glyph-name="uni208B" unicode="&#x208b;" horiz-adv-x="357" 
d="M34 63h289v-107h-289v107z" />
    <glyph glyph-name="uni207B" unicode="&#x207b;" horiz-adv-x="357" 
d="M34 585h289v-107h-289v107z" />
    <glyph glyph-name="multiply" unicode="&#xd7;" 
d="M408 329l151 -151l-105 -106l-152 151l-152 -151l-106 106l152 151l-152 152l106 106l152 -152l152 152l105 -106z" />
    <glyph glyph-name="notequal" unicode="&#x2260;" 
d="M384 376l-49 -110h216v-131h-274l-53 -121h-117l53 121h-107v131h165l49 110h-214v130h271l57 128h117l-57 -128h110v-130h-167z" />
    <glyph glyph-name="partialdiff" unicode="&#x2202;" horiz-adv-x="674" 
d="M542.5 586q77.5 -84 77.5 -241q0 -187 -78.5 -271t-234.5 -84q-63 0 -119 24t-90.5 72t-34.5 117q0 66 32 114t85.5 73t115.5 25q98 0 138 -79q-10 172 -143 172q-43 0 -75.5 -11.5t-63.5 -40.5l-83 124q60 49 115.5 69.5t138.5 20.5q142 0 219.5 -84zM394 159
q21 17 32 58q-9 26 -29 43.5t-52 17.5q-35 0 -54.5 -18.5t-19.5 -50.5q0 -31 18 -49t53 -18q31 0 52 17z" />
    <glyph glyph-name="percent" unicode="%" horiz-adv-x="967" 
d="M364.5 618q53.5 -52 53.5 -138t-53.5 -138t-141.5 -52q-89 0 -142.5 52t-53.5 138t53.5 138t142.5 52q88 0 141.5 -52zM646 661h150l-474 -661h-149zM186 523q-13 -15 -13 -43t13 -43t37 -15q23 0 36 15t13 43t-13 43t-36 15q-24 0 -37 -15zM886 318q54 -52 54 -138
t-54 -138t-142 -52t-142 52t-54 138t54 138t142 52t142 -52zM707 223q-13 -15 -13 -43t13 -43t37 -15t37 15t13 43t-13 43t-37 15t-37 -15z" />
    <glyph glyph-name="perthousand" unicode="&#x2030;" horiz-adv-x="1395" 
d="M364.5 618q53.5 -52 53.5 -138t-53.5 -138t-141.5 -52q-89 0 -142.5 52t-53.5 138t53.5 138t142.5 52q88 0 141.5 -52zM646 661h150l-474 -661h-149zM186 523q-13 -15 -13 -43t13 -43t37 -15q23 0 36 15t13 43t-13 43t-36 15q-24 0 -37 -15zM886 318q54 -52 54 -138
t-54 -138t-142 -52t-142 52t-54 138t54 138t142 52t142 -52zM1314.5 318q53.5 -52 53.5 -138t-53.5 -138t-141.5 -52q-89 0 -142.5 52t-53.5 138t53.5 138t142.5 52q88 0 141.5 -52zM707 223q-13 -15 -13 -43t13 -43t37 -15t37 15t13 43t-13 43t-37 15t-37 -15zM1136 223
q-13 -15 -13 -43t13 -43t37 -15q23 0 36 15t13 43t-13 43t-36 15q-24 0 -37 -15z" />
    <glyph glyph-name="plus" unicode="+" 
d="M556 259h-175v-202h-157v202h-176v138h176v201h157v-201h175v-138z" />
    <glyph glyph-name="uni208A" unicode="&#x208a;" horiz-adv-x="357" 
d="M335 -39h-104v-108h-103v108h-106v99h106v107h103v-107h104v-99z" />
    <glyph glyph-name="plusminus" unicode="&#xb1;" 
d="M556 493v-133h-183v-164h-141v164h-184v133h184v163h141v-163h183zM48 129h508v-128h-508v128z" />
    <glyph glyph-name="uni207A" unicode="&#x207a;" horiz-adv-x="357" 
d="M335 483h-104v-108h-103v108h-106v99h106v107h103v-107h104v-99z" />
    <glyph glyph-name="product" unicode="&#x220f;" horiz-adv-x="697" 
d="M639 -128h-188v635h-205v-635h-188v788h581v-788z" />
    <glyph glyph-name="radical" unicode="&#x221a;" horiz-adv-x="692" 
d="M749 818l-315 -818h-201l-119 306h-101v148h206l72 -196l43 -133l47 146l200 547h168z" />
    <glyph glyph-name="summation" unicode="&#x2211;" horiz-adv-x="686" 
d="M630 515h-363l234 -231v-36l-235 -239h364v-137h-574v137l247 257l-247 249v145h574v-145z" />
    <glyph glyph-name="uni00B5" unicode="&#xb5;" horiz-adv-x="619" 
d="M571 500v-500h-180l-5 95q-37 -100 -136 -105v-200h-202v710h202v-286q0 -40 12.5 -56.5t39.5 -16.5q64 0 67 88v271h202z" />
    <glyph glyph-name="uni2126" unicode="&#x2126;" horiz-adv-x="779" 
d="M724 133v-133h-301v133q46 5 67 51.5t21 140.5q0 189 -122 189q-121 0 -121 -189q0 -94 20.5 -140.5t66.5 -51.5h1v-133h-301v133h144q-68 30 -104 88t-36 139q0 95 40 165t114 107.5t176 37.5t176.5 -37.5t114 -107.5t39.5 -165q0 -81 -36 -139t-104 -88h145z" />
    <glyph glyph-name="uni2206" unicode="&#x2206;" horiz-adv-x="745" 
d="M705 117v-117h-665v117l231 543h203zM199 139h347l-173 408z" />
    <glyph glyph-name="uni2215" unicode="&#x2215;" horiz-adv-x="268" 
d="M305 661h134l-476 -661h-134z" />
    <glyph glyph-name="uni2219" unicode="&#x2219;" horiz-adv-x="291" 
d="M227.5 417q29.5 -26 29.5 -73t-29.5 -73t-82.5 -26t-82.5 26t-29.5 73q0 46 29.5 72.5t82.5 26.5t82.5 -26z" />
    <glyph glyph-name="arrowup" unicode="&#x2191;" horiz-adv-x="750" 
d="M521.5 513q83.5 -70 203.5 -142l-101 -150q-94 62 -162 150q13 -93 13 -179v-192h-202v192q0 86 13 179q-68 -88 -162 -150l-101 150q120 72 203.5 142t144.5 153h6q61 -83 144.5 -153z" />
    <glyph glyph-name="uni2197" unicode="&#x2197;" horiz-adv-x="750" 
d="M636 380q0 -146 20 -256l-176 -6q-2 40 -2 58q0 89 17 176q-66 -80 -144 -154l-138 -137l-126 125l138 138q77 78 154 144q-87 -17 -177 -17q-18 0 -58 2l7 177q111 -20 259 -20q120 0 235 13l4 -5q-13 -115 -13 -238z" />
    <glyph glyph-name="arrowright" unicode="&#x2192;" horiz-adv-x="750" 
d="M570 478.5q70 -83.5 153 -144.5v-6q-83 -61 -153 -144.5t-142 -203.5l-150 101q62 94 150 162q-93 -13 -179 -13h-192v202h192q86 0 179 -13q-88 68 -150 162l150 101q72 -120 142 -203.5z" />
    <glyph glyph-name="uni2198" unicode="&#x2198;" horiz-adv-x="750" 
d="M633 318q0 -123 13 -238l-4 -4q-117 13 -238 13q-146 0 -256 -20l-7 176q40 2 58 2q89 0 177 -17q-66 55 -155 144l-137 138l126 126l138 -138q85 -83 144 -154q-17 88 -17 177q0 18 2 58l176 -7q-20 -110 -20 -256z" />
    <glyph glyph-name="arrowdown" unicode="&#x2193;" horiz-adv-x="750" 
d="M727 289q-120 -72 -203.5 -142t-144.5 -153h-6q-61 83 -144.5 153t-203.5 142l101 150q94 -62 162 -150q-13 93 -13 179v192h202v-192q0 -86 -13 -179q68 88 162 150z" />
    <glyph glyph-name="uni2199" unicode="&#x2199;" horiz-adv-x="750" 
d="M551 247q18 0 58 -2l-7 -176q-110 20 -256 20q-121 0 -238 -13l-4 4q13 115 13 238q0 146 -20 256l176 7q2 -40 2 -58q0 -89 -17 -177q59 71 144 154l138 138l126 -126l-137 -138q-89 -89 -155 -144q88 17 177 17z" />
    <glyph glyph-name="arrowleft" unicode="&#x2190;" horiz-adv-x="750" 
d="M693 432v-202h-192q-86 0 -179 13q88 -68 150 -162l-150 -101q-72 120 -142 203.5t-153 144.5v6q83 61 153 144.5t142 203.5l150 -101q-62 -94 -150 -162q93 13 179 13h192z" />
    <glyph glyph-name="uni2196" unicode="&#x2196;" horiz-adv-x="750" 
d="M663 186l-126 -125l-138 137q-77 75 -144 154q17 -79 17 -173q0 -19 -2 -61l-176 6q20 110 20 256q0 123 -13 238l4 5q115 -13 235 -13q148 0 259 20l7 -177q-40 -2 -58 -2q-90 0 -177 17q77 -66 154 -144z" />
    <glyph glyph-name="arrowboth" unicode="&#x2194;" horiz-adv-x="1111" 
d="M931 497.5q70 -83.5 153 -144.5v-6q-82 -60 -152.5 -144t-142.5 -204l-151 99q64 97 151 163q-82 -12 -171 -12h-125q-89 0 -171 12q87 -66 151 -163l-151 -99q-72 120 -142.5 204t-152.5 144v6q83 61 153 144.5t142 203.5l151 -99q-62 -95 -151 -163q82 12 171 12h125
q89 0 171 -12q-89 68 -151 163l151 99q72 -120 142 -203.5z" />
    <glyph glyph-name="arrowupdn" unicode="&#x2195;" horiz-adv-x="750" 
d="M627 248l99 -152q-120 -70 -203.5 -141t-144.5 -154h-6q-61 83 -144.5 153.5t-203.5 141.5l99 152q97 -65 163 -151q-12 81 -12 171v124q0 90 12 171q-66 -86 -163 -151l-99 152q120 71 203.5 141.5t144.5 153.5h6q61 -83 144.5 -154t203.5 -141l-99 -152
q-97 65 -164 151q13 -88 13 -171v-124q0 -83 -13 -171q67 86 164 151z" />
    <glyph glyph-name="uni25CF" unicode="&#x25cf;" horiz-adv-x="600" 
d="M167.5 24q-59.5 34 -93.5 93.5t-34 132.5t34 132.5t93.5 93.5t132.5 34t132.5 -34t93.5 -93.5t34 -132.5t-34 -132.5t-93.5 -93.5t-132.5 -34t-132.5 34z" />
    <glyph glyph-name="circle" unicode="&#x25cb;" horiz-adv-x="600" 
d="M162 24q-62 34 -97.5 93.5t-35.5 132.5t35.5 132.5t97.5 93.5t138 34t138 -34t97.5 -93.5t35.5 -132.5t-35.5 -132.5t-97.5 -93.5t-138 -34t-138 34zM393 156q37 38 37 94t-37 94t-93 38t-93 -38t-37 -94t37 -94t93 -38t93 38z" />
    <glyph glyph-name="uni25C6" unicode="&#x25c6;" horiz-adv-x="600" 
d="M35 259l265 265l265 -265l-265 -265z" />
    <glyph glyph-name="uni25C7" unicode="&#x25c7;" horiz-adv-x="600" 
d="M35 259l265 265l265 -265l-265 -265zM415 259l-115 115l-115 -115l115 -115z" />
    <glyph glyph-name="lozenge" unicode="&#x25ca;" horiz-adv-x="676" 
d="M629 330l-190 -330h-202l-191 330l191 330h202zM447 330l-109 221l-109 -221l109 -221z" />
    <glyph glyph-name="uni25AA" unicode="&#x25aa;" horiz-adv-x="600" 
d="M550 500v-500h-500v500h500z" />
    <glyph glyph-name="uni25AB" unicode="&#x25ab;" horiz-adv-x="600" 
d="M42 500h516v-500h-516v500zM423 125v250h-246v-250h246z" />
    <glyph glyph-name="uni25CF.case" horiz-adv-x="813" 
d="M232.5 34.5q-77.5 44.5 -122 122t-44.5 173.5t44.5 173.5t122 122t173.5 44.5t173.5 -44.5t122 -122t44.5 -173.5t-44.5 -173.5t-122 -122t-173.5 -44.5t-173.5 44.5z" />
    <glyph glyph-name="circle.case" horiz-adv-x="813" 
d="M229 34.5q-79 44.5 -124 122t-45 173.5t45 173.5t124 122t177 44.5t177 -44.5t124.5 -122t45.5 -173.5t-45.5 -173.5t-124.5 -122t-177 -44.5t-177 44.5zM512 145q47 27 73.5 75t26.5 110t-26.5 110t-73.5 75t-106 27t-106 -27t-73 -75t-26 -110t26 -110t73 -75t106 -27
t106 27z" />
    <glyph glyph-name="uni25C6.case" horiz-adv-x="813" 
d="M62 330l344 344l344 -344l-344 -344z" />
    <glyph glyph-name="uni25C7.case" horiz-adv-x="813" 
d="M62 330l344 344l344 -344l-344 -344zM554 330l-148 148l-148 -148l148 -148z" />
    <glyph glyph-name="uni25AA.case" horiz-adv-x="813" 
d="M736 660v-660h-660v660h660z" />
    <glyph glyph-name="uni25AB.case" horiz-adv-x="813" 
d="M73 660h666v-660h-666v660zM605 126v408h-397v-408h397z" />
    <glyph glyph-name="uni275B" unicode="&#x275b;" horiz-adv-x="689" 
d="M622 547q-185 0 -274 -33t-123 -97l7 -4q27 22 61.5 34t93.5 12q70 0 127 -25.5t91 -76.5t34 -125q0 -122 -73.5 -182t-206.5 -60q-152 0 -227.5 78.5t-75.5 208.5q0 184 119 286t392 102z" />
    </font>
</defs>
</svg>
